<?xml version="1.0" encoding="UTF-8" standalone="no"?>
<!-- Created with Inkscape (http://www.inkscape.org/) -->

<svg
   width="800"
   height="310"
   viewBox="0 0 211.66667 82.020831"
   version="1.1"
   id="svg1100"
   inkscape:version="1.1.2 (0a00cf5339, 2022-02-04, custom)"
   sodipodi:docname="logo.svg"
   xmlns:inkscape="http://www.inkscape.org/namespaces/inkscape"
   xmlns:sodipodi="http://sodipodi.sourceforge.net/DTD/sodipodi-0.dtd"
   xmlns="http://www.w3.org/2000/svg"
   xmlns:svg="http://www.w3.org/2000/svg">
  <sodipodi:namedview
     id="namedview1102"
     pagecolor="#ffffff"
     bordercolor="#666666"
     borderopacity="1.0"
     inkscape:pageshadow="2"
     inkscape:pageopacity="0.0"
     inkscape:pagecheckerboard="0"
     inkscape:document-units="px"
     showgrid="false"
     units="px"
     inkscape:zoom="0.18507471"
     inkscape:cx="1099.556"
     inkscape:cy="615.96748"
     inkscape:window-width="1920"
     inkscape:window-height="1017"
     inkscape:window-x="-8"
     inkscape:window-y="-8"
     inkscape:window-maximized="1"
     inkscape:current-layer="layer1" />
  <defs
     id="defs1097" />
  <g
     inkscape:label="Ebene 1"
     inkscape:groupmode="layer"
     id="layer1">
    <g
       id="Layer_2_1_"
       transform="matrix(0.26448415,0,0,0.26448415,0,7.9245314)">
	<g
   id="Ebene_1">
		<path
   style="fill:#d1effa"
   d="m 396.5,246.3 v -0.4 c 0.4,-0.5 1.1,-0.8 1.7,-0.7 2.9,-0.1 5.7,-0.1 8.6,0 0.6,0 1.3,0.2 1.7,0.7 v 0.4 z"
   id="path1163" />

		<path
   style="fill:#00a8e1"
   d="m 408.5,245.9 c -4,-0.1 -8,-0.1 -12,0 -5.5,-0.3 -11,-0.5 -16.5,-0.9 -14.6,-1.1 -29.1,-3.3 -43.3,-6.6 -49.1,-11.4 -92.2,-34.3 -129.8,-67.6 -3.5,-3.1 -6.8,-6.3 -10.2,-9.5 -0.8,-0.7 -1.5,-1.7 -1.9,-2.7 -0.6,-1.4 -0.3,-2.9 0.7,-4 1,-1.1 2.6,-1.5 4,-0.9 0.9,0.4 1.8,0.8 2.6,1.3 35.9,22.2 75.1,38.4 116.2,48 13.8,3.2 27.7,5.7 41.7,7.5 20.1,2.5 40.4,3.4 60.6,2.7 10.9,-0.3 21.7,-1.3 32.5,-2.7 25.2,-3.2 50.1,-8.9 74.2,-16.9 12.7,-4.2 25.1,-9 37.2,-14.6 1.8,-1 4,-1.3 6,-0.8 3.3,0.8 5.3,4.2 4.5,7.5 -0.1,0.4 -0.3,0.9 -0.5,1.3 -0.8,1.5 -1.9,2.8 -3.3,3.8 -11.5,9 -23.9,16.9 -37,23.5 -24.7,12.5 -51.1,21.4 -78.3,26.5 -15.7,2.8 -31.5,4.5 -47.4,5.1 z"
   id="path1165" />

		<path
   style="fill:#00a8e1"
   d="m 260.4,43.2 c 2.5,-1.5 5.1,-3.1 7.8,-4.5 7,-3.6 14.8,-5.4 22.7,-5 5.7,0.3 10.9,1.9 14.9,6.1 3.8,3.9 5.2,8.7 5.6,13.9 0.1,1.1 0.1,2.2 0.1,3.4 v 51.8 c 0,4.5 -0.6,5.1 -5.1,5.1 h -12.2 c -0.8,0 -1.6,0 -2.4,-0.1 -1.2,-0.1 -2.2,-1.1 -2.4,-2.3 -0.2,-1.1 -0.2,-2.2 -0.2,-3.3 V 62 c 0.1,-1.9 -0.1,-3.7 -0.6,-5.5 -0.8,-3.1 -3.6,-5.3 -6.8,-5.5 -5.9,-0.4 -11.8,0.8 -17.2,3.3 -0.8,0.2 -1.3,1 -1.2,1.8 v 52.6 c 0,1 0,1.9 -0.2,2.9 0,1.4 -1.1,2.4 -2.5,2.4 0,0 0,0 0,0 -1.5,0.1 -3,0.1 -4.6,0.1 h -10.6 c -3.7,0 -4.5,-0.9 -4.5,-4.6 V 62.2 c 0,-1.7 -0.1,-3.5 -0.5,-5.2 -0.7,-3.4 -3.6,-5.8 -7,-6 -6,-0.4 -12.1,0.8 -17.5,3.4 -0.8,0.2 -1.3,1.1 -1.1,1.9 v 53.3 c 0,3.7 -0.8,4.5 -4.5,4.5 H 197 c -3.5,0 -4.4,-1 -4.4,-4.4 V 40.3 c 0,-0.8 0.1,-1.6 0.3,-2.4 0.4,-1.2 1.6,-1.9 2.8,-1.9 h 12.5 c 1.8,0 2.9,1.1 3.5,2.8 0.5,1.4 0.8,2.7 1.3,4.2 1,0 1.6,-0.7 2.3,-1.1 5.5,-3.4 11.3,-6.3 17.8,-7.5 5,-1 10,-1 15,0 4.7,1 8.9,3.8 11.6,7.8 0.2,0.3 0.4,0.5 0.6,0.7 -0.1,0.1 0,0.1 0.1,0.3 z"
   id="path1167" />

		<path
   style="fill:#232f3e"
   d="m 467.7,93 c 0.6,-2 1.2,-3.9 1.8,-5.9 4.6,-15.5 9.2,-30.9 13.8,-46.4 l 0.6,-1.8 c 0.5,-1.8 2.2,-2.9 4,-2.9 h 15.2 c 3.8,0 4.6,1.1 3.3,4.7 l -6,15.9 c -6.7,17.4 -13.4,34.9 -20.1,52.3 -0.2,0.6 -0.5,1.2 -0.7,1.8 -0.7,2.1 -2.8,3.5 -5,3.3 -4.4,-0.1 -8.8,-0.1 -13.2,0 -3.1,0.1 -4.9,-1.3 -6,-4.1 -2.5,-6.6 -5.1,-13.3 -7.6,-19.9 -6,-15.7 -12.1,-31.4 -18.1,-47.2 -0.6,-1.2 -1,-2.6 -1.3,-3.9 -0.3,-2 0.4,-3 2.4,-3 5.7,-0.1 11.4,0 17,0 2.4,0 3.5,1.6 4.1,3.7 1.1,3.8 2.2,7.7 3.4,11.5 4.1,13.9 8.1,27.9 12.2,41.8 -0.1,0.1 0,0.1 0.2,0.1 z"
   id="path1169" />

		<path
   style="fill:#00a8e1"
   d="m 112.6,47 c 0.7,-0.2 1.3,-0.6 1.7,-1.2 1.8,-1.8 3.7,-3.5 5.7,-5.1 5.2,-4 11.7,-6 18.2,-5.5 2.6,0.1 3.5,0.9 3.7,3.4 0.2,3.4 0.1,6.9 0.1,10.3 0.1,1.4 0,2.7 -0.2,4.1 -0.4,1.8 -1.1,2.5 -2.9,2.7 -1.4,0.1 -2.7,0 -4.1,-0.1 -6.7,-0.6 -13.2,0.7 -19.5,2.8 -1.4,0.5 -1.4,1.5 -1.4,2.6 v 48 c 0,0.9 0,1.7 -0.1,2.6 -0.1,1.3 -1.1,2.3 -2.4,2.3 -0.7,0.1 -1.5,0.1 -2.2,0.1 h -13 c -0.7,0 -1.5,0 -2.2,-0.1 -1.3,-0.1 -2.3,-1.2 -2.4,-2.5 -0.1,-0.8 -0.1,-1.6 -0.1,-2.4 V 41 c 0,-4.6 0.5,-5.1 5.1,-5.1 h 9.6 c 2.6,0 3.8,0.9 4.5,3.4 0.7,2.5 1.3,5 1.9,7.7 z"
   id="path1171" />

		<path
   style="fill:#00a8e1"
   d="m 580.4,148.4 c 6.6,0.2 13.1,0.6 19.5,2.3 1.8,0.5 3.5,1.1 5.2,1.9 2.3,0.9 3.8,3.1 4.1,5.5 0.4,2.8 0.5,5.7 0.3,8.6 -1.3,17.1 -6.6,33.6 -15.4,48.3 -3.2,5.3 -7.1,10.1 -11.6,14.3 -0.9,0.9 -2,1.6 -3.2,2 -1.9,0.5 -3.1,-0.5 -3.2,-2.4 0.1,-1 0.3,-2 0.7,-3 3.5,-9.4 6.9,-18.7 9.6,-28.4 1.6,-5.3 2.7,-10.7 3.4,-16.2 0.2,-2 0.3,-4 0.1,-6 -0.1,-3.4 -2.3,-6.3 -5.6,-7.3 -3.1,-1 -6.3,-1.6 -9.6,-1.8 -9.2,-0.4 -18.4,0 -27.5,1.2 l -12.1,1.5 c -1.3,0.1 -2.5,0 -3.2,-1.2 -0.7,-1.2 -0.4,-2.4 0.3,-3.6 0.8,-1.1 1.8,-2.1 3,-2.8 7.4,-5.3 15.7,-8.5 24.5,-10.6 6.8,-1.4 13.7,-2.1 20.7,-2.3 z"
   id="path1173" />

		<path
   style="fill:#232f3e"
   d="m 538.5,75 v 36 c -0.2,2 -1.1,2.9 -3.1,3 -5.4,0.1 -10.7,0.1 -16.1,0 -2,0 -2.9,-1 -3.1,-2.9 -0.1,-0.6 -0.1,-1.3 -0.1,-1.9 V 40 c 0.1,-3.1 0.9,-4 4,-4 h 14.4 c 3.1,0 4,0.9 4,4 z"
   id="path1175" />

		<path
   style="fill:#00a8e1"
   d="M 151.6,74.8 V 39.3 c 0.1,-2.4 1,-3.3 3.4,-3.4 5.2,-0.1 10.4,-0.1 15.6,0 2.3,0 3,0.7 3.2,3 0.1,0.9 0.1,1.7 0.1,2.6 v 66.6 c 0,1.1 -0.1,2.2 -0.2,3.3 -0.1,1.3 -1.1,2.2 -2.4,2.3 -0.6,0.1 -1.1,0.1 -1.7,0.1 h -13.9 c -0.5,0 -0.9,0 -1.4,-0.1 -1.4,-0.1 -2.6,-1.2 -2.7,-2.6 -0.1,-0.8 -0.1,-1.6 -0.1,-2.4 0.1,-11.1 0.1,-22.5 0.1,-33.9 z"
   id="path1177" />

		<path
   style="fill:#00a8e1"
   d="m 163.2,0.1 c 1.6,-0.1 3.2,0.2 4.7,0.7 5.4,1.8 8.2,6.5 7.7,12.6 -0.4,5.2 -4.3,9.4 -9.5,10.2 -2.2,0.4 -4.5,0.4 -6.7,0 -5.7,-1.1 -9.9,-5.3 -9.5,-12.5 0.6,-7.1 5.3,-11 13.3,-11 z"
   id="path1179" />

		<path
   style="fill:#232f3e"
   d="m 527.4,0.1 c 2,-0.2 4,0.2 5.9,1 3.9,1.5 6.6,5.1 6.8,9.3 0.8,9.1 -5.3,13.7 -13.4,13.5 -1.1,0 -2.2,-0.2 -3.3,-0.4 -6.2,-1.5 -9.4,-6.3 -8.8,-13.2 0.5,-5.5 4.8,-9.6 10.7,-10.1 0.7,-0.1 1.4,-0.2 2.1,-0.1 z"
   id="path1181" />

		<path
   style="fill:#00a8e1"
   d="M 76.7,66.6 C 76.3,61.4 74.9,56.3 72.8,51.6 68.7,43 62.4,36.7 52.8,34.5 c -11,-2.4 -20.9,0 -29.9,6.7 -0.6,0.6 -1.3,1.1 -2.1,1.5 -0.2,-0.1 -0.4,-0.2 -0.4,-0.3 -0.3,-1 -0.5,-2 -0.8,-3 C 18.8,36.9 17.8,36 15.1,36 12.1,36 9,36.1 6,36 3.7,35.9 1.6,36.2 0,38 c 0,35 0,70.1 0.1,105 1.3,2.1 3.3,2.5 5.6,2.4 3.6,-0.1 7.2,0 10.8,0 6.3,0 6.3,0 6.3,-6.2 v -28.5 c 0,-0.7 -0.3,-1.5 0.4,-2.1 5,3.9 11.1,6.3 17.4,6.9 8.8,0.9 16.8,-1.3 23.5,-7.3 C 69,103.7 72.6,97.9 74.5,91.5 77.2,83.3 77.4,75 76.7,66.6 Z M 52.8,87.3 c -0.7,3.1 -2.3,5.9 -4.6,8 -2.6,2.2 -5.8,3.5 -9.2,3.5 C 33.9,99.1 28.9,98 24.4,95.6 23.3,95.1 22.6,94 22.7,92.8 V 74.7 c 0,-6 0.1,-12 0,-18 -0.1,-1.4 0.7,-2.6 2,-3.1 5.5,-2.6 11.2,-3.8 17.2,-2.6 4.2,0.6 7.8,3.3 9.5,7.2 1.5,3.2 2.4,6.7 2.6,10.2 0.6,6.4 0.6,12.8 -1.2,18.9 z"
   id="path1183" />

		<path
   style="fill:#232f3e"
   d="m 800.1,82.2 c 0,0 0,-0.1 0,0 0,-0.1 0,-0.1 0,0 z"
   id="path1185" />

		<path
   style="fill:#232f3e"
   d="m 800.2,68.8 v 0.4 c -0.4,-0.4 -0.6,-1 -0.4,-1.5 v -0.8 c 0,0 0,-0.1 0.1,-0.1 h -0.1 v -1 h 0.2 c 0,-0.1 -0.1,-0.1 -0.1,-0.2 -0.2,-1.9 -0.6,-3.8 -1.1,-5.6 C 795.1,46.8 786.8,38.1 773.3,34.7 767,33.2 760.6,33 754.2,34 c -13.5,2 -23.2,9.2 -27.9,22 -4.6,12.2 -4.5,25.6 0.1,37.8 4,11.1 12,18.1 23.5,21 6.1,1.5 12.5,1.9 18.8,1 21,-2.5 29.7,-18.4 31.1,-32.2 h -0.1 v -1.4 c -0.1,-0.6 -0.2,-1.1 0.4,-1.5 v 0.2 c 0,-0.1 0.1,-0.3 0.2,-0.4 V 69 c 0,-0.1 -0.1,-0.1 -0.1,-0.2 z m -24,19 c -0.6,2.1 -1.5,4 -2.8,5.8 -2.2,3.1 -5.7,5.1 -9.5,5.4 -1.9,0.2 -3.8,0.2 -5.7,-0.2 -4.2,-0.8 -7.7,-3.6 -9.4,-7.5 -1.5,-3.1 -2.4,-6.5 -2.7,-9.9 -0.5,-5.9 -0.6,-11.8 0.8,-17.6 0.5,-2.3 1.5,-4.6 2.7,-6.6 2.2,-3.6 6,-5.9 10.2,-6.2 1.9,-0.2 3.8,-0.2 5.7,0.2 4,0.8 7.3,3.4 9.1,7.1 1.7,3.5 2.7,7.4 2.9,11.3 0.1,1.8 0.2,3.6 0.1,5.4 0.3,4.4 -0.2,8.7 -1.4,12.8 z"
   id="path1187" />

		<path
   style="fill:#232f3e"
   d="M 624.9,0.8 H 611 c -3.8,0 -4.5,0.7 -4.5,4.5 v 32.4 c 0,0.7 0.3,1.4 -0.2,2.1 -0.9,-0.1 -1.4,-0.7 -2.1,-1.1 -10.4,-6.1 -21.3,-7.2 -32.3,-2.1 -7.7,3.6 -12.5,10.1 -15.6,17.8 -3,7.4 -3.7,15.2 -3.5,23.1 0,7.4 1.7,14.7 5,21.3 3.8,7.3 9.3,12.9 17.3,15.3 10.9,3.4 21.1,1.7 30.4,-5.2 0.7,-0.4 1.1,-1.1 2,-1.3 0.5,1.1 0.9,2.3 1.1,3.5 0.4,1.6 1.8,2.7 3.5,2.7 h 2.4 c 3.6,0 7.1,0.1 10.6,0 2.8,0 3.6,-0.9 3.7,-3.8 V 4.6 c -0.1,-3.1 -0.9,-3.8 -3.9,-3.8 z m -18.3,73.6 v 18.2 c 0.2,1.2 -0.5,2.3 -1.6,2.8 -4.8,2.7 -10.3,3.8 -15.7,3 -4.6,-0.5 -8.6,-3.3 -10.7,-7.4 -1.6,-3.2 -2.5,-6.6 -2.8,-10.1 -0.8,-6.3 -0.3,-12.7 1.2,-18.8 0.5,-1.7 1.1,-3.3 2,-4.9 2.1,-3.9 6.1,-6.4 10.5,-6.7 5.3,-0.5 10.6,0.5 15.4,2.7 1.2,0.4 1.9,1.6 1.8,2.9 -0.2,6.2 -0.1,12.2 -0.1,18.3 z"
   id="path1189" />

		<path
   style="fill:#00a8e1"
   d="m 348,81.3 c 7.5,1.4 15.2,1.5 22.7,0.3 4.4,-0.6 8.6,-1.9 12.5,-4 4.5,-2.6 7.8,-6.2 9.2,-11.2 3.5,-12.6 -1.9,-25.3 -15,-30 -6.4,-2.1 -13.2,-2.8 -19.9,-1.9 -15.8,1.8 -26.1,10.5 -30.8,25.6 -3.3,10.3 -2.9,20.8 -0.2,31.2 3.5,13.3 12.3,21.2 25.6,24 7.6,1.7 15.3,1.4 22.9,0.2 4,-0.7 8,-1.7 11.8,-3.2 2.3,-0.9 3.5,-2.3 3.4,-4.9 -0.1,-2.4 0,-4.9 0,-7.4 0,-3 -1.2,-3.9 -4.1,-3.2 -2.9,0.7 -5.7,1.3 -8.6,1.9 -6.2,1.3 -12.6,1.3 -18.8,0.2 -8.5,-1.7 -14,-9 -13.5,-18 0.9,0.1 1.9,0.2 2.8,0.4 z M 345.5,66 c 0.3,-2.4 1,-4.7 1.9,-6.9 3,-7.3 9.3,-9.8 15.7,-9.4 1.8,0.1 3.6,0.5 5.3,1.2 2.6,1.1 4.3,3.5 4.6,6.3 0.3,1.7 0.2,3.5 -0.3,5.2 -1.2,3.6 -4.1,5.1 -7.6,5.8 -2.1,0.5 -4.3,0.7 -6.5,0.5 -3.9,0 -7.9,-0.3 -11.8,-0.9 -1.5,-0.2 -1.5,-0.2 -1.3,-1.8 z"
   id="path1191" />

		<path
   style="fill:#232f3e"
   d="m 685.3,82.3 c 5.8,-0.4 11.6,-1.5 16.8,-4.3 5.3,-2.6 9,-7.5 10.1,-13.3 0.7,-3.6 0.7,-7.4 -0.1,-11 -2.1,-9 -7.8,-14.6 -16.4,-17.5 -4.8,-1.5 -9.9,-2.1 -14.9,-1.9 -16.8,0.4 -29.6,8.9 -34.8,25.7 -3.5,11.1 -3,22.4 0.4,33.5 3.5,11.4 11.5,18.3 22.9,21.4 4.9,1.2 10,1.7 15,1.5 7.3,-0.1 14.6,-1.5 21.5,-4.1 2.9,-1.1 3.6,-2.1 3.6,-5.2 v -7.2 c -0.1,-2.9 -1.3,-3.9 -4.2,-3.2 -2.2,0.6 -4.3,1.1 -6.5,1.6 -6.7,1.6 -13.7,1.9 -20.5,0.7 -6.8,-1.3 -11.4,-5.2 -13.2,-12 -0.5,-2 -0.9,-4 -1.1,-6.1 0.5,0 1,0 1.4,0.2 6.6,1.2 13.3,1.7 20,1.2 z m -20.9,-16 c 0.7,-3.9 1.6,-7.7 4,-10.9 3.7,-4.9 8.8,-6.3 14.6,-5.7 0.5,0 0.9,0.2 1.4,0.2 7,1.1 8.7,6.7 7.4,12.1 -1,4 -4.3,5.5 -8,6.2 -2,0.4 -4.1,0.6 -6.2,0.5 -4.1,-0.1 -8.1,-0.4 -12.1,-1 -0.9,-0.1 -1.3,-0.5 -1.1,-1.4 z"
   id="path1193" />

	</g>

</g>
  </g>
</svg>
