<?xml version="1.0" encoding="UTF-8" standalone="no"?>
<svg
   width="1000"
   height="1500"
   viewBox="0 0 264.58333 396.87501"
   version="1.1"
   id="svg8"
   inkscape:version="1.2 (dc2aedaf03, 2022-05-15)"
   sodipodi:docname="primary.svg"
   xml:space="preserve"
   xmlns:inkscape="http://www.inkscape.org/namespaces/inkscape"
   xmlns:sodipodi="http://sodipodi.sourceforge.net/DTD/sodipodi-0.dtd"
   xmlns:xlink="http://www.w3.org/1999/xlink"
   xmlns="http://www.w3.org/2000/svg"
   xmlns:svg="http://www.w3.org/2000/svg"
   xmlns:rdf="http://www.w3.org/1999/02/22-rdf-syntax-ns#"
   xmlns:cc="http://creativecommons.org/ns#"
   xmlns:dc="http://purl.org/dc/elements/1.1/"><defs
     id="defs2"><inkscape:path-effect
       effect="fillet_chamfer"
       id="path-effect3429"
       is_visible="true"
       lpeversion="1"
       satellites_param="F,0,0,1,0,6.6145833,0,1 @ F,0,0,1,0,6.6145833,0,1 @ F,0,0,1,0,6.6145833,0,1 @ F,0,0,1,0,6.6145833,0,1"
       unit="px"
       method="auto"
       mode="F"
       radius="25"
       chamfer_steps="1"
       flexible="false"
       use_knot_distance="true"
       apply_no_radius="true"
       apply_with_radius="true"
       only_selected="false"
       hide_knots="false"
       nodesatellites_param="F,0,0,1,0,6.6145833,0,1 @ F,0,0,1,0,6.6145833,0,1 @ F,0,0,1,0,6.6145833,0,1 @ F,0,0,1,0,6.6145833,0,1" /><inkscape:path-effect
       effect="fillet_chamfer"
       id="path-effect3427"
       is_visible="true"
       lpeversion="1"
       satellites_param="F,1,0,1,0,0.03,0,1 @ F,1,0,1,0,0.03,0,1 @ F,1,0,1,0,0.03,0,1 @ F,1,0,1,0,0.03,0,1"
       unit="px"
       method="auto"
       mode="F"
       radius="15"
       chamfer_steps="1"
       flexible="false"
       use_knot_distance="true"
       apply_no_radius="true"
       apply_with_radius="true"
       only_selected="false"
       hide_knots="false"
       nodesatellites_param="F,1,0,1,0,0.03,0,1 @ F,1,0,1,0,0.03,0,1 @ F,1,0,1,0,0.03,0,1 @ F,1,0,1,0,0.03,0,1" /><inkscape:path-effect
       effect="fillet_chamfer"
       id="path-effect1210"
       is_visible="true"
       lpeversion="1"
       satellites_param="F,1,0,1,0,0.02,0,1 @ F,1,0,1,0,0.02,0,1 @ F,1,0,1,0,0.02,0,1 @ F,1,0,1,0,0.02,0,1"
       unit="px"
       method="auto"
       mode="F"
       radius="2"
       chamfer_steps="1"
       flexible="true"
       use_knot_distance="true"
       apply_no_radius="true"
       apply_with_radius="true"
       only_selected="false"
       hide_knots="false"
       nodesatellites_param="F,1,0,1,0,0.02,0,1 @ F,1,0,1,0,0.02,0,1 @ F,1,0,1,0,0.02,0,1 @ F,1,0,1,0,0.02,0,1" /><inkscape:path-effect
       effect="fillet_chamfer"
       id="path-effect1191"
       is_visible="true"
       lpeversion="1"
       satellites_param="F,1,0,1,0,0.03,0,1 @ F,1,0,1,0,0.03,0,1 @ F,1,0,1,0,0.03,0,1 @ F,1,0,1,0,0.03,0,1"
       unit="px"
       method="auto"
       mode="F"
       radius="3"
       chamfer_steps="1"
       flexible="true"
       use_knot_distance="true"
       apply_no_radius="true"
       apply_with_radius="true"
       only_selected="false"
       hide_knots="false"
       nodesatellites_param="F,1,0,1,0,0.03,0,1 @ F,1,0,1,0,0.03,0,1 @ F,1,0,1,0,0.03,0,1 @ F,1,0,1,0,0.03,0,1" /><linearGradient
       inkscape:collect="always"
       id="linearGradient847"><stop
         style="stop-color:#282828;stop-opacity:1"
         offset="0"
         id="stop843" /><stop
         style="stop-color:#191919;stop-opacity:1"
         offset="1"
         id="stop845" /></linearGradient><radialGradient
       inkscape:collect="always"
       xlink:href="#linearGradient847"
       id="radialGradient849"
       cx="26.375103"
       cy="97.113945"
       fx="26.375103"
       fy="97.113945"
       r="132.29167"
       gradientTransform="matrix(0,3.0734875,-2.0099162,0,221.56598,-34.611386)"
       gradientUnits="userSpaceOnUse" /></defs><sodipodi:namedview
     id="base"
     pagecolor="#757575"
     bordercolor="#666666"
     borderopacity="1.0"
     inkscape:pageopacity="1"
     inkscape:pageshadow="2"
     inkscape:zoom="0.50181065"
     inkscape:cx="831.98713"
     inkscape:cy="795.12063"
     inkscape:document-units="mm"
     inkscape:current-layer="layer1"
     inkscape:document-rotation="0"
     showgrid="false"
     units="px"
     inkscape:showpageshadow="false"
     inkscape:pagecheckerboard="false"
     inkscape:lockguides="true"
     inkscape:window-width="1920"
     inkscape:window-height="1017"
     inkscape:window-x="-8"
     inkscape:window-y="-8"
     inkscape:window-maximized="1"
     showguides="true"
     inkscape:guide-bbox="true"
     inkscape:deskcolor="#757575"><sodipodi:guide
       position="0,396.875"
       orientation="0,1000"
       inkscape:locked="true"
       id="guide833" /><sodipodi:guide
       position="264.58333,396.875"
       orientation="1500,0"
       inkscape:locked="true"
       id="guide835" /><sodipodi:guide
       position="264.58333,0"
       orientation="0,-1000"
       inkscape:locked="true"
       id="guide837" /><sodipodi:guide
       position="0,0"
       orientation="-1500,0"
       inkscape:locked="true"
       id="guide839" /><sodipodi:guide
       position="275.56944,291.04167"
       orientation="0,1"
       id="guide1075"
       inkscape:label=""
       inkscape:locked="true"
       inkscape:color="rgb(0,0,255)" /><sodipodi:guide
       position="323.19316,105.83333"
       orientation="0,1"
       id="guide1077"
       inkscape:label=""
       inkscape:locked="true"
       inkscape:color="rgb(0,0,255)" /><sodipodi:guide
       position="39.6875,280.99221"
       orientation="-1,0"
       id="guide1079"
       inkscape:label=""
       inkscape:locked="true"
       inkscape:color="rgb(0,0,255)" /><sodipodi:guide
       position="224.89583,283.67412"
       orientation="-1,0"
       id="guide1081"
       inkscape:label=""
       inkscape:locked="true"
       inkscape:color="rgb(0,0,255)" /></sodipodi:namedview><metadata
     id="metadata5"><rdf:RDF><cc:Work
         rdf:about=""><dc:format>image/svg+xml</dc:format><dc:type
           rdf:resource="http://purl.org/dc/dcmitype/StillImage" /></cc:Work></rdf:RDF></metadata><g
     inkscape:label="Layer 1"
     inkscape:groupmode="layer"
     id="layer1"><rect
       style="opacity:0.98;fill:url(#radialGradient849);fill-opacity:1;stroke-width:2.64583"
       id="background"
       width="264.58334"
       height="396.875"
       x="-5.0862632e-06"
       y="-4.7961635e-14" /><g
       id="logo"><path
         id="path14"
         style="fill:#d91e25;fill-opacity:1;fill-rule:nonzero;stroke:none;stroke-width:0.0146642"
         d="m 201.87605,165.55123 c -5.06939,-4.84415 -11.90436,-7.48135 -18.86968,-7.73079 -6.94992,-0.25735 -13.97464,1.78521 -19.65303,5.80773 -4.97173,3.52145 -8.82782,8.46693 -11.4769,13.91407 -3.25807,-2.87651 -6.62804,-5.66168 -10.6991,-7.30728 -3.78131,-1.53724 -8.36297,-2.24552 -12.21392,-0.5109 -1.7424,0.78292 -3.24298,2.05885 -4.2042,3.71619 -0.97195,1.6877 -1.36759,3.70005 -1.15554,5.63719 0.20837,1.8726 1.02898,3.55209 2.37471,4.87099 1.4186,1.38136 3.22229,2.28584 5.04197,3.02638 2.08905,0.85405 4.25993,1.46437 6.41409,2.1178 2.05503,0.62704 4.1001,1.27197 6.10806,2.0345 3.88292,1.47712 7.70102,3.4103 10.71538,6.32113 6.03812,5.85862 7.98802,14.73952 6.9756,22.88839 -0.28127,2.29581 -0.8297,4.5604 -1.65339,6.72474 -0.19869,0.50939 -0.39959,1.01634 -0.62425,1.51113 -0.0632,0.13165 -0.15676,0.38551 -0.15676,0.38551 0,0 0.48862,0.53582 0.70564,0.7442 0.68101,0.68046 1.39984,1.32907 2.14463,1.94731 2.74719,2.27461 5.88341,4.0661 9.22551,5.32532 6.63817,2.49165 14.12729,2.87314 20.87412,0.57425 3.78189,-1.29216 7.33353,-3.42614 10.12706,-6.30886 v 6.70044 h 23.01978 v -79.0493 h -23.01978 z m -15.34604,52.61452 c -3.59652,0 -7.00843,-1.43372 -9.68228,-3.78878 -2.87668,-2.52355 -4.84358,-5.96186 -5.90556,-9.62203 -2.15371,-7.45861 -0.40326,-16.23218 5.22764,-21.76393 2.64335,-2.59468 6.11802,-4.21565 9.84066,-4.32534 3.72513,-0.11726 7.39849,1.27006 10.23454,3.67395 4.92422,4.18266 7.17664,10.98888 6.86429,17.32408 -0.32115,6.3635 -3.33023,12.85048 -8.8762,16.29113 -2.30521,1.42829 -4.99609,2.21092 -7.70309,2.21092 M 116.2612,205.36599 c -1.07812,-0.42379 -2.14406,-0.88878 -3.17655,-1.39808 -1.95401,-0.97574 -3.836,-2.12952 -5.53191,-3.52319 -3.10073,-2.5724 -5.37177,-5.94354 -6.72366,-9.73509 -1.383113,-3.87881 -1.873338,-8.1062 -1.626983,-12.21421 0.253977,-4.39191 1.434293,-8.71886 3.611343,-12.55486 1.70646,-3.01026 3.96944,-5.68367 6.61381,-7.91115 -4.88359,0 -23.190607,0.008 -23.190607,0.008 0,0 -0.03755,24.45833 -0.03755,34.20367 v 7.2985 c 0,2.26194 -0.0476,4.53209 -0.321432,6.7782 -0.496828,3.99012 -1.789469,8.63704 -5.553461,10.74266 -1.821577,1.01828 -3.946271,1.32242 -6.009512,1.24748 -2.071017,-0.0688 -4.164761,-0.59786 -5.827974,-1.88038 -3.297375,-2.53324 -4.336192,-7.08337 -4.702939,-11.01293 -0.212334,-2.17644 -0.212334,-4.36316 -0.212334,-6.54386 v -7.31727 -33.51607 l -23.867118,-0.0126 c 0,0 0.01633,32.54854 -0.01536,42.29374 -0.01396,4.73902 0.05389,9.51145 1.040981,14.16542 0.857908,4.10961 2.388541,8.11998 4.760804,11.59516 2.293458,3.3735 5.369955,6.12015 8.913629,8.12004 3.805496,2.1567 8.070561,3.4003 12.386664,4.03114 4.335898,0.63698 8.795847,0.71792 13.160042,0.34507 4.172677,-0.36122 8.327178,-1.20509 12.194407,-2.81191 3.677035,-1.53143 7.020171,-3.75694 9.71617,-6.68976 2.56755,-2.79977 4.50718,-6.1363 5.79587,-9.69853 0.10302,-0.28829 0.20588,-0.5848 0.30105,-0.87266 2.83868,2.7972 5.95657,5.39407 9.52392,7.21138 3.50648,1.79802 7.6211,2.86447 11.56429,2.16885 1.95033,-0.34505 3.82118,-1.17881 5.25446,-2.5559 1.37051,-1.30284 2.27514,-3.03906 2.60347,-4.89686 0.30867,-1.75295 0.14269,-3.61076 -0.63643,-5.22762 -0.72044,-1.48533 -1.91029,-2.69 -3.27377,-3.60929 -1.96397,-1.34119 -4.29483,-2.16018 -6.55678,-2.89691 -2.51739,-0.82149 -6.29062,-1.92467 -7.1932,-2.23936 -0.91519,-0.3103 -2.48703,-0.89041 -2.98341,-1.091" /></g><path
       id="border"
       style="opacity:0.98;fill:#d91e25;fill-opacity:1;stroke-width:46.3438"
       d="M 49.832031 25 A 25 25 0 0 0 25 50 L 25 1450 A 25 25 0 0 0 50 1475 L 950 1475 A 25 25 0 0 0 975 1450 L 975 50 A 25 25 0 0 0 950 25 L 50 25 A 25 25 0 0 0 49.832031 25 z M 73.542969 50 A 23.68421 24.137931 0 0 1 73.683594 50 L 926.31641 50 A 23.68421 24.137931 0 0 1 950 74.138672 L 950 1425.8613 A 23.68421 24.137931 0 0 1 926.31641 1450 L 73.683594 1450 A 23.68421 24.137931 0 0 1 50 1425.8613 L 50 74.138672 A 23.68421 24.137931 0 0 1 73.542969 50 z "
       transform="scale(0.26458333)" /></g></svg>
