<?xml version="1.0" encoding="UTF-8" standalone="no"?>
<svg
   width="1000"
   height="562"
   viewBox="0 0 264.58333 148.69584"
   version="1.1"
   id="svg8"
   inkscape:version="1.2 (dc2aedaf03, 2022-05-15)"
   sodipodi:docname="thumb.svg"
   xml:space="preserve"
   xmlns:inkscape="http://www.inkscape.org/namespaces/inkscape"
   xmlns:sodipodi="http://sodipodi.sourceforge.net/DTD/sodipodi-0.dtd"
   xmlns:xlink="http://www.w3.org/1999/xlink"
   xmlns="http://www.w3.org/2000/svg"
   xmlns:svg="http://www.w3.org/2000/svg"
   xmlns:rdf="http://www.w3.org/1999/02/22-rdf-syntax-ns#"
   xmlns:cc="http://creativecommons.org/ns#"
   xmlns:dc="http://purl.org/dc/elements/1.1/"><defs
     id="defs2"><inkscape:path-effect
       effect="fillet_chamfer"
       id="path-effect2883"
       is_visible="true"
       lpeversion="1"
       satellites_param="F,0,0,1,0,5.2916667,0,1 @ F,0,0,1,0,5.2916667,0,1 @ F,0,0,1,0,5.2916667,0,1 @ F,0,0,1,0,5.2916667,0,1"
       unit="px"
       method="auto"
       mode="F"
       radius="20"
       chamfer_steps="1"
       flexible="false"
       use_knot_distance="true"
       apply_no_radius="true"
       apply_with_radius="true"
       only_selected="false"
       hide_knots="false"
       nodesatellites_param="F,0,0,1,0,5.2916667,0,1 @ F,0,0,1,0,5.2916667,0,1 @ F,0,0,1,0,5.2916667,0,1 @ F,0,0,1,0,5.2916667,0,1" /><inkscape:path-effect
       effect="fillet_chamfer"
       id="path-effect2864"
       is_visible="true"
       lpeversion="1"
       satellites_param="F,0,0,1,0,5.2916667,0,1 @ F,0,0,1,0,5.2916667,0,1 @ F,0,0,1,0,5.2916667,0,1 @ F,0,0,1,0,5.2916667,0,1"
       unit="px"
       method="auto"
       mode="F"
       radius="20"
       chamfer_steps="1"
       flexible="false"
       use_knot_distance="true"
       apply_no_radius="true"
       apply_with_radius="true"
       only_selected="false"
       hide_knots="false"
       nodesatellites_param="F,0,0,1,0,5.2916667,0,1 @ F,0,0,1,0,5.2916667,0,1 @ F,0,0,1,0,5.2916667,0,1 @ F,0,0,1,0,5.2916667,0,1" /><inkscape:path-effect
       effect="fillet_chamfer"
       id="path-effect2862"
       is_visible="true"
       lpeversion="1"
       satellites_param="F,0,0,1,0,0,0,1 @ F,0,0,1,0,0,0,1 @ F,0,0,1,0,0,0,1 @ F,0,0,1,0,0,0,1"
       unit="px"
       method="auto"
       mode="F"
       radius="0"
       chamfer_steps="1"
       flexible="false"
       use_knot_distance="true"
       apply_no_radius="true"
       apply_with_radius="true"
       only_selected="false"
       hide_knots="false"
       nodesatellites_param="F,0,0,1,0,0,0,1 @ F,0,0,1,0,0,0,1 @ F,0,0,1,0,0,0,1 @ F,0,0,1,0,0,0,1" /><inkscape:path-effect
       effect="fillet_chamfer"
       id="path-effect1088"
       is_visible="true"
       lpeversion="1"
       satellites_param="F,0,0,1,0,5.2916667,0,1 @ F,0,0,1,0,5.2916667,0,1 @ F,0,0,1,0,5.2916667,0,1 @ F,0,0,1,0,5.2916667,0,1"
       unit="px"
       method="auto"
       mode="F"
       radius="20"
       chamfer_steps="1"
       flexible="false"
       use_knot_distance="true"
       apply_no_radius="true"
       apply_with_radius="true"
       only_selected="false"
       hide_knots="false"
       nodesatellites_param="F,0,0,1,0,5.2916667,0,1 @ F,0,0,1,0,5.2916667,0,1 @ F,0,0,1,0,5.2916667,0,1 @ F,0,0,1,0,5.2916667,0,1" /><inkscape:path-effect
       effect="fillet_chamfer"
       id="path-effect1308"
       is_visible="true"
       lpeversion="1"
       satellites_param="F,1,0,1,0,0.04,0,1 @ F,1,0,1,0,0.04,0,1 @ F,1,0,1,0,0.04,0,1 @ F,1,0,1,0,0.04,0,1"
       unit="px"
       method="auto"
       mode="F"
       radius="4"
       chamfer_steps="1"
       flexible="true"
       use_knot_distance="true"
       apply_no_radius="true"
       apply_with_radius="true"
       only_selected="false"
       hide_knots="false"
       nodesatellites_param="F,1,0,1,0,0.04,0,1 @ F,1,0,1,0,0.04,0,1 @ F,1,0,1,0,0.04,0,1 @ F,1,0,1,0,0.04,0,1" /><inkscape:path-effect
       effect="fillet_chamfer"
       id="path-effect1306"
       is_visible="true"
       lpeversion="1"
       satellites_param="F,1,0,1,0,0.03,0,1 @ F,1,0,1,0,0.03,0,1 @ F,1,0,1,0,0.03,0,1 @ F,1,0,1,0,0.03,0,1"
       unit="px"
       method="auto"
       mode="F"
       radius="3"
       chamfer_steps="1"
       flexible="true"
       use_knot_distance="true"
       apply_no_radius="true"
       apply_with_radius="true"
       only_selected="false"
       hide_knots="false"
       nodesatellites_param="F,1,0,1,0,0.03,0,1 @ F,1,0,1,0,0.03,0,1 @ F,1,0,1,0,0.03,0,1 @ F,1,0,1,0,0.03,0,1" /><inkscape:path-effect
       effect="fillet_chamfer"
       id="path-effect1210"
       is_visible="true"
       lpeversion="1"
       satellites_param="F,1,0,1,0,0.02,0,1 @ F,1,0,1,0,0.02,0,1 @ F,1,0,1,0,0.02,0,1 @ F,1,0,1,0,0.02,0,1"
       unit="px"
       method="auto"
       mode="F"
       radius="2"
       chamfer_steps="1"
       flexible="true"
       use_knot_distance="true"
       apply_no_radius="true"
       apply_with_radius="true"
       only_selected="false"
       hide_knots="false"
       nodesatellites_param="F,1,0,1,0,0.02,0,1 @ F,1,0,1,0,0.02,0,1 @ F,1,0,1,0,0.02,0,1 @ F,1,0,1,0,0.02,0,1" /><inkscape:path-effect
       effect="fillet_chamfer"
       id="path-effect1191"
       is_visible="true"
       lpeversion="1"
       satellites_param="F,1,0,1,0,0.03,0,1 @ F,1,0,1,0,0.03,0,1 @ F,1,0,1,0,0.03,0,1 @ F,1,0,1,0,0.03,0,1"
       unit="px"
       method="auto"
       mode="F"
       radius="3"
       chamfer_steps="1"
       flexible="true"
       use_knot_distance="true"
       apply_no_radius="true"
       apply_with_radius="true"
       only_selected="false"
       hide_knots="false"
       nodesatellites_param="F,1,0,1,0,0.03,0,1 @ F,1,0,1,0,0.03,0,1 @ F,1,0,1,0,0.03,0,1 @ F,1,0,1,0,0.03,0,1" /><linearGradient
       inkscape:collect="always"
       id="linearGradient847"><stop
         style="stop-color:#282828;stop-opacity:1"
         offset="0"
         id="stop843" /><stop
         style="stop-color:#191919;stop-opacity:1"
         offset="1"
         id="stop845" /></linearGradient><radialGradient
       inkscape:collect="always"
       xlink:href="#linearGradient847"
       id="radialGradient849"
       cx="26.375103"
       cy="97.113945"
       fx="26.375103"
       fy="97.113945"
       r="132.29167"
       gradientTransform="matrix(0,1.1515333,-2.0099162,0,221.56598,-12.967733)"
       gradientUnits="userSpaceOnUse" /></defs><sodipodi:namedview
     id="base"
     pagecolor="#757575"
     bordercolor="#666666"
     borderopacity="1.0"
     inkscape:pageopacity="1"
     inkscape:pageshadow="2"
     inkscape:zoom="1"
     inkscape:cx="290.5"
     inkscape:cy="356"
     inkscape:document-units="mm"
     inkscape:current-layer="layer1"
     inkscape:document-rotation="0"
     showgrid="false"
     units="px"
     inkscape:showpageshadow="false"
     inkscape:pagecheckerboard="false"
     inkscape:lockguides="true"
     inkscape:window-width="1920"
     inkscape:window-height="1017"
     inkscape:window-x="-8"
     inkscape:window-y="-8"
     inkscape:window-maximized="1"
     showguides="true"
     inkscape:guide-bbox="true"
     inkscape:deskcolor="#757575"><sodipodi:guide
       position="0,148.69584"
       orientation="0,1000"
       inkscape:locked="true"
       id="guide1270" /><sodipodi:guide
       position="264.58334,148.69584"
       orientation="562,0"
       inkscape:locked="true"
       id="guide1272" /><sodipodi:guide
       position="264.58334,0"
       orientation="0,-1000"
       inkscape:locked="true"
       id="guide1274" /><sodipodi:guide
       position="0,0"
       orientation="-562,0"
       inkscape:locked="true"
       id="guide1276" /><sodipodi:guide
       position="21.201605,127.26459"
       orientation="0,1"
       id="guide2557"
       inkscape:label=""
       inkscape:locked="true"
       inkscape:color="rgb(0,0,255)" /><sodipodi:guide
       position="-33.82728,21.43125"
       orientation="0,1"
       id="guide2559"
       inkscape:label=""
       inkscape:locked="true"
       inkscape:color="rgb(0,0,255)" /><sodipodi:guide
       position="39.687501,148.69584"
       orientation="-1,0"
       id="guide2561"
       inkscape:label=""
       inkscape:locked="true"
       inkscape:color="rgb(0,0,255)" /><sodipodi:guide
       position="224.89584,148.69584"
       orientation="-1,0"
       id="guide2563"
       inkscape:label=""
       inkscape:locked="true"
       inkscape:color="rgb(0,0,255)" /></sodipodi:namedview><metadata
     id="metadata5"><rdf:RDF><cc:Work
         rdf:about=""><dc:format>image/svg+xml</dc:format><dc:type
           rdf:resource="http://purl.org/dc/dcmitype/StillImage" /></cc:Work></rdf:RDF></metadata><g
     inkscape:label="Layer 1"
     inkscape:groupmode="layer"
     id="layer1"><rect
       style="opacity:0.98;fill:url(#radialGradient849);fill-opacity:1;stroke-width:1.61952"
       id="background"
       width="264.58334"
       height="148.69583"
       x="-5.0862632e-06"
       y="-4.7961635e-14" /><g
       id="logo"
       transform="matrix(0.74999998,0,0,0.79999997,33.07292,-84.402071)"><path
         id="path14"
         style="fill:#d91e25;fill-opacity:1;fill-rule:nonzero;stroke:none;stroke-width:0.0189313"
         d="m 225.07084,157.32963 c -6.75919,-6.05519 -15.87249,-9.3517 -25.15958,-9.66349 -9.26658,-0.32169 -18.63285,2.23151 -26.20405,7.25967 -6.62898,4.40182 -11.77042,10.58367 -15.30254,17.3926 -4.34411,-3.59564 -8.8374,-7.07711 -14.26547,-9.13411 -5.04174,-1.92156 -11.15063,-2.8069 -16.28523,-0.63862 -2.3232,0.97864 -4.32397,2.57356 -5.60562,4.64523 -1.29591,2.10963 -1.82344,4.62507 -1.5407,7.04649 0.27782,2.34076 1.37198,4.44012 3.16628,6.08874 1.89147,1.7267 4.2964,2.85731 6.72263,3.78299 2.7854,1.06754 5.67992,1.83045 8.55214,2.64724 2.74004,0.78379 5.46679,1.58995 8.14406,2.54313 5.17723,1.84641 10.26803,4.26288 14.28719,7.90141 8.05081,7.32328 10.65067,18.42442 9.30079,28.6105 -0.37502,2.86977 -1.10627,5.7005 -2.20453,8.40592 -0.26492,0.63675 -0.53278,1.27044 -0.83233,1.88892 -0.0843,0.16444 -0.20901,0.48191 -0.20901,0.48191 0,0 0.6515,0.66976 0.94086,0.93025 0.90801,0.85056 1.86645,1.6613 2.8595,2.43412 3.66293,2.84326 7.84456,5.08262 12.3007,6.65665 8.85088,3.11456 18.83638,3.59143 27.83215,0.71781 5.04253,-1.6152 9.77807,-4.28268 13.50276,-7.88606 v 8.37554 H 255.7639 V 149.0048 h -30.69306 z m -20.46138,65.76818 c -4.79538,0 -9.34459,-1.79215 -12.90972,-4.73598 -3.83557,-3.15443 -6.4581,-7.45233 -7.87407,-12.02753 -2.87164,-9.32328 -0.5377,-20.29023 6.97016,-27.20493 3.52448,-3.24336 8.15738,-5.26957 13.1209,-5.40667 4.96683,-0.14663 9.86466,1.58757 13.64607,4.59243 6.56562,5.22832 9.56883,13.7361 9.15237,21.65511 -0.4282,7.95438 -4.4403,16.06312 -11.83493,20.36391 -3.0736,1.78538 -6.66143,2.76366 -10.27078,2.76366 m -93.69181,-15.99969 c -1.43747,-0.52974 -2.85871,-1.11099 -4.23539,-1.74761 -2.60533,-1.21968 -5.11467,-2.66191 -7.375873,-4.404 -4.134309,-3.21549 -7.162369,-7.42942 -8.964869,-12.16886 -1.844169,-4.84854 -2.497799,-10.13275 -2.169317,-15.26777 0.33863,-5.48989 1.912388,-10.89859 4.81511,-15.69359 2.275291,-3.76281 5.292581,-7.10459 8.818429,-9.88895 -6.511472,0 -30.92083,0.0104 -30.92083,0.0104 0,0 -0.05012,30.57293 -0.05012,42.75463 v 9.12311 c 0,2.82744 -0.06358,5.66513 -0.428574,8.47276 -0.662432,4.98764 -2.385965,10.7963 -7.40462,13.42834 -2.428773,1.27284 -5.261694,1.65301 -8.012688,1.55934 -2.761356,-0.0859 -5.553021,-0.74732 -7.770632,-2.35047 -4.396508,-3.16654 -5.781584,-8.85423 -6.270586,-13.76616 -0.283051,-2.72103 -0.283051,-5.45443 -0.283051,-8.18031 v -9.14658 -41.89511 l -31.8228349,-0.0145 c 0,0 0.021787,40.68569 -0.020503,52.8672 -0.018432,5.92376 0.071802,11.88932 1.3879779,17.70677 1.143879,5.13703 3.184719,10.14999 6.347736,14.49396 3.057947,4.21688 7.159941,7.6502 11.884847,10.15005 5.07399,2.69589 10.760748,4.25039 16.515551,5.03894 5.781195,0.79622 11.7278,0.89739 17.546731,0.43133 5.563575,-0.45152 11.102916,-1.50637 16.259225,-3.51489 4.902714,-1.91429 9.360223,-4.69617 12.95489,-8.36221 3.423394,-3.49971 6.009563,-7.67038 7.727815,-12.12315 0.137515,-0.36036 0.274512,-0.731 0.401403,-1.09082 3.784913,3.49648 7.942103,6.74258 12.698563,9.01422 4.67534,2.24752 10.16148,3.58061 15.41908,2.71107 2.60044,-0.43133 5.0949,-1.47352 7.00594,-3.1949 1.82736,-1.62853 3.03351,-3.79882 3.4713,-6.12106 0.41157,-2.19121 0.19032,-4.51345 -0.84857,-6.53455 -0.9606,-1.85665 -2.54707,-3.36248 -4.36502,-4.5116 -2.61863,-1.67648 -5.72646,-2.70022 -8.74238,-3.62114 -3.35653,-1.02684 -8.38752,-2.40582 -9.59094,-2.79919 -1.22026,-0.38788 -3.31605,-1.11302 -3.9779,-1.36378" /></g><path
       id="border"
       style="display:inline;opacity:0.98;fill:#d91e25;fill-opacity:1;stroke-width:85.9894"
       d="M 40,25 A 15,16 0 0 0 25,41 v 480 a 15,16 0 0 0 15,16 h 920 a 15,16 0 0 0 15,-16 V 41 A 15,16 0 0 0 960,25 Z m 12.5,12.5 h 895 a 15,16 0 0 1 15,16 v 455 a 15,16 0 0 1 -15,16 h -895 a 15,16 0 0 1 -15,-16 v -455 a 15,16 0 0 1 15,-16 z"
       transform="scale(0.26458333)" /></g></svg>
