<?xml version="1.0" encoding="UTF-8" standalone="no"?>
<svg
   width="1000"
   height="1500"
   viewBox="0 0 264.58333 396.87501"
   version="1.1"
   id="svg8"
   inkscape:version="1.1.2 (0a00cf5339, 2022-02-04, custom)"
   sodipodi:docname="primary.svg"
   xmlns:inkscape="http://www.inkscape.org/namespaces/inkscape"
   xmlns:sodipodi="http://sodipodi.sourceforge.net/DTD/sodipodi-0.dtd"
   xmlns:xlink="http://www.w3.org/1999/xlink"
   xmlns="http://www.w3.org/2000/svg"
   xmlns:svg="http://www.w3.org/2000/svg"
   xmlns:rdf="http://www.w3.org/1999/02/22-rdf-syntax-ns#"
   xmlns:cc="http://creativecommons.org/ns#"
   xmlns:dc="http://purl.org/dc/elements/1.1/">
  <defs
     id="defs2">
    <inkscape:path-effect
       effect="fillet_chamfer"
       id="path-effect3429"
       is_visible="true"
       lpeversion="1"
       satellites_param="F,0,0,1,0,6.6145833,0,1 @ F,0,0,1,0,6.6145833,0,1 @ F,0,0,1,0,6.6145833,0,1 @ F,0,0,1,0,6.6145833,0,1"
       unit="px"
       method="auto"
       mode="F"
       radius="25"
       chamfer_steps="1"
       flexible="false"
       use_knot_distance="true"
       apply_no_radius="true"
       apply_with_radius="true"
       only_selected="false"
       hide_knots="false" />
    <inkscape:path-effect
       effect="fillet_chamfer"
       id="path-effect3427"
       is_visible="true"
       lpeversion="1"
       satellites_param="F,1,0,1,0,0.03,0,1 @ F,1,0,1,0,0.03,0,1 @ F,1,0,1,0,0.03,0,1 @ F,1,0,1,0,0.03,0,1"
       unit="px"
       method="auto"
       mode="F"
       radius="15"
       chamfer_steps="1"
       flexible="false"
       use_knot_distance="true"
       apply_no_radius="true"
       apply_with_radius="true"
       only_selected="false"
       hide_knots="false" />
    <inkscape:path-effect
       effect="fillet_chamfer"
       id="path-effect1210"
       is_visible="true"
       lpeversion="1"
       satellites_param="F,1,0,1,0,0.02,0,1 @ F,1,0,1,0,0.02,0,1 @ F,1,0,1,0,0.02,0,1 @ F,1,0,1,0,0.02,0,1"
       unit="px"
       method="auto"
       mode="F"
       radius="2"
       chamfer_steps="1"
       flexible="true"
       use_knot_distance="true"
       apply_no_radius="true"
       apply_with_radius="true"
       only_selected="false"
       hide_knots="false" />
    <inkscape:path-effect
       effect="fillet_chamfer"
       id="path-effect1191"
       is_visible="true"
       lpeversion="1"
       satellites_param="F,1,0,1,0,0.03,0,1 @ F,1,0,1,0,0.03,0,1 @ F,1,0,1,0,0.03,0,1 @ F,1,0,1,0,0.03,0,1"
       unit="px"
       method="auto"
       mode="F"
       radius="3"
       chamfer_steps="1"
       flexible="true"
       use_knot_distance="true"
       apply_no_radius="true"
       apply_with_radius="true"
       only_selected="false"
       hide_knots="false" />
    <linearGradient
       inkscape:collect="always"
       id="linearGradient847">
      <stop
         style="stop-color:#282828;stop-opacity:1"
         offset="0"
         id="stop843" />
      <stop
         style="stop-color:#191919;stop-opacity:1"
         offset="1"
         id="stop845" />
    </linearGradient>
    <radialGradient
       inkscape:collect="always"
       xlink:href="#linearGradient847"
       id="radialGradient849"
       cx="26.375103"
       cy="97.113945"
       fx="26.375103"
       fy="97.113945"
       r="132.29167"
       gradientTransform="matrix(0,3.0734875,-2.0099162,0,221.56598,-34.611386)"
       gradientUnits="userSpaceOnUse" />
  </defs>
  <sodipodi:namedview
     id="base"
     pagecolor="#757575"
     bordercolor="#666666"
     borderopacity="1.0"
     inkscape:pageopacity="1"
     inkscape:pageshadow="2"
     inkscape:zoom="0.50181065"
     inkscape:cx="589.86393"
     inkscape:cy="635.69795"
     inkscape:document-units="mm"
     inkscape:current-layer="layer1"
     inkscape:document-rotation="0"
     showgrid="false"
     units="px"
     inkscape:showpageshadow="false"
     inkscape:pagecheckerboard="false"
     inkscape:lockguides="true"
     inkscape:window-width="1920"
     inkscape:window-height="1017"
     inkscape:window-x="-8"
     inkscape:window-y="-8"
     inkscape:window-maximized="1"
     showguides="true"
     inkscape:guide-bbox="true">
    <sodipodi:guide
       position="0,396.875"
       orientation="0,1000"
       inkscape:locked="true"
       id="guide833" />
    <sodipodi:guide
       position="264.58333,396.875"
       orientation="1500,0"
       inkscape:locked="true"
       id="guide835" />
    <sodipodi:guide
       position="264.58333,0"
       orientation="0,-1000"
       inkscape:locked="true"
       id="guide837" />
    <sodipodi:guide
       position="0,0"
       orientation="-1500,0"
       inkscape:locked="true"
       id="guide839" />
    <sodipodi:guide
       position="275.56944,291.04167"
       orientation="0,1"
       id="guide1075"
       inkscape:label=""
       inkscape:locked="true"
       inkscape:color="rgb(0,0,255)" />
    <sodipodi:guide
       position="323.19316,105.83333"
       orientation="0,1"
       id="guide1077"
       inkscape:label=""
       inkscape:locked="true"
       inkscape:color="rgb(0,0,255)" />
    <sodipodi:guide
       position="39.6875,280.99221"
       orientation="-1,0"
       id="guide1079"
       inkscape:label=""
       inkscape:locked="true"
       inkscape:color="rgb(0,0,255)" />
    <sodipodi:guide
       position="224.89583,283.67412"
       orientation="-1,0"
       id="guide1081"
       inkscape:label=""
       inkscape:locked="true"
       inkscape:color="rgb(0,0,255)" />
  </sodipodi:namedview>
  <metadata
     id="metadata5">
    <rdf:RDF>
      <cc:Work
         rdf:about="">
        <dc:format>image/svg+xml</dc:format>
        <dc:type
           rdf:resource="http://purl.org/dc/dcmitype/StillImage" />
      </cc:Work>
    </rdf:RDF>
  </metadata>
  <g
     inkscape:label="Layer 1"
     inkscape:groupmode="layer"
     id="layer1">
    <rect
       style="opacity:0.98;fill:url(#radialGradient849);fill-opacity:1;stroke-width:2.64583"
       id="rect841"
       width="264.58334"
       height="396.875"
       x="-5.0862632e-06"
       y="-4.7961635e-14" />
    <g
       id="g1876">
      <g
         transform="matrix(1.2035112,0,0,1.1147948,-846.08313,-2277.3439)"
         id="g17552">
        <path
           id="path5626"
           style="fill:#ff9900;fill-opacity:1;fill-rule:nonzero;stroke:none"
           d="m 859.56493,2212.746 v -2.2462 c 0,-0.9713 -0.1225,-1.9688 -0.625,-2.8025 -0.57875,-0.9613 -1.60125,-1.5375 -2.6175,-1.5775 -1.0125,0.046 -1.8575,0.7775 -2.36875,1.7724 -0.55125,1.1088 -0.72,2.3851 -0.72,3.6626 0,2.2687 0.5125,5.6687 3.03,5.7675 1.03625,-0.045 1.9775,-0.7238 2.58,-1.6913 0.57625,-0.9137 0.72125,-1.8287 0.72125,-2.885 m 1.65,6.105 h -1.0375 c -0.22,0 -0.44375,-0.1925 -0.445,-0.405 v -1.72 c -0.7775,1.5424 -1.9425,2.4012 -3.75,2.4012 -1.795,0 -2.9475,-0.8862 -3.83375,-2.3837 -0.84,-1.4438 -1.1525,-3.2188 -1.1525,-4.94 0,-3.5225 1.41625,-7.405 5.1475,-7.405 1.6175,0 2.59,0.7212 3.42125,1.9312 v -6.1037 c 0,-0.2138 0.2225,-0.405 0.4425,-0.405 h 1.205 c 0.22125,0 0.445,0.1912 0.445,0.405 v 18.2225 c 0,0.2125 -0.22,0.4012 -0.4425,0.4037" />
        <path
           id="path5630"
           style="fill:#ff9900;fill-opacity:1;fill-rule:nonzero;stroke:none"
           d="m 874.71931,2219.1263 c -3.64625,0 -5.2775,-3.6975 -5.2775,-7.395 0,-3.8913 1.92,-7.26 5.59125,-7.26 h 0.0937 0.10125 c 3.57375,0 5.35,3.5888 5.35,7.2862 0,3.92 -1.9675,7.3688 -5.6625,7.3688 h -0.095 -0.10125 z m 0.27,-1.795 c 1.20125,-0.04 2.14625,-0.7775 2.70625,-2.0138 0.505,-1.1025 0.6,-2.3737 0.6,-3.5862 0,-1.325 -0.14375,-2.705 -0.7675,-3.8375 -0.55875,-0.9888 -1.5225,-1.6175 -2.5425,-1.6538 -1.13625,0.04 -2.14875,0.8063 -2.66125,1.9863 -0.45625,1.02 -0.6,2.3725 -0.6,3.505 0,1.27 0.1675,2.7312 0.695,3.8362 0.5125,1.045 1.5025,1.7275 2.57,1.7638" />
        <path
           id="path5634"
           style="fill:#ff9900;fill-opacity:1;fill-rule:nonzero;stroke:none"
           d="m 889.87868,2208.0527 c 0.0862,0.1963 0.30375,0.3438 0.51625,0.2925 l 1.1075,-0.2675 c 0.215,-0.052 0.40125,-0.2925 0.33625,-0.4987 -0.7225,-2.3088 -2.60875,-3.1563 -4.81125,-3.1488 -2.435,0.01 -4.665,1.2175 -4.665,4.1238 0,2.49 1.7,3.4875 3.56875,3.9025 l 1.9875,0.415 c 1.05375,0.22 2.37,0.6375 2.37,2.1312 0,1.7475 -1.55875,2.2938 -2.83375,2.3238 -1.3525,-0.031 -3.05875,-0.6725 -3.48625,-2.2775 -0.05,-0.2075 -0.29625,-0.3475 -0.51,-0.2988 l -1.1575,0.2613 c -0.2175,0.05 -0.3925,0.2862 -0.33875,0.4937 0.64625,2.5363 2.94625,3.6013 5.34625,3.6213 2.53125,0.02 5.1625,-1.1625 5.1625,-4.345 0,-1.2725 -0.50375,-2.4363 -1.46125,-3.1825 -0.74125,-0.5825 -1.65375,-0.7763 -2.5375,-0.97 l -1.7725,-0.36 c -1.0775,-0.1938 -2.17875,-0.525 -2.17875,-2.0475 0,-1.5013 1.3925,-2.0175 2.48125,-2.0475 1.24,0.032 2.33375,0.6025 2.87625,1.8787" />
        <path
           id="path5638"
           style="fill:#ff9900;fill-opacity:1;fill-rule:nonzero;stroke:none"
           d="m 864.57731,2200.9987 c 0,-0.675 0.58,-1.22 1.2925,-1.22 0.71375,0 1.2925,0.545 1.2925,1.22 0,0.6738 -0.57875,1.2188 -1.2925,1.2188 -0.7125,0 -1.2925,-0.545 -1.2925,-1.2188 m 1.905,17.7712 h -1.22125 c -0.22125,0 -0.445,-0.1924 -0.445,-0.4037 l 0.005,-13.2575 c 0,-0.2138 0.22375,-0.4062 0.44375,-0.4062 h 1.215 c 0.22125,0 0.445,0.1912 0.445,0.405 v 13.2588 c 0,0.2112 -0.21875,0.4 -0.4425,0.4024" />
        <path
           id="path5642"
           style="fill:#ff9900;fill-opacity:1;fill-rule:nonzero;stroke:none"
           d="m 848.64268,2218.8509 h -1.03875 c -0.22,0 -0.44375,-0.1925 -0.44375,-0.4062 v -1.9626 c -0.72625,1.5301 -1.89625,2.6438 -3.7,2.6438 -1.40375,0 -2.46,-0.4975 -3.22875,-1.5838 -0.82,-1.1675 -0.96375,-2.7812 -0.96375,-4.2262 v -8.1863 c 0,-0.2162 0.22375,-0.4087 0.445,-0.4087 h 1.2075 c 0.2225,0 0.445,0.1925 0.445,0.4087 l 10e-4,8.1863 c 0,0.8062 0.0487,1.8625 0.41,2.585 0.345,0.7487 1.13375,1.335 1.8775,1.3337 0.775,0 1.77625,-0.565 2.39875,-1.4437 0.7475,-1.0575 0.93875,-2.225 0.93875,-3.56 v -7.1137 c 0.002,-0.2026 0.2225,-0.3975 0.44375,-0.3963 h 1.205 c 0.22375,0 0.44875,0.2025 0.4475,0.4087 l 0.003,13.3125 c 0,0.2151 -0.22625,0.4088 -0.4475,0.4088" />
        <path
           id="path5646"
           style="fill:#ff9900;fill-opacity:1;fill-rule:nonzero;stroke:none"
           d="m 827.77793,2208.0522 c 0.085,0.1963 0.3025,0.3438 0.5175,0.2925 l 1.10625,-0.2675 c 0.215,-0.051 0.40125,-0.2937 0.33625,-0.4975 -0.72375,-2.3087 -2.61,-3.1575 -4.81125,-3.15 -2.435,0.01 -4.665,1.2175 -4.665,4.1237 0,2.4888 1.70125,3.4876 3.56875,3.9013 l 1.98625,0.4163 c 1.055,0.22 2.37125,0.6375 2.37125,2.1312 0,1.7488 -1.56,2.2938 -2.83375,2.3238 -1.3525,-0.031 -3.06,-0.6713 -3.4875,-2.2775 -0.0487,-0.2075 -0.295,-0.3475 -0.51,-0.2988 l -1.15625,0.2612 c -0.2175,0.05 -0.3925,0.2863 -0.34,0.4938 0.64625,2.5363 2.94625,3.6025 5.3475,3.6213 2.5325,0.02 5.16125,-1.1613 5.16125,-4.345 0,-1.2725 -0.5025,-2.4363 -1.46125,-3.1838 -0.74125,-0.5812 -1.65125,-0.775 -2.5375,-0.9687 l -1.77125,-0.36 c -1.07875,-0.1938 -2.18,-0.525 -2.18,-2.0475 0,-1.5013 1.39375,-2.0163 2.4825,-2.0475 1.24,0.033 2.33375,0.6025 2.87625,1.8787" />
        <path
           id="path5650"
           style="fill:#ff9900;fill-opacity:1;fill-rule:nonzero;stroke:none"
           d="m 830.98343,2206.3945 h 1.725 v 8.1375 c 0,2.7963 0.79125,4.5937 3.48,4.5925 h 0.18625 l 1.38375,-0.125 c 0.2125,-0.026 0.40875,-0.2112 0.40875,-0.43 l 0.004,-0.8674 c 0,-0.2213 -0.1875,-0.46 -0.40375,-0.44 l -1.21,0.1162 c -1.38875,-0.065 -1.7625,-0.92 -1.7625,-2.4875 v -8.4975 h 2.29625 c 0.21375,0 0.4075,-0.2112 0.4075,-0.43 l 10e-4,-0.86 c 0,-0.2212 -0.195,-0.4287 -0.40875,-0.4299 h -2.29625 v -3.2788 c -10e-4,-0.2137 -0.21875,-0.4338 -0.43375,-0.405 l -1.205,0.1438 c -0.2325,0.025 -0.44625,0.1912 -0.4475,0.4062 v 3.1338 h -1.7475 c -0.215,0 -0.3975,0.215 -0.3975,0.4337 l -0.01,0.8463 c 0,0.22 0.215,0.4388 0.43,0.44" />
        <path
           id="path5654"
           style="fill:#ff9900;fill-opacity:1;fill-rule:nonzero;stroke:none"
           d="m 786.11231,2223.8304 c -4.8125,3.5475 -11.795,5.4363 -17.80375,5.4363 -8.42625,0 -16.0075,-3.1063 -21.74875,-8.2888 -0.4525,-0.405 -0.05,-0.9612 0.4925,-0.6438 6.19375,3.5963 13.8475,5.7651 21.75875,5.7651 5.33875,0 11.2075,-1.1075 16.6025,-3.3926 0.81625,-0.3437 1.49875,0.5401 0.69875,1.1238" />
        <path
           id="path5658"
           style="fill:#ff9900;fill-opacity:1;fill-rule:nonzero;stroke:none"
           d="m 788.12081,2221.5457 c -0.62125,-0.785 -4.07375,-0.3725 -5.62375,-0.1837 -0.475,0.056 -0.54875,-0.355 -0.1225,-0.6513 2.75875,-1.9337 7.27375,-1.3787 7.8,-0.7275 0.52625,0.65 -0.14,5.17 -2.725,7.3325 -0.3975,0.3288 -0.7725,0.15 -0.59875,-0.2825 0.5825,-1.4512 1.885,-4.6987 1.27,-5.4875" />
        <path
           id="path5662"
           style="fill:#ffffff;fill-opacity:1;fill-rule:nonzero;stroke:none"
           d="m 782.60468,2207.0518 v -1.8787 c 0,-0.2838 0.2175,-0.4788 0.475,-0.4788 h 8.4325 c 0.26875,0 0.48625,0.2 0.48625,0.4788 v 1.605 c 0,0.2737 -0.23,0.625 -0.63875,1.1862 l -4.36375,6.2263 c 1.6225,-0.039 3.335,0.205 4.8075,1.0337 0.335,0.1838 0.425,0.4613 0.44625,0.7338 v 2.0012 c 0,0.2775 -0.30125,0.5963 -0.62,0.4275 -2.59125,-1.355 -6.0375,-1.5062 -8.9075,0.019 -0.29125,0.155 -0.59875,-0.1563 -0.59875,-0.4338 v -1.9087 c 0,-0.305 0.005,-0.8225 0.3125,-1.2888 l 5.05875,-7.25 h -4.40375 c -0.26875,0 -0.48625,-0.1887 -0.48625,-0.4725" />
        <path
           id="path5666"
           style="fill:#ffffff;fill-opacity:1;fill-rule:nonzero;stroke:none"
           d="m 751.85331,2218.782 h -2.5675 c -0.24125,-0.011 -0.4375,-0.195 -0.46,-0.4275 l 0.006,-13.1475 c 0,-0.2625 0.21625,-0.4737 0.49125,-0.4737 h 2.38875 c 0.2525,0.011 0.45375,0.2012 0.46625,0.44 v 1.7175 h 0.05 c 0.62,-1.6625 1.79625,-2.435 3.37375,-2.435 1.605,0 2.6125,0.7725 3.32875,2.435 0.62125,-1.6625 2.03625,-2.435 3.5425,-2.435 1.07875,0 2.25375,0.4387 2.97125,1.44 0.81,1.1062 0.6475,2.7075 0.6475,4.1187 l -0.005,8.295 c 0,0.2675 -0.2175,0.4725 -0.4925,0.4725 h -2.5625 c -0.2575,-0.016 -0.45875,-0.2162 -0.45875,-0.4725 v -6.9662 c 0,-0.5563 0.045,-1.9338 -0.0738,-2.4625 -0.195,-0.8838 -0.765,-1.1338 -1.51,-1.1338 -0.62125,0 -1.27,0.4163 -1.5325,1.0788 -0.26375,0.6625 -0.235,1.7675 -0.235,2.5175 v 6.9662 c 0,0.2675 -0.22375,0.4725 -0.49875,0.4725 h -2.5625 c -0.2575,-0.016 -0.45875,-0.2162 -0.45875,-0.4725 l -0.005,-6.9662 c 0,-1.4675 0.24,-3.625 -1.5775,-3.625 -1.84125,0 -1.77375,2.1025 -1.77375,3.625 v 6.9662 c 0,0.2675 -0.21875,0.4725 -0.4925,0.4725" />
        <path
           id="path5670"
           style="fill:#ffffff;fill-opacity:1;fill-rule:nonzero;stroke:none"
           d="m 799.27856,2207.135 c -1.8925,0 -2.00875,2.5738 -2.00875,4.18 0,1.6025 -0.0225,5.0375 1.985,5.0375 1.98625,0 2.08125,-2.7687 2.08125,-4.4587 0,-1.1063 -0.045,-2.435 -0.38,-3.4863 -0.29125,-0.9112 -0.86125,-1.2725 -1.6775,-1.2725 m -0.0237,-2.6787 c 3.805,0 5.86375,3.2625 5.86375,7.41 0,4.0137 -2.27125,7.1937 -5.86375,7.1937 -3.73125,0 -5.76875,-3.2625 -5.76875,-7.3275 0,-4.0975 2.05875,-7.2762 5.76875,-7.2762" />
        <path
           id="path5674"
           style="fill:#ffffff;fill-opacity:1;fill-rule:nonzero;stroke:none"
           d="m 810.05968,2218.782 h -2.5575 c -0.2575,-0.016 -0.46,-0.2162 -0.46,-0.4725 l -0.004,-13.1475 c 0.0213,-0.24 0.23375,-0.4287 0.4925,-0.4287 h 2.3775 c 0.22375,0.011 0.40875,0.1612 0.45875,0.3675 v 2.0125 h 0.0438 c 0.7225,-1.8013 1.72375,-2.6575 3.4975,-2.6575 1.1475,0 2.2775,0.4112 2.99375,1.545 0.67125,1.0562 0.67125,2.825 0.67125,4.0975 v 8.2725 c -0.0275,0.235 -0.24125,0.4112 -0.4925,0.4112 h -2.57375 c -0.235,-0.011 -0.425,-0.1887 -0.45375,-0.4112 v -7.1388 c 0,-1.4387 0.16875,-3.54 -1.605,-3.54 -0.62125,0 -1.1975,0.4163 -1.4825,1.05 -0.35875,0.8 -0.40875,1.6063 -0.40875,2.49 v 7.0775 c -0.005,0.2675 -0.22375,0.4725 -0.4975,0.4725" />
        <path
           id="path5678"
           style="fill:#ffffff;fill-opacity:1;fill-rule:nonzero;stroke:none"
           d="m 746.82843,2216.3749 c -0.47,-0.645 -0.96875,-1.1738 -0.96875,-2.3738 v -3.9925 c 0,-1.69 0.1175,-3.2399 -1.13,-4.4074 -0.97875,-0.9413 -2.6125,-1.2738 -3.86,-1.2738 -2.44,0 -5.165,0.9112 -5.73625,3.92 -0.06,0.3212 0.17375,0.4887 0.38125,0.5388 l 2.49,0.2674 c 0.23,-0.012 0.3975,-0.2387 0.4425,-0.4737 0.2125,-1.0338 1.08375,-1.5338 2.065,-1.5338 0.525,0 1.12375,0.195 1.4375,0.6625 0.3575,0.5275 0.31375,1.25 0.31375,1.8563 v 0.3325 c -1.48875,0.1662 -3.43,0.28 -4.82375,0.89 -1.605,0.695 -2.73625,2.1075 -2.73625,4.1863 0,2.6637 1.67875,3.9924 3.83875,3.9924 1.82375,0 2.82,-0.4287 4.23,-1.8624 0.46375,0.6724 0.615,1 1.47125,1.7062 0.19,0.105 0.43625,0.095 0.605,-0.061 h 0.005 c 0.50875,-0.4487 1.4425,-1.2612 1.96875,-1.7 0.2075,-0.1675 0.1675,-0.445 0.006,-0.6787 m -4.565,-3.87 c 0,1.0012 0.0213,1.8287 -0.48125,2.72 -0.40875,0.7225 -1.0575,1.1612 -1.775,1.1612 -0.98375,0 -1.56,-0.7449 -1.56,-1.8562 0,-2.1787 1.9575,-2.58 3.81625,-2.58 z" />
        <path
           id="path5682"
           style="fill:#ffffff;fill-opacity:1;fill-rule:nonzero;stroke:none"
           d="m 780.44981,2216.3749 c -0.47,-0.645 -0.9675,-1.1738 -0.9675,-2.3738 v -3.9925 c 0,-1.69 0.1225,-3.2399 -1.125,-4.4074 -0.985,-0.9413 -2.61875,-1.2738 -3.86625,-1.2738 -2.44,0 -5.16375,0.9112 -5.735,3.92 -0.0613,0.3212 0.1725,0.4887 0.38625,0.5388 l 2.485,0.2674 c 0.22875,-0.012 0.4025,-0.2387 0.44125,-0.4737 0.21875,-1.0338 1.085,-1.5338 2.065,-1.5338 0.525,0 1.1225,0.195 1.4375,0.6625 0.36375,0.5275 0.3125,1.25 0.3125,1.8563 v 0.3325 c -1.4875,0.1662 -3.43,0.28 -4.8225,0.89 -1.605,0.695 -2.73625,2.1075 -2.73625,4.1863 0,2.6637 1.67875,3.9924 3.83875,3.9924 1.825,0 2.82125,-0.4287 4.22875,-1.8624 0.46625,0.6724 0.62125,1 1.4725,1.7062 0.19,0.105 0.4375,0.095 0.605,-0.061 h 0.005 c 0.515,-0.4487 1.44375,-1.2612 1.97,-1.7 0.20625,-0.1675 0.1675,-0.445 0.005,-0.6787 m -4.56625,-3.87 c 0,1.0012 0.0225,1.8287 -0.48125,2.72 -0.4075,0.7225 -1.05125,1.1612 -1.7725,1.1612 -0.985,0 -1.56125,-0.7449 -1.56125,-1.8562 0,-2.1787 1.95875,-2.58 3.815,-2.58 z" />
      </g>
    </g>
    <path
       id="rect3410"
       style="opacity:0.98;fill:#ff9900;fill-opacity:1;stroke-width:46.3438"
       d="M 49.832031 25 A 25 25 0 0 0 25 50 L 25 1450 A 25 25 0 0 0 50 1475 L 950 1475 A 25 25 0 0 0 975 1450 L 975 50 A 25 25 0 0 0 950 25 L 50 25 A 25 25 0 0 0 49.832031 25 z M 73.542969 50 A 23.68421 24.137931 0 0 1 73.683594 50 L 926.31641 50 A 23.68421 24.137931 0 0 1 950 74.138672 L 950 1425.8613 A 23.68421 24.137931 0 0 1 926.31641 1450 L 73.683594 1450 A 23.68421 24.137931 0 0 1 50 1425.8613 L 50 74.138672 A 23.68421 24.137931 0 0 1 73.542969 50 z "
       transform="scale(0.26458333)" />
  </g>
</svg>
