<svg width="1000" height="562" viewBox="0 0 264.583 148.696" xmlns="http://www.w3.org/2000/svg">
    <path style="opacity:.98;fill:#fff;fill-opacity:1;stroke-width:1.61952" d="M0 0h264.583v148.696H0z"/>
    <path style="fill:#f90;fill-opacity:1;fill-rule:nonzero;stroke:none" d="M859.565 2212.746v-2.246c0-.971-.123-1.969-.625-2.803-.579-.961-1.601-1.537-2.618-1.577-1.012.046-1.857.777-2.368 1.772-.552 1.109-.72 2.385-.72 3.663 0 2.269.512 5.669 3.03 5.767 1.036-.045 1.977-.723 2.58-1.691.576-.914.72-1.829.72-2.885m1.65 6.105h-1.037c-.22 0-.443-.193-.445-.405v-1.72c-.777 1.542-1.942 2.401-3.75 2.401-1.795 0-2.947-.886-3.833-2.384-.84-1.443-1.153-3.218-1.153-4.94 0-3.522 1.416-7.404 5.148-7.404 1.617 0 2.59.72 3.42 1.93v-6.103c0-.214.223-.405.443-.405h1.205c.222 0 .445.191.445.405v18.222c0 .213-.22.402-.442.404m13.505.274c-3.647 0-5.278-3.697-5.278-7.395 0-3.891 1.92-7.26 5.591-7.26h.195c3.574 0 5.35 3.59 5.35 7.286 0 3.92-1.967 7.37-5.662 7.37h-.197zm.27-1.795c1.2-.04 2.146-.777 2.706-2.014.505-1.102.6-2.373.6-3.586 0-1.325-.144-2.705-.768-3.837-.559-.989-1.522-1.618-2.542-1.654-1.137.04-2.15.806-2.662 1.986-.456 1.02-.6 2.373-.6 3.505 0 1.27.168 2.731.695 3.836.513 1.045 1.503 1.728 2.57 1.764m14.89-9.278c.086.196.303.344.516.292l1.107-.267c.215-.052.402-.293.337-.499-.723-2.309-2.61-3.156-4.812-3.149-2.435.01-4.665 1.218-4.665 4.124 0 2.49 1.7 3.487 3.57 3.902l1.987.416c1.053.22 2.37.637 2.37 2.13 0 1.748-1.56 2.295-2.834 2.325-1.353-.032-3.059-.673-3.486-2.278-.05-.207-.297-.347-.51-.299l-1.158.261c-.217.05-.392.287-.339.494.647 2.536 2.947 3.601 5.347 3.621 2.53.02 5.162-1.162 5.162-4.345 0-1.272-.504-2.436-1.461-3.182-.741-.583-1.654-.776-2.538-.97l-1.772-.36c-1.078-.194-2.179-.525-2.179-2.047 0-1.502 1.393-2.018 2.481-2.048 1.24.032 2.334.603 2.877 1.879m-25.302-7.054c0-.675.58-1.22 1.293-1.22.714 0 1.292.545 1.292 1.22 0 .674-.578 1.219-1.292 1.219-.713 0-1.293-.545-1.293-1.22m1.905 17.772h-1.22c-.222 0-.446-.192-.446-.404l.005-13.257c0-.214.224-.406.444-.406h1.215c.221 0 .445.19.445.405v13.258c0 .212-.219.4-.443.403m-17.839.081h-1.04c-.22 0-.443-.192-.443-.405v-1.963c-.726 1.53-1.896 2.644-3.7 2.644-1.404 0-2.46-.498-3.229-1.584-.82-1.167-.963-2.781-.963-4.226v-8.186c0-.217.223-.41.445-.41h1.207c.223 0 .445.193.445.41l.001 8.186c0 .806.049 1.862.41 2.585.345.749 1.134 1.335 1.878 1.334.775 0 1.776-.565 2.398-1.444.748-1.058.94-2.225.94-3.56v-7.114c.001-.202.222-.397.443-.396h1.205c.224 0 .449.202.447.409l.003 13.312c0 .215-.226.409-.447.409m-20.865-10.799c.085.196.302.344.517.293l1.107-.268c.215-.05.4-.294.336-.497-.724-2.309-2.61-3.158-4.811-3.15-2.435.01-4.665 1.217-4.665 4.123 0 2.49 1.7 3.488 3.568 3.902l1.987.416c1.055.22 2.37.637 2.37 2.131 0 1.749-1.56 2.294-2.833 2.324-1.352-.031-3.06-.671-3.487-2.277-.049-.208-.295-.348-.51-.3l-1.157.262c-.217.05-.392.286-.34.494.647 2.536 2.947 3.602 5.348 3.621 2.532.02 5.161-1.161 5.161-4.345 0-1.272-.502-2.436-1.461-3.184-.741-.581-1.651-.775-2.538-.969l-1.77-.36c-1.08-.193-2.18-.524-2.18-2.047 0-1.501 1.393-2.016 2.482-2.047 1.24.032 2.333.602 2.876 1.878m3.205-1.658h1.725v8.138c0 2.796.792 4.594 3.48 4.592h.187l1.383-.124c.213-.027.41-.212.41-.43l.003-.868c0-.221-.187-.46-.404-.44l-1.21.116c-1.388-.065-1.762-.92-1.762-2.487v-8.498h2.296c.214 0 .408-.21.408-.43v-.86c0-.22-.194-.428-.408-.43h-2.296v-3.278c-.001-.214-.22-.434-.434-.405l-1.205.143c-.233.025-.446.192-.448.407v3.133h-1.747c-.215 0-.398.215-.398.434l-.01.846c0 .22.215.44.43.44m-44.871 17.437c-4.812 3.548-11.795 5.437-17.803 5.437-8.427 0-16.008-3.107-21.75-8.29-.452-.404-.05-.96.493-.643 6.194 3.596 13.848 5.765 21.76 5.765 5.338 0 11.207-1.107 16.602-3.392.816-.344 1.498.54.698 1.123" transform="matrix(1.17261 0 0 1.08617 -821.729 -2331.003)"/>
    <path style="fill:#f90;fill-opacity:1;fill-rule:nonzero;stroke:none" d="M788.12 2221.546c-.62-.785-4.073-.373-5.623-.184-.475.056-.549-.355-.122-.651 2.758-1.934 7.273-1.379 7.8-.728.526.65-.14 5.17-2.725 7.333-.398.329-.773.15-.6-.283.583-1.451 1.886-4.698 1.27-5.487" transform="matrix(1.17261 0 0 1.08617 -821.729 -2331.003)"/>
    <path style="fill-opacity:1;fill-rule:nonzero;stroke:none" d="M782.605 2207.052v-1.879c0-.284.217-.479.475-.479h8.432c.269 0 .486.2.486.48v1.604c0 .274-.23.625-.638 1.186l-4.364 6.227c1.622-.04 3.335.205 4.807 1.033.335.184.425.462.447.734v2.001c0 .278-.302.597-.62.428-2.592-1.355-6.038-1.506-8.908.019-.291.155-.599-.157-.599-.434v-1.909c0-.305.005-.822.313-1.289l5.059-7.25h-4.404c-.269 0-.486-.188-.486-.472m-30.752 11.73h-2.567a.48.48 0 0 1-.46-.427l.006-13.148a.48.48 0 0 1 .491-.474h2.389a.476.476 0 0 1 .466.44v1.718h.05c.62-1.663 1.796-2.435 3.374-2.435 1.605 0 2.612.772 3.329 2.435.62-1.663 2.036-2.435 3.542-2.435 1.079 0 2.254.439 2.971 1.44.81 1.106.648 2.707.648 4.119l-.005 8.295a.477.477 0 0 1-.493.472h-2.562a.477.477 0 0 1-.459-.472v-6.967c0-.556.045-1.933-.074-2.462-.195-.884-.765-1.134-1.51-1.134-.621 0-1.27.416-1.532 1.079-.264.662-.235 1.767-.235 2.517v6.967c0 .267-.224.472-.499.472h-2.562a.477.477 0 0 1-.46-.472l-.004-6.967c0-1.467.24-3.625-1.578-3.625-1.841 0-1.773 2.103-1.773 3.625v6.967a.478.478 0 0 1-.493.472m47.426-11.647c-1.893 0-2.01 2.574-2.01 4.18 0 1.603-.022 5.037 1.986 5.037 1.986 0 2.081-2.768 2.081-4.458 0-1.106-.045-2.435-.38-3.486-.291-.912-.861-1.273-1.677-1.273m-.024-2.679c3.805 0 5.864 3.263 5.864 7.41 0 4.014-2.272 7.194-5.864 7.194-3.731 0-5.769-3.263-5.769-7.328 0-4.097 2.059-7.276 5.769-7.276m10.805 14.326h-2.558a.478.478 0 0 1-.46-.472l-.004-13.148a.485.485 0 0 1 .493-.429h2.377a.49.49 0 0 1 .459.368v2.012h.044c.722-1.801 1.723-2.657 3.497-2.657 1.148 0 2.278.411 2.994 1.545.671 1.056.671 2.825.671 4.097v8.273c-.027.235-.241.411-.492.411h-2.574a.479.479 0 0 1-.454-.411v-7.139c0-1.439.169-3.54-1.605-3.54-.621 0-1.197.416-1.482 1.05-.359.8-.409 1.606-.409 2.49v7.077a.485.485 0 0 1-.498.473m-63.231-2.407c-.47-.645-.968-1.174-.968-2.374v-3.992c0-1.69.117-3.24-1.13-4.408-.98-.941-2.613-1.274-3.86-1.274-2.44 0-5.165.912-5.737 3.92-.06.322.174.49.382.54l2.49.267c.23-.012.397-.24.442-.474.213-1.034 1.084-1.534 2.065-1.534.525 0 1.124.195 1.438.663.357.527.313 1.25.313 1.856v.332c-1.488.167-3.43.28-4.823.89-1.605.695-2.737 2.108-2.737 4.187 0 2.663 1.68 3.992 3.84 3.992 1.823 0 2.82-.429 4.23-1.862.463.672.614 1 1.47 1.706a.52.52 0 0 0 .605-.061h.005c.51-.449 1.443-1.261 1.97-1.7.207-.168.167-.445.005-.679m-4.565-3.87c0 1.001.021 1.829-.481 2.72-.409.723-1.058 1.161-1.775 1.161-.984 0-1.56-.745-1.56-1.856 0-2.179 1.957-2.58 3.816-2.58zm38.187 3.875c-.47-.645-.968-1.174-.968-2.374v-3.992c0-1.69.123-3.24-1.125-4.408-.985-.941-2.618-1.274-3.866-1.274-2.44 0-5.164.912-5.735 3.92-.061.322.173.49.386.54l2.485.267c.23-.012.403-.24.442-.474.218-1.034 1.085-1.534 2.065-1.534.525 0 1.122.195 1.437.663.364.527.313 1.25.313 1.856v.332c-1.488.167-3.43.28-4.823.89-1.605.695-2.736 2.108-2.736 4.187 0 2.663 1.679 3.992 3.839 3.992 1.825 0 2.82-.429 4.228-1.862.467.672.622 1 1.473 1.706a.52.52 0 0 0 .605-.061h.005c.515-.449 1.444-1.261 1.97-1.7.206-.168.167-.445.005-.679m-4.566-3.87c0 1.001.022 1.829-.482 2.72-.407.723-1.05 1.161-1.772 1.161-.985 0-1.561-.745-1.561-1.856 0-2.179 1.958-2.58 3.815-2.58z" transform="matrix(1.17261 0 0 1.08617 -821.729 -2331.003)"/>
    <path style="opacity:.98;fill:#f90;fill-opacity:1;stroke-width:85.9894" d="M40 25a15 16 0 0 0-15 16v480a15 16 0 0 0 15 16h920a15 16 0 0 0 15-16V41a15 16 0 0 0-15-16H40zm12.5 12.5h895a15 16 0 0 1 15 16v455a15 16 0 0 1-15 16h-895a15 16 0 0 1-15-16v-455a15 16 0 0 1 15-16z" transform="scale(.26458)"/>
</svg>
