<?xml version="1.0" encoding="UTF-8" standalone="no"?>
<!-- Created with Inkscape (http://www.inkscape.org/) -->

<svg
   width="800"
   height="310"
   viewBox="0 0 211.66667 82.020831"
   version="1.1"
   id="svg1100"
   inkscape:version="1.1.2 (0a00cf5339, 2022-02-04, custom)"
   sodipodi:docname="logo.svg"
   xmlns:inkscape="http://www.inkscape.org/namespaces/inkscape"
   xmlns:sodipodi="http://sodipodi.sourceforge.net/DTD/sodipodi-0.dtd"
   xmlns="http://www.w3.org/2000/svg"
   xmlns:svg="http://www.w3.org/2000/svg">
  <sodipodi:namedview
     id="namedview1102"
     pagecolor="#ffffff"
     bordercolor="#666666"
     borderopacity="1.0"
     inkscape:pageshadow="2"
     inkscape:pageopacity="0.0"
     inkscape:pagecheckerboard="0"
     inkscape:document-units="px"
     showgrid="false"
     units="px"
     inkscape:zoom="0.52347032"
     inkscape:cx="772.72767"
     inkscape:cy="341.94871"
     inkscape:window-width="1920"
     inkscape:window-height="1017"
     inkscape:window-x="-8"
     inkscape:window-y="-8"
     inkscape:window-maximized="1"
     inkscape:current-layer="layer1" />
  <defs
     id="defs1097" />
  <g
     inkscape:label="Ebene 1"
     inkscape:groupmode="layer"
     id="layer1">
    <g
       id="g1497"
       transform="matrix(0.14283741,0,0,0.14283741,0,15.874999)">
      <g
         style="stroke-width:1.56209"
         id="g10"
         transform="matrix(0.85355559,0,0,-0.85355559,0,342.07777)">
        <g
           style="stroke-width:1.56209"
           id="g12"
           transform="scale(0.1)">
          <path
             d="M 7370.54,1402.63 V 3049.1 L 5717.86,2454.63 v -410.87 l 547.77,199.23 V 1007.36 l 1104.91,395.27"
             style="fill:#003480;fill-opacity:1;fill-rule:evenodd;stroke:none;stroke-width:1.56209"
             id="path14" />
          <path
             d="m 6740.32,4007.68 c -679.67,0 -1288.2,-340 -1650.52,-857.5 l 291.44,-203.62 c 297.8,424.26 792.32,708.26 1350.43,708.26 905.72,0 1625.5,-742.18 1625.5,-1650.97 0,-908.82 -719.78,-1651.018 -1625.5,-1651.018 -558.26,0 -1049.78,286.09 -1347.57,710.538 L 5087.35,856.262 C 5449.65,338.59 6040.11,0 6719.91,0 c 1111.74,0 2008.95,899.699 2008.95,2006.37 0,1106.72 -881.86,2001.31 -1988.54,2001.31"
             style="fill:#003480;fill-opacity:1;fill-rule:evenodd;stroke:none;stroke-width:1.56209"
             id="path16" />
          <path
             d="m 4176.72,1398.05 c -68.99,0 -162.14,3.54 -211.25,11.32 v 1203.59 c 52.94,3.11 130.95,4.95 211.25,4.95 365.1,0 542.58,-200.72 542.58,-613.57 0,-413.64 -172.42,-606.29 -542.58,-606.29 m 23.67,1532.75 c -195.8,0 -325.35,-3.36 -429.42,-6.08 -64.66,-1.66 -115.71,-3.01 -164.04,-3.01 h -9 v -1829.1 l 72.29,-1.75 c 144.29,-3.55 307.84,-7.54 471.9,-7.54 631.14,0 964.72,323.49 964.72,935.55 0,596.61 -313.44,911.93 -906.45,911.93"
             style="fill:#003480;fill-opacity:1;fill-rule:nonzero;stroke:none;stroke-width:1.56209"
             id="path18" />
          <path
             d="m 588.813,1774.85 178.742,561.69 c 23.996,74.97 48.082,161.81 66.422,239.08 17.152,-66.21 40.375,-147.01 69.281,-240.9 L 1082.5,1774.85 Z m 497.177,1140.77 -2.07,6.11 H 625.102 L 0,1088.77 h 370.516 l 119.894,376.8 h 691.11 l 120.63,-376.8 h 406.88 l -623.04,1826.85"
             style="fill:#003480;fill-opacity:1;fill-rule:nonzero;stroke:none;stroke-width:1.56209"
             id="path20" />
          <path
             d="m 2296.72,2616.99 c 28.09,0.84 122.62,3.36 260.68,3.36 202.2,0 300.47,-85.99 300.47,-262.87 0,-174.42 -104.77,-262.87 -311.38,-262.87 h -249.77 z m 663.49,-897.56 c -27.92,47.76 -60.97,96.25 -87.22,133.04 232.9,82.18 372.43,268.42 372.43,519.59 0,365.53 -229.09,558.76 -662.53,558.76 -191.78,0 -366.91,-3.78 -494.82,-6.53 -66.35,-1.45 -118.77,-2.56 -148.63,-2.56 h -9 V 1088.77 h 366.28 v 699.05 h 202.72 l 412.72,-699.05 h 440.57 l -392.52,630.66"
             style="fill:#003480;fill-opacity:1;fill-rule:nonzero;stroke:none;stroke-width:1.56209"
             id="path22" />
        </g>
      </g>
      <path
         d="m 1327.3464,90.909067 -19.9108,5.9351 v 37.436403 h -22.5075 v 16.4356 h 22.5075 v 66.6551 c 0,24.9362 6.8995,34.697 29.4331,34.697 7.0728,0 15.02,-0.8854 21.2096,-2.2825 v -17.8051 c -4.4152,1.1686 -10.0678,2.0543 -15.1496,2.0543 -12.3707,0 -15.5824,-5.0857 -15.5824,-24.1966 v -59.1222 h 30.732 v -16.4356 h -30.732 z m -491.92585,1.1413 c -16.35288,0 -33.09535,0.6849 -44.5829,0.913 V 250.24237 c 11.04611,0 22.62913,0.9127 37.65727,0.9127 48.83363,0 83.10593,-27.6481 83.10593,-81.4924 0,-54.0731 -28.4465,-77.612303 -76.1803,-77.612303 z m -1.9478,17.576903 c 38.6789,0 56.7023,21.3112 56.7023,61.4049 3e-4,42.6592 -24.3864,61.8615 -59.2994,61.8615 -5.96461,0 -14.17127,-0.4383 -19.69435,-1.3696 v -121.2119 c 5.52308,-0.2375 14.56073,-0.6849 22.29145,-0.6849 z m 150.8458,22.599 c -31.1562,0 -48.9114,25.758 -48.9114,60.4915 0,40.7877 18.1275,59.579 51.9412,59.579 13.70375,0 26.40325,-2.6481 37.00795,-7.3048 l -1.7312,-16.8921 c -8.8387,4.4376 -20.759,7.0766 -32.03025,7.0766 -23.4257,0 -35.5107,-13.2854 -34.6276,-44.2846 h 71.63575 c 0.4412,-3.9629 0.6491,-7.2498 0.6491,-10.0442 0,-26.5705 -12.9942,-48.6214 -43.93355,-48.6214 z m 119.46445,0 c -30.7145,0 -48.2619,20.2703 -48.2619,44.7411 0,14.6914 5.4018,26.5798 16.2318,33.0991 -7.7393,3.7346 -12.5524,11.2493 -12.5524,19.4031 0,7.6883 4.1898,13.6232 10.8208,16.892 -9.7214,5.36 -17.9629,16.3719 -17.9629,30.132 0,22.1423 17.807,34.0122 46.0978,34.0122 34.4715,0 58.4338,-19.129 58.4338,-43.5999 0,-20.9825 -13.3574,-33.099 -37.2245,-33.099 h -20.3435 c -13.2624,0 -18.8287,-2.6114 -18.8287,-9.131 0,-3.7345 2.2767,-7.4872 7.1419,-9.5874 3.7569,0.6941 9.2111,1.5979 13.8508,1.5979 31.3813,0 47.8292,-18.2068 47.8292,-43.1432 0,-9.7973 -3.5579,-17.9329 -9.3062,-22.599 h 18.6122 v -16.6636 h -37.4406 c -5.7483,-1.3968 -10.6914,-2.0543 -17.0976,-2.0543 z m 121.8454,0 c -31.1561,0 -49.1275,25.758 -49.1275,60.4915 0,40.7877 18.1273,59.579 51.9411,59.579 13.7038,0 26.6108,-2.6481 37.2243,-7.3048 l -1.7313,-16.8921 c -8.8387,4.4376 -20.7591,7.0766 -32.0303,7.0766 -23.4256,0 -35.7268,-13.2854 -34.8439,-44.2846 h 71.852 c 0.4498,-3.9629 0.6492,-7.2498 0.6492,-10.0442 0,-26.5705 -12.9939,-48.6214 -43.9336,-48.6214 z m 206.8987,0 c -33.1467,0 -53.4559,26.9175 -53.4559,60.9481 0,40.7876 19.2962,59.1224 49.1276,59.1224 32.4805,0 53.6726,-27.1278 53.6726,-62.0897 0,-41.7191 -21.2783,-57.9808 -49.3443,-57.9808 z m -449.07435,15.2939 c 15.4698,0 24.90585,11.5142 24.45545,28.534 h -51.07525 c 2.2074,-17.0198 12.2581,-28.534 26.6198,-28.534 z m 241.30985,0 c 15.4699,0 24.8971,11.5142 24.4556,28.534 h -51.2918 c 2.2076,-17.0198 12.4744,-28.534 26.8362,-28.534 z m -121.8451,0.2296 c 16.794,0 26.4033,10.1446 26.4033,27.1644 0,17.0108 -10.6913,26.4794 -27.2691,26.4794 -17.2357,0 -27.0527,-9.2314 -27.0527,-26.4794 0,-15.623 10.4576,-27.1644 27.9185,-27.1644 z m 327.8784,1.8261 c 20.3263,0 30.299,15.4312 30.299,41.7736 0,29.6026 -13.9463,43.1432 -30.299,43.1432 -20.1098,0 -30.9484,-15.4035 -30.9484,-43.3715 0,-28.6707 15.0371,-41.5453 30.9484,-41.5453 z m -344.9758,101.809 h 28.1347 c 15.47,0 22.9407,6.839 22.9407,18.0334 0,14.2167 -13.1669,24.425 -35.7095,24.425 -17.2356,0 -29.4331,-7.4781 -29.4331,-21.2291 0,-8.8568 5.4539,-16.5724 14.0672,-21.2293 z"
         id="path2870"
         style="fill:#003480;fill-opacity:1;fill-rule:evenodd;stroke:none;stroke-width:0.999999"
         sodipodi:nodetypes="ccccccssccsscccccsccsssscsccssssccsccsssscscsssssscssccccssssccsccssssssssccssccssssssssssscssssc" />
    </g>
  </g>
</svg>
