<svg width="1000" height="562" viewBox="0 0 264.583 148.696" xmlns="http://www.w3.org/2000/svg">
    <path style="opacity:.98;fill:#fff;fill-opacity:1;stroke-width:1.61952" d="M0 0h264.583v148.696H0z"/>
    <path style="opacity:.98;fill:#3dbac4;fill-opacity:1;stroke-width:85.9894" d="M40 25a15 16 0 0 0-15 16v480a15 16 0 0 0 15 16h920a15 16 0 0 0 15-16V41a15 16 0 0 0-15-16Zm12.5 12.5h895a15 16 0 0 1 15 16v455a15 16 0 0 1-15 16h-895a15 16 0 0 1-15-16v-455a15 16 0 0 1 15-16z" transform="scale(.26458)"/>
    <path style="fill:#1e2f5a;fill-opacity:1;stroke:none" d="M359 1488.586v-123.5l83-83.5h847l70 83.5v123.5z" transform="translate(29.638 -50.544) scale(.1195)"/>
    <path style="fill:#3dbac4;fill-opacity:1;stroke:none" d="M1359 977.586v387.5H359v-387.5l160-160h720z" transform="translate(29.638 -50.544) scale(.1195)"/>
    <path style="fill:#b51f30;fill-opacity:1;stroke:none" d="m1121 977.586-124.708-216 124.708-160h238v376z" transform="translate(29.638 -50.544) scale(.1195)"/>
    <path style="fill:#ec3e28;fill-opacity:1;stroke:none" d="M837 977.586 714 764.544l123-162.958h284v376z" transform="translate(29.638 -50.544) scale(.1195)"/>
    <path style="fill:#9e2c20;fill-opacity:1;stroke:none" d="m598 977.586-169-169 169-207h239v376z" transform="translate(29.638 -50.544) scale(.1195)"/>
    <path style="fill:#e8642d;fill-opacity:1;stroke:none" d="M359 977.586v-376h239v376z" transform="translate(29.638 -50.544) scale(.1195)"/>
    <path style="fill:#fff7e7;fill-opacity:1;stroke:none" d="M475 784.586h96v99c0 48.617-33.13 79-89.959 79-53.847 0-95.041-27.934-95.041-88v-164c0-53.424 40.21-84.115 93.836-84.115 56.165 0 90.664 32.715 90.664 76.115v35.6h-59v-29.6c0-16.923-14.063-27.137-30.733-27.137-20.559 0-28.767 14.02-28.767 29.137v167c0 17.823 11.444 29.049 28.881 29.049 17.318 0 27.119-8.974 27.119-27.05v-46h-33zm199.969-153.461-66.344 326.469h59.844l13.218-73H748l13 73h65.656L763.22 631.125Zm40.187 71.25 22.125 129.719h-45.156ZM862 957.586v-326h82.437l35.762 130.63 37.363-130.63H1096v326h-57v-231l-37.496 141H957l-38-141v231zm298.5 0v-326h157v54.5h-93v76.5h73.5v55h-73.5v84.5h93.5v55.5zm-677.836 329.196c9.953 0 23.565-6.042 23.565-29.457 0-50.499-108.33-85.908-108.33-170.927 0-45.09 29.055-83.689 86.87-83.689 58.112 0 80.04 42.36 81.149 92.72l-56.937 1.512c-2.498-26.544-10.22-42.402-27.829-42.402-14.452 0-23.177 11.346-23.177 26.743 0 42.703 111.703 87.774 111.703 171.663 0 53.627-38.127 86.665-87.712 86.665-53.852 0-85.87-34.901-88.912-94.184l60.27-1.938c1.965 23.563 8.516 43.294 29.34 43.294zM601 1334.586v-326h64.4v132H722v-132h64.7v326H722v-135.5h-56.6v135.5zm309.844-331.211c-61.982 0-94.844 38.284-94.844 84.219v167c0 52.222 33.96 85 93.781 85 60.234 0 94.219-38.111 94.219-84v-167c0-47.495-30.613-85.219-93.156-85.219zm-1.25 56.125c14.362 0 30.218 9.899 30.218 30.219v162.062c0 18.562-11.784 30.75-29.625 30.75-16.292 0-29.187-10.815-29.187-29.187v-165.75c0-17.199 12.151-28.094 28.594-28.094zM1029 1008.586h63.813l26.584 195.457 29.26-195.472h62.13l27.555 195.111L1265 1008.586h56.677l-52.677 327h-60l-32.329-210.864L1143 1335.586h-60.821z" transform="translate(29.638 -50.544) scale(.1195)"/>
    <path style="fill:#3dbac4;fill-opacity:1;stroke:none" d="M413 1386.586h23.67l26.13 32.67v-32.67h24.7v74.5H465l-27.2-34.5v34.5H413Zm136 0h63.4v20.488h-39v7.512h36.1v18h-36.1v8h39.2v20.5H549Zm120.6 21v-21H738v21h-22v53.5h-24.5v-53.5zm122.4-21h26.31l10.612 35.542 11.69-35.542h21.698l12.078 35.465 10.224-35.465h25.776l-24.388 75h-21.612l-13.086-37.38-12.992 37.38h-21.698zm210.563-1.711c-25.46 0-41.25 19.596-41.25 38.813 0 19.79 16.082 39 40.562 39 21.097 0 40.781-15.306 40.781-38.938 0-19.239-14.915-38.875-40.094-38.875zm-.313 22c9.553 0 15.188 8.534 15.188 16.875 0 10.245-7.465 16.875-15.47 16.875-9.287 0-15.374-8.358-15.374-16.938 0-8.33 5.997-16.812 15.656-16.812zm100.156-20.281v74.5H1127v-21.5h5.281l14.219 21.5h28.5l-17.719-25.344c7.22-2.946 14.906-9.743 14.906-23.156 0-17.493-13.472-26-30.187-26zm24.594 20.781h11c5.51 0 9.531 2.605 9.531 7.406 0 4.505-4.124 7.219-8.531 7.219h-12zm104 53.711v-74.5h25v28l21-28h29l-26 32.603 27 41.897h-30l-14.616-23.61-6.384 7.78v15.83z" transform="translate(29.638 -50.544) scale(.1195)"/>
</svg>
