<svg width="1000" height="1500" viewBox="0 0 264.583 396.875" xmlns="http://www.w3.org/2000/svg">
    <path style="opacity:.98;fill:#fff;fill-opacity:1;stroke-width:2.64583" d="M0 0h264.583v396.875H0z"/>
    <path style="opacity:.98;fill:#eb2d2e;fill-opacity:1;stroke-width:46.3438" d="M49.832 25A25 25 0 0 0 25 50v1400a25 25 0 0 0 25 25h900a25 25 0 0 0 25-25V50a25 25 0 0 0-25-25H50a25 25 0 0 0-.168 0zm23.711 25a23.684 24.138 0 0 1 .14 0h852.633A23.684 24.138 0 0 1 950 74.139V1425.86a23.684 24.138 0 0 1-23.684 24.14H73.684A23.684 24.138 0 0 1 50 1425.861V74.14A23.684 24.138 0 0 1 73.543 50z" transform="scale(.26458)"/>
    <path style="fill:#eb2d2e" d="m216.64 0-21.307 511.735H17.405L0 0h216.64" transform="translate(103.704 105.938) scale(.26392)"/>
    <path style="fill:#fff" d="M43.581 478.12h128.24v-66.05h-54.774V265.206H180.5v-65.983h-62.203v-94.65H185.5V33.628H34.853l8.728 444.492" transform="translate(103.704 105.938) scale(.26392)"/>
    <path style="fill:#eb2d2e" d="M18.69 547.831h176.772v153.131H18.69z" transform="translate(103.704 105.938) scale(.26392)"/>
</svg>
