<svg width="1000" height="562" viewBox="0 0 264.583 148.696" xmlns="http://www.w3.org/2000/svg">
    <path style="opacity:.98;fill:#fff;fill-opacity:1;stroke-width:1.61952" d="M0 0h264.583v148.696H0z"/>
    <path style="opacity:.98;fill:#eb2d2e;fill-opacity:1;stroke-width:85.9894" d="M40 25a15 16 0 0 0-15 16v480a15 16 0 0 0 15 16h920a15 16 0 0 0 15-16V41a15 16 0 0 0-15-16Zm12.5 12.5h895a15 16 0 0 1 15 16v455a15 16 0 0 1-15 16h-895a15 16 0 0 1-15-16v-455a15 16 0 0 1 15-16z" transform="scale(.26458)"/>
    <path style="fill:#eb2d2e" d="m216.64 0-21.307 511.735H17.405L0 0h216.64" transform="translate(115.911 21.348) scale(.15122)"/>
    <path style="fill:#fff" d="M43.581 478.12h128.24v-66.05h-54.774V265.206H180.5v-65.983h-62.203v-94.65H185.5V33.628H34.853l8.728 444.492" transform="translate(115.911 21.348) scale(.15122)"/>
    <path style="fill:#eb2d2e" d="M18.69 547.831h176.772v153.131H18.69z" transform="translate(115.911 21.348) scale(.15122)"/>
</svg>
