<?xml version="1.0" encoding="UTF-8" standalone="no"?>
<svg
   width="1000"
   height="1500"
   viewBox="0 0 264.58333 396.87501"
   version="1.1"
   id="svg8"
   inkscape:version="1.2 (dc2aedaf03, 2022-05-15)"
   sodipodi:docname="primary.svg"
   xml:space="preserve"
   xmlns:inkscape="http://www.inkscape.org/namespaces/inkscape"
   xmlns:sodipodi="http://sodipodi.sourceforge.net/DTD/sodipodi-0.dtd"
   xmlns:xlink="http://www.w3.org/1999/xlink"
   xmlns="http://www.w3.org/2000/svg"
   xmlns:svg="http://www.w3.org/2000/svg"
   xmlns:rdf="http://www.w3.org/1999/02/22-rdf-syntax-ns#"
   xmlns:cc="http://creativecommons.org/ns#"
   xmlns:dc="http://purl.org/dc/elements/1.1/"><defs
     id="defs2"><inkscape:path-effect
       effect="fillet_chamfer"
       id="path-effect3429"
       is_visible="true"
       lpeversion="1"
       satellites_param="F,0,0,1,0,6.6145833,0,1 @ F,0,0,1,0,6.6145833,0,1 @ F,0,0,1,0,6.6145833,0,1 @ F,0,0,1,0,6.6145833,0,1"
       unit="px"
       method="auto"
       mode="F"
       radius="25"
       chamfer_steps="1"
       flexible="false"
       use_knot_distance="true"
       apply_no_radius="true"
       apply_with_radius="true"
       only_selected="false"
       hide_knots="false"
       nodesatellites_param="F,0,0,1,0,6.6145833,0,1 @ F,0,0,1,0,6.6145833,0,1 @ F,0,0,1,0,6.6145833,0,1 @ F,0,0,1,0,6.6145833,0,1" /><inkscape:path-effect
       effect="fillet_chamfer"
       id="path-effect3427"
       is_visible="true"
       lpeversion="1"
       satellites_param="F,1,0,1,0,0.03,0,1 @ F,1,0,1,0,0.03,0,1 @ F,1,0,1,0,0.03,0,1 @ F,1,0,1,0,0.03,0,1"
       unit="px"
       method="auto"
       mode="F"
       radius="15"
       chamfer_steps="1"
       flexible="false"
       use_knot_distance="true"
       apply_no_radius="true"
       apply_with_radius="true"
       only_selected="false"
       hide_knots="false"
       nodesatellites_param="F,1,0,1,0,0.03,0,1 @ F,1,0,1,0,0.03,0,1 @ F,1,0,1,0,0.03,0,1 @ F,1,0,1,0,0.03,0,1" /><inkscape:path-effect
       effect="fillet_chamfer"
       id="path-effect1210"
       is_visible="true"
       lpeversion="1"
       satellites_param="F,1,0,1,0,0.02,0,1 @ F,1,0,1,0,0.02,0,1 @ F,1,0,1,0,0.02,0,1 @ F,1,0,1,0,0.02,0,1"
       unit="px"
       method="auto"
       mode="F"
       radius="2"
       chamfer_steps="1"
       flexible="true"
       use_knot_distance="true"
       apply_no_radius="true"
       apply_with_radius="true"
       only_selected="false"
       hide_knots="false"
       nodesatellites_param="F,1,0,1,0,0.02,0,1 @ F,1,0,1,0,0.02,0,1 @ F,1,0,1,0,0.02,0,1 @ F,1,0,1,0,0.02,0,1" /><inkscape:path-effect
       effect="fillet_chamfer"
       id="path-effect1191"
       is_visible="true"
       lpeversion="1"
       satellites_param="F,1,0,1,0,0.03,0,1 @ F,1,0,1,0,0.03,0,1 @ F,1,0,1,0,0.03,0,1 @ F,1,0,1,0,0.03,0,1"
       unit="px"
       method="auto"
       mode="F"
       radius="3"
       chamfer_steps="1"
       flexible="true"
       use_knot_distance="true"
       apply_no_radius="true"
       apply_with_radius="true"
       only_selected="false"
       hide_knots="false"
       nodesatellites_param="F,1,0,1,0,0.03,0,1 @ F,1,0,1,0,0.03,0,1 @ F,1,0,1,0,0.03,0,1 @ F,1,0,1,0,0.03,0,1" /><linearGradient
       inkscape:collect="always"
       id="linearGradient847"><stop
         style="stop-color:#ffffff;stop-opacity:1;"
         offset="0"
         id="stop843" /><stop
         style="stop-color:#ededed;stop-opacity:1;"
         offset="1"
         id="stop845" /></linearGradient><radialGradient
       inkscape:collect="always"
       xlink:href="#linearGradient847"
       id="radialGradient849"
       cx="26.375103"
       cy="97.113945"
       fx="26.375103"
       fy="97.113945"
       r="132.29167"
       gradientTransform="matrix(0,3.0734875,-2.0099162,0,221.56598,-34.611386)"
       gradientUnits="userSpaceOnUse" /></defs><sodipodi:namedview
     id="base"
     pagecolor="#757575"
     bordercolor="#666666"
     borderopacity="1.0"
     inkscape:pageopacity="1"
     inkscape:pageshadow="2"
     inkscape:zoom="0.50181065"
     inkscape:cx="262.05103"
     inkscape:cy="795.12063"
     inkscape:document-units="mm"
     inkscape:current-layer="layer1"
     inkscape:document-rotation="0"
     showgrid="false"
     units="px"
     inkscape:showpageshadow="false"
     inkscape:pagecheckerboard="false"
     inkscape:lockguides="true"
     inkscape:window-width="1920"
     inkscape:window-height="1017"
     inkscape:window-x="-8"
     inkscape:window-y="-8"
     inkscape:window-maximized="1"
     showguides="true"
     inkscape:guide-bbox="true"
     inkscape:deskcolor="#757575"><sodipodi:guide
       position="0,396.875"
       orientation="0,1000"
       inkscape:locked="true"
       id="guide833" /><sodipodi:guide
       position="264.58333,396.875"
       orientation="1500,0"
       inkscape:locked="true"
       id="guide835" /><sodipodi:guide
       position="264.58333,0"
       orientation="0,-1000"
       inkscape:locked="true"
       id="guide837" /><sodipodi:guide
       position="0,0"
       orientation="-1500,0"
       inkscape:locked="true"
       id="guide839" /><sodipodi:guide
       position="275.56944,291.04167"
       orientation="0,1"
       id="guide1075"
       inkscape:label=""
       inkscape:locked="true"
       inkscape:color="rgb(0,0,255)" /><sodipodi:guide
       position="323.19316,105.83333"
       orientation="0,1"
       id="guide1077"
       inkscape:label=""
       inkscape:locked="true"
       inkscape:color="rgb(0,0,255)" /><sodipodi:guide
       position="39.6875,280.99221"
       orientation="-1,0"
       id="guide1079"
       inkscape:label=""
       inkscape:locked="true"
       inkscape:color="rgb(0,0,255)" /><sodipodi:guide
       position="224.89583,283.67412"
       orientation="-1,0"
       id="guide1081"
       inkscape:label=""
       inkscape:locked="true"
       inkscape:color="rgb(0,0,255)" /></sodipodi:namedview><metadata
     id="metadata5"><rdf:RDF><cc:Work
         rdf:about=""><dc:format>image/svg+xml</dc:format><dc:type
           rdf:resource="http://purl.org/dc/dcmitype/StillImage" /></cc:Work></rdf:RDF></metadata><g
     inkscape:label="Layer 1"
     inkscape:groupmode="layer"
     id="layer1"><rect
       style="opacity:0.98;fill:url(#radialGradient849);fill-opacity:1;stroke-width:2.64583"
       id="background"
       width="264.58334"
       height="396.875"
       x="-5.0862632e-06"
       y="-4.7961635e-14" /><g
       id="logo"
       transform="matrix(0.61910612,0,0,0.61910612,39.68596,140.30112)"><g
         fill="#c7c8c9"
         id="g402"
         style="display:inline"><path
           d="M 36.69,144.9 58.13,117.59 68.71,144.9 H 36.7 Z M 58.82,86.72 58.4862,86.63082 58.52917,86.72 h -14.4 l -39.3,98.78 h 0.3669 l -0.03635,0.1025 h 14.21 l 11.04,-29.95 h 42.42 l 11.73,29.85 h 0.2908 l 0.03967,0.1025 h 15.31 l -41.37,-98.88 h -2e-5 -1e-5 v -2e-5 2e-5 l 1e-5,1e-5 z"
           id="path396" /><path
           d="m 84.74,98.36 h 33.76 v 86.79 l -0.033,0.1484 h 0.033 v 0.3107 h 13.43 v -87.25 h 11.6 21.46 0.3536 v -11.62 H 164.99 85.09 84.7396 v 11.62 l 2e-5,5e-5 -2e-5,-2e-5 h 2e-5 v 2e-5 l -1e-5,2e-5 z"
           id="path398" /><path
           d="M 237.4,105.1 164.25,24.06 c 7.219,-4.799 13.6,-10.32 14.56,-14.1 0.314,-1.236 0.01,-2.109 -0.3008,-2.611 -2.684,-4.379 -15.55,0.9551 -24.33,5.583 l -7.533,-8.359 6.32,8.994 c -0.8363,0.4596 -1.623,0.899 -2.353,1.322 -9.288,5.388 -19.2,12.96 -20.42,17.76 -0.3074,1.23 -0.0132,2.102 0.3107,2.595 3.084,5.034 19.58,-2.734 27.89,-7.536 1.041,-0.6081 2.112,-1.256 3.163,-1.9 l 65.3,92.94 -51.97,68.21 h 21.62 c 0,0 37.86,-50.86 40.73,-55.19 1.874,2.806 39.95,55.19 39.95,55.19 h 21.97 l -50.8,-69.33 47.07,-62.96 h -19.73 l -38.31,50.44 h 3e-5 -3e-5 -9e-5 5e-5 l 6e-5,2e-5 -3e-5,-3e-5 -3e-5,-2e-5 v 1e-5 l -2e-5,-1e-5 z"
           id="path400" /></g><path
         d="m 44.05,94.39 c 1.573,5.424 4.039,12.34 7.199,20.55 l 0.1025,0.2808 8.363,-10.97 -8.082,-19.87 h -14.13 l -37.5,97.85 h 0.2016 l 30.66,-40.2 -2.998,-0.006 0.01983,-0.0133 -0.01983,-0.0593 16.18,-47.58 -3e-5,-6e-5 v 2e-5 l -1e-5,1e-5 z"
         fill="#b1242a"
         id="path404" /><path
         d="m 65.38,152.6 0.04298,0.1126 h 0.05946 l 11.27,29.52 h 14.67 l -31.71,-77.99 -8.366,10.97 10.11,26.82 h -30.59 l -30.66,40.2 h 13.47 l 10.62,-29.63 h 41.09 2e-5 v 3e-5 -3e-5 2e-5 z"
         fill="#231f20"
         id="path406" /><path
         d="M 51.14,114.8 C 48.036,106.708 45.617,99.73 44.047,94.35 l -16.19,47.65 3.081,0.0166 20.36,-26.77 -0.162,-0.443 h 10e-6 v 2e-5 l -10e-6,2e-5 v -2e-5 z"
         fill="#231f20"
         id="path408" /><g
         fill="#b1242a"
         id="g416"><path
           d="M 133.6,95.88 97.57,84.17 h -0.2347 l -20.28,11.71 h 32.04 v 86.36 h 0.0893 l 12.83,-48.86 v -37.5 h 11.59 -3e-5 2e-5 -2e-5 v 1e-5 z"
           id="path410" /><path
           d="m 97.41,84.15 0.1157,0.02983"
           id="path412" /><path
           d="M 97.36,84.15 H 77.02 v 0.02983 H 97.3 L 97.36607,84.15 h 8e-5 -2e-5 2e-5 2e-5 -1e-5 z"
           id="path414" /></g><g
         fill="#231f20"
         id="g430"><path
           d="m 97.38,84.14 -0.01656,0.0065 h 0.0496 l -0.033,-0.0065 h -2e-5 z"
           id="path418" /><path
           d="m 77,95.88 h 0.01319 V 84.17 H 77 Z"
           id="path420" /><path
           d="M 122,182.2 V 133.34 L 109.14,182.2 Z"
           id="path422" /><path
           d="M 97.53,84.17 97.4077,84.14015 H 97.35815 L 97.29203,84.17 h 0.238 5e-5 -2e-5 -1e-5 -1e-5 z"
           id="path424" /><path
           d="M 154.1,95.88 V 84.17 H 97.53 l 36.03,11.71 h 20.54 -2e-5 z"
           id="path426" /><path
           d="M 77.02,84.17 V 95.88 L 97.3,84.17 Z"
           id="path428" /></g><g
         fill="#b1242a"
         id="g438"><path
           d="m 229.7,113.6 -10.42,14.23 c 0.8892,1.398 1.811,2.776 2.727,4.145 0.9255,1.358 1.848,2.7 2.79,4.029 l 16.45,23.25 16.44,23.22 h 21.07 l -49.06,-68.87 h -9e-5 l -3e-5,2e-5 -2e-5,-2e-5 v 1e-5 z"
           id="path432" /><path
           d="m 169.2,182.5 h 10.82 l 17.37,-23.91 -37.55,23.91 h 9.354 z"
           id="path434" /><path
           d="m 252.6,82.43 22.44,-30.86 h -18.86 l -25.87,34.55 c -1.934,2.512 -3.748,4.964 -5.451,7.361 l 12.92,9.311 14.82,-20.37 h -3e-5 2e-5 v -2e-5 2e-5 1e-5 z"
           id="path436" /></g><path
         d="m 224.9,93.49 c -1.798,2.555 -3.474,5.041 -5.008,7.48 l -0.0529,0.0795 -90.56,-100.2 80.08,114 -50.11,67.67 h 0.6346 l 37.54,-23.91 15.74,-21.65 c 1.269,-1.771 3.299,-4.779 6.062,-9.073 l 18.59,-25.06 -12.92,-9.304 h -3e-5 l 2e-5,-2e-5 v 1e-5 -1e-5 z"
         fill="#231f20"
         id="path440" /><path
         d="m 146.8,26.85 c -13.66,8.151 -22.34,9.615 -23.03,8.432 l 0.0363,-0.4297 c 0.7008,-2.786 7.371,-9.275 18.34,-15.83 13.66,-8.131 22.35,-9.592 23.04,-8.419 l -0.0363,0.4495 c -0.7041,2.77 -7.371,9.262 -18.35,15.79 m 20.81,-17.7 c -2.995,-5.024 -18.91,2.684 -26.92,7.46 -8.921,5.305 -18.44,12.79 -19.65,17.54 -0.2975,1.226 -0.0198,2.095 0.2776,2.594 2.995,5.018 18.93,-2.664 26.93,-7.437 8.915,-5.325 18.44,-12.81 19.64,-17.56 0.3173,-1.226 0.0264,-2.076 -0.2776,-2.588"
         fill="#b1242a"
         id="path442" /><path
         d="m 145.6,24 c -13.65,8.144 -22.33,9.599 -23.04,8.432 -0.6941,-1.17 4.723,-8.115 18.38,-16.25 13.66,-8.135 22.33,-9.599 23.04,-8.432 0.7007,1.17 -4.713,8.108 -18.39,16.25 M 166.41,6.3 c -2.985,-5.018 -18.92,2.677 -26.92,7.443 -8.006,4.78 -22.35,15.11 -19.37,20.14 3.005,5.024 18.92,-2.681 26.93,-7.44 8.002,-4.773 22.35,-15.13 19.36,-20.14"
         fill="#b1242a"
         id="path444" /><path
         d="m 142.4,19.43 -4.062,-5.755 2.135,-0.5124 4.333,4.809 -2.406,1.458 h -3e-5 v -10e-6 h 2e-5 z"
         fill="#221b19"
         id="path446" /><path
         d="m 175.4,149 -11.65,-6.244 -11.74,6.059 2.33,-12.99 -9.394,-9.285 13.1,-1.818 5.926,-11.81 5.768,11.91 13.05,1.983 -9.523,9.156 2.135,13.04 h -6e-5 l -3e-5,3e-5 h -2e-5 v -3e-5 2e-5 z"
         fill="#c7c8c9"
         id="path448" /><g
         fill="#231f20"
         id="g456"><path
           d="m 148.7,145.7 10.83,-5.573 10.42,5.57 -15.2,-15.62 -6.049,15.62 h -2e-5 z"
           id="path450" /><path
           d="m 165,123.6 -5.305,-10.97 -0.0793,0.1654 -0.9222,18.78 18.27,-6.065 0.0959,-0.0662 -12.05,-1.848 h -9e-5 3e-5 v -4e-5 l 2e-5,2e-5 v -1e-5 -1e-5 z"
           id="path452" /><path
           d="m 170.2,145.8 0.0992,0.0593"
           id="path454" /></g><path
         d="m 148.7,145.7 6.049,-15.62 15.2,15.62 0.2314,0.1223 -1.957,-11.9 8.779,-8.452 -18.27,6.072 0.9222,-18.78 -5.404,10.72 h -0.033 l -0.0364,0.0759 -11.94,1.639 3.309,3.279 3.881,3.645 -0.0133,0.1687 -0.7205,13.41 h -5e-5 -6e-5 6e-5 l -3e-5,3e-5 v 2e-5 3e-5 l 2e-5,-3e-5 z"
         fill="#b1242a"
         id="path458" /></g><path
       id="border"
       style="opacity:0.98;fill:#b1242a;fill-opacity:1;stroke-width:46.3438"
       d="M 49.832031 25 A 25 25 0 0 0 25 50 L 25 1450 A 25 25 0 0 0 50 1475 L 950 1475 A 25 25 0 0 0 975 1450 L 975 50 A 25 25 0 0 0 950 25 L 50 25 A 25 25 0 0 0 49.832031 25 z M 73.542969 50 A 23.68421 24.137931 0 0 1 73.683594 50 L 926.31641 50 A 23.68421 24.137931 0 0 1 950 74.138672 L 950 1425.8613 A 23.68421 24.137931 0 0 1 926.31641 1450 L 73.683594 1450 A 23.68421 24.137931 0 0 1 50 1425.8613 L 50 74.138672 A 23.68421 24.137931 0 0 1 73.542969 50 z "
       transform="scale(0.26458333)" /></g></svg>
