<?xml version="1.0" encoding="UTF-8" standalone="no"?>
<svg
   width="1000"
   height="562"
   viewBox="0 0 264.58333 148.69584"
   version="1.1"
   id="svg8"
   inkscape:version="1.2 (dc2aedaf03, 2022-05-15)"
   sodipodi:docname="thumb.svg"
   xml:space="preserve"
   xmlns:inkscape="http://www.inkscape.org/namespaces/inkscape"
   xmlns:sodipodi="http://sodipodi.sourceforge.net/DTD/sodipodi-0.dtd"
   xmlns:xlink="http://www.w3.org/1999/xlink"
   xmlns="http://www.w3.org/2000/svg"
   xmlns:svg="http://www.w3.org/2000/svg"
   xmlns:rdf="http://www.w3.org/1999/02/22-rdf-syntax-ns#"
   xmlns:cc="http://creativecommons.org/ns#"
   xmlns:dc="http://purl.org/dc/elements/1.1/"><defs
     id="defs2"><inkscape:path-effect
       effect="fillet_chamfer"
       id="path-effect2883"
       is_visible="true"
       lpeversion="1"
       satellites_param="F,0,0,1,0,5.2916667,0,1 @ F,0,0,1,0,5.2916667,0,1 @ F,0,0,1,0,5.2916667,0,1 @ F,0,0,1,0,5.2916667,0,1"
       unit="px"
       method="auto"
       mode="F"
       radius="20"
       chamfer_steps="1"
       flexible="false"
       use_knot_distance="true"
       apply_no_radius="true"
       apply_with_radius="true"
       only_selected="false"
       hide_knots="false"
       nodesatellites_param="F,0,0,1,0,5.2916667,0,1 @ F,0,0,1,0,5.2916667,0,1 @ F,0,0,1,0,5.2916667,0,1 @ F,0,0,1,0,5.2916667,0,1" /><inkscape:path-effect
       effect="fillet_chamfer"
       id="path-effect2864"
       is_visible="true"
       lpeversion="1"
       satellites_param="F,0,0,1,0,5.2916667,0,1 @ F,0,0,1,0,5.2916667,0,1 @ F,0,0,1,0,5.2916667,0,1 @ F,0,0,1,0,5.2916667,0,1"
       unit="px"
       method="auto"
       mode="F"
       radius="20"
       chamfer_steps="1"
       flexible="false"
       use_knot_distance="true"
       apply_no_radius="true"
       apply_with_radius="true"
       only_selected="false"
       hide_knots="false"
       nodesatellites_param="F,0,0,1,0,5.2916667,0,1 @ F,0,0,1,0,5.2916667,0,1 @ F,0,0,1,0,5.2916667,0,1 @ F,0,0,1,0,5.2916667,0,1" /><inkscape:path-effect
       effect="fillet_chamfer"
       id="path-effect2862"
       is_visible="true"
       lpeversion="1"
       satellites_param="F,0,0,1,0,0,0,1 @ F,0,0,1,0,0,0,1 @ F,0,0,1,0,0,0,1 @ F,0,0,1,0,0,0,1"
       unit="px"
       method="auto"
       mode="F"
       radius="0"
       chamfer_steps="1"
       flexible="false"
       use_knot_distance="true"
       apply_no_radius="true"
       apply_with_radius="true"
       only_selected="false"
       hide_knots="false"
       nodesatellites_param="F,0,0,1,0,0,0,1 @ F,0,0,1,0,0,0,1 @ F,0,0,1,0,0,0,1 @ F,0,0,1,0,0,0,1" /><inkscape:path-effect
       effect="fillet_chamfer"
       id="path-effect1088"
       is_visible="true"
       lpeversion="1"
       satellites_param="F,0,0,1,0,5.2916667,0,1 @ F,0,0,1,0,5.2916667,0,1 @ F,0,0,1,0,5.2916667,0,1 @ F,0,0,1,0,5.2916667,0,1"
       unit="px"
       method="auto"
       mode="F"
       radius="20"
       chamfer_steps="1"
       flexible="false"
       use_knot_distance="true"
       apply_no_radius="true"
       apply_with_radius="true"
       only_selected="false"
       hide_knots="false"
       nodesatellites_param="F,0,0,1,0,5.2916667,0,1 @ F,0,0,1,0,5.2916667,0,1 @ F,0,0,1,0,5.2916667,0,1 @ F,0,0,1,0,5.2916667,0,1" /><inkscape:path-effect
       effect="fillet_chamfer"
       id="path-effect1308"
       is_visible="true"
       lpeversion="1"
       satellites_param="F,1,0,1,0,0.04,0,1 @ F,1,0,1,0,0.04,0,1 @ F,1,0,1,0,0.04,0,1 @ F,1,0,1,0,0.04,0,1"
       unit="px"
       method="auto"
       mode="F"
       radius="4"
       chamfer_steps="1"
       flexible="true"
       use_knot_distance="true"
       apply_no_radius="true"
       apply_with_radius="true"
       only_selected="false"
       hide_knots="false"
       nodesatellites_param="F,1,0,1,0,0.04,0,1 @ F,1,0,1,0,0.04,0,1 @ F,1,0,1,0,0.04,0,1 @ F,1,0,1,0,0.04,0,1" /><inkscape:path-effect
       effect="fillet_chamfer"
       id="path-effect1306"
       is_visible="true"
       lpeversion="1"
       satellites_param="F,1,0,1,0,0.03,0,1 @ F,1,0,1,0,0.03,0,1 @ F,1,0,1,0,0.03,0,1 @ F,1,0,1,0,0.03,0,1"
       unit="px"
       method="auto"
       mode="F"
       radius="3"
       chamfer_steps="1"
       flexible="true"
       use_knot_distance="true"
       apply_no_radius="true"
       apply_with_radius="true"
       only_selected="false"
       hide_knots="false"
       nodesatellites_param="F,1,0,1,0,0.03,0,1 @ F,1,0,1,0,0.03,0,1 @ F,1,0,1,0,0.03,0,1 @ F,1,0,1,0,0.03,0,1" /><inkscape:path-effect
       effect="fillet_chamfer"
       id="path-effect1210"
       is_visible="true"
       lpeversion="1"
       satellites_param="F,1,0,1,0,0.02,0,1 @ F,1,0,1,0,0.02,0,1 @ F,1,0,1,0,0.02,0,1 @ F,1,0,1,0,0.02,0,1"
       unit="px"
       method="auto"
       mode="F"
       radius="2"
       chamfer_steps="1"
       flexible="true"
       use_knot_distance="true"
       apply_no_radius="true"
       apply_with_radius="true"
       only_selected="false"
       hide_knots="false"
       nodesatellites_param="F,1,0,1,0,0.02,0,1 @ F,1,0,1,0,0.02,0,1 @ F,1,0,1,0,0.02,0,1 @ F,1,0,1,0,0.02,0,1" /><inkscape:path-effect
       effect="fillet_chamfer"
       id="path-effect1191"
       is_visible="true"
       lpeversion="1"
       satellites_param="F,1,0,1,0,0.03,0,1 @ F,1,0,1,0,0.03,0,1 @ F,1,0,1,0,0.03,0,1 @ F,1,0,1,0,0.03,0,1"
       unit="px"
       method="auto"
       mode="F"
       radius="3"
       chamfer_steps="1"
       flexible="true"
       use_knot_distance="true"
       apply_no_radius="true"
       apply_with_radius="true"
       only_selected="false"
       hide_knots="false"
       nodesatellites_param="F,1,0,1,0,0.03,0,1 @ F,1,0,1,0,0.03,0,1 @ F,1,0,1,0,0.03,0,1 @ F,1,0,1,0,0.03,0,1" /><linearGradient
       inkscape:collect="always"
       id="linearGradient847"><stop
         style="stop-color:#ffffff;stop-opacity:1;"
         offset="0"
         id="stop843" /><stop
         style="stop-color:#ededed;stop-opacity:1;"
         offset="1"
         id="stop845" /></linearGradient><radialGradient
       inkscape:collect="always"
       xlink:href="#linearGradient847"
       id="radialGradient849"
       cx="26.375103"
       cy="97.113945"
       fx="26.375103"
       fy="97.113945"
       r="132.29167"
       gradientTransform="matrix(0,1.1515333,-2.0099162,0,221.56598,-12.967733)"
       gradientUnits="userSpaceOnUse" /></defs><sodipodi:namedview
     id="base"
     pagecolor="#757575"
     bordercolor="#666666"
     borderopacity="1.0"
     inkscape:pageopacity="1"
     inkscape:pageshadow="2"
     inkscape:zoom="0.70710678"
     inkscape:cx="191.62594"
     inkscape:cy="287.08535"
     inkscape:document-units="mm"
     inkscape:current-layer="layer1"
     inkscape:document-rotation="0"
     showgrid="false"
     units="px"
     inkscape:showpageshadow="false"
     inkscape:pagecheckerboard="false"
     inkscape:lockguides="true"
     inkscape:window-width="1920"
     inkscape:window-height="1017"
     inkscape:window-x="-8"
     inkscape:window-y="-8"
     inkscape:window-maximized="1"
     showguides="true"
     inkscape:guide-bbox="true"
     inkscape:deskcolor="#757575"><sodipodi:guide
       position="0,148.69584"
       orientation="0,1000"
       inkscape:locked="true"
       id="guide1270" /><sodipodi:guide
       position="264.58334,148.69584"
       orientation="562,0"
       inkscape:locked="true"
       id="guide1272" /><sodipodi:guide
       position="264.58334,0"
       orientation="0,-1000"
       inkscape:locked="true"
       id="guide1274" /><sodipodi:guide
       position="0,0"
       orientation="-562,0"
       inkscape:locked="true"
       id="guide1276" /><sodipodi:guide
       position="21.201605,127.26459"
       orientation="0,1"
       id="guide2557"
       inkscape:label=""
       inkscape:locked="true"
       inkscape:color="rgb(0,0,255)" /><sodipodi:guide
       position="-33.82728,21.43125"
       orientation="0,1"
       id="guide2559"
       inkscape:label=""
       inkscape:locked="true"
       inkscape:color="rgb(0,0,255)" /><sodipodi:guide
       position="39.687501,148.69584"
       orientation="-1,0"
       id="guide2561"
       inkscape:label=""
       inkscape:locked="true"
       inkscape:color="rgb(0,0,255)" /><sodipodi:guide
       position="224.89584,148.69584"
       orientation="-1,0"
       id="guide2563"
       inkscape:label=""
       inkscape:locked="true"
       inkscape:color="rgb(0,0,255)" /></sodipodi:namedview><metadata
     id="metadata5"><rdf:RDF><cc:Work
         rdf:about=""><dc:format>image/svg+xml</dc:format><dc:type
           rdf:resource="http://purl.org/dc/dcmitype/StillImage" /></cc:Work></rdf:RDF></metadata><g
     inkscape:label="Layer 1"
     inkscape:groupmode="layer"
     id="layer1"><rect
       style="opacity:0.98;fill:url(#radialGradient849);fill-opacity:1;stroke-width:1.61952"
       id="background"
       width="264.58334"
       height="148.69583"
       x="-5.0862632e-06"
       y="-4.7961635e-14" /><g
       transform="matrix(3.4907052,0,0,3.4907052,-406.02494,-400.32565)"
       id="logo"><path
         d="m 173.12452,137.52749 c 0,1.00506 -0.81457,1.81962 -1.81963,1.81962 -1.00507,0 -1.81963,-0.81456 -1.81963,-1.81962 0,-1.00507 0.81456,-1.81963 1.81963,-1.81963 1.00506,0 1.81963,0.81456 1.81963,1.81963"
         style="fill:#eb0032;fill-opacity:1;fill-rule:nonzero;stroke:none;stroke-width:0.352778"
         id="path6812" /><path
         d="m 177.40368,132.7562 c 0.7373,0 1.26611,0.63253 1.26611,1.30669 0,0.48154 -0.20849,1.01812 -0.9599,1.85737 l -3.42301,3.58423 v 1.35431 h 6.45619 v -1.651 h -3.66148 l 2.21439,-2.37984 c 0.65405,-0.7426 1.22766,-1.60937 1.22766,-2.76507 0,-1.74696 -1.4224,-2.95769 -3.11996,-2.95769 -1.55152,0 -3.07129,1.10102 -3.00602,3.13196 h 1.7533 c 0,-0.19261 0.01,-0.36301 0.0473,-0.51364 0.17604,-0.70203 0.72778,-0.96732 1.20544,-0.96732"
         style="fill:#232323;fill-opacity:1;fill-rule:nonzero;stroke:none;stroke-width:0.352778"
         id="path6816" /><path
         d="m 146.78969,140.8587 v -6.66257 h 1.71697 v 0.53587 c 0.50835,-0.41204 1.14018,-0.6731 1.88207,-0.6731 0.9204,0 1.75824,0.4124 2.30787,1.07139 0.43956,0.52211 0.68651,1.19521 0.68651,2.33539 v 3.39302 h -1.78576 v -3.53025 c 0,-0.65934 -0.15099,-1.00295 -0.39829,-1.25025 -0.23354,-0.23354 -0.59055,-0.37112 -1.0026,-0.37112 -0.75565,0 -1.37371,0.48119 -1.62101,0.82444 v 4.32718 z"
         style="fill:#232323;fill-opacity:1;fill-rule:nonzero;stroke:none;stroke-width:0.352778"
         id="path6820" /><path
         d="m 165.97092,136.66897 c -0.055,-0.59055 -0.59055,-1.1677 -1.31868,-1.1677 -0.74189,0 -1.3462,0.56339 -1.42875,1.1677 z m 1.66194,3.13196 c -0.64558,0.7694 -1.70321,1.19521 -2.73368,1.19521 -1.99178,0 -3.48897,-1.37372 -3.48897,-3.46181 0,-1.85455 1.26401,-3.47521 3.24203,-3.47521 1.84044,0 3.14572,1.55186 3.14572,3.40642 0,0.17886 -0.0138,0.35736 -0.0413,0.50835 h -4.61539 c 0.096,0.93416 0.8516,1.57974 1.79952,1.57974 0.75529,0 1.35996,-0.4258 1.67569,-0.76906 z"
         style="fill:#232323;fill-opacity:1;fill-rule:nonzero;stroke:none;stroke-width:0.352778"
         id="path6824" /><path
         d="m 143.55147,136.53167 c -0.37112,-0.4946 -0.96167,-0.82409 -1.64853,-0.82409 -1.04387,0 -1.71732,0.86536 -1.71732,1.82668 0,1.04422 0.756,1.81328 1.7586,1.81328 0.6731,0 1.26365,-0.3295 1.60725,-0.82409 z m 1.78576,4.32717 h -1.71732 v -0.53587 c -0.54927,0.46708 -1.1811,0.6731 -1.8542,0.6731 -0.98919,0 -1.92334,-0.43956 -2.51389,-1.12642 -0.52211,-0.60431 -0.85196,-1.4284 -0.85196,-2.33539 0,-1.96427 1.45627,-3.47521 3.26954,-3.47521 0.75565,0 1.42875,0.24694 1.95051,0.6731 v -0.53587 h 1.71732 z"
         style="fill:#232323;fill-opacity:1;fill-rule:nonzero;stroke:none;stroke-width:0.352778"
         id="path6828" /><path
         d="m 161.00138,139.49877 c -0.78282,1.04387 -1.77201,1.49719 -3.0219,1.49719 -2.06057,0 -3.57152,-1.53846 -3.57152,-3.46145 0,-1.93711 1.55187,-3.47557 3.58493,-3.47557 1.15393,0 2.1844,0.53587 2.80246,1.33244 l -1.264,1.11266 c -0.35701,-0.46707 -0.89253,-0.79692 -1.53846,-0.79692 -1.03011,0 -1.79917,0.81068 -1.79917,1.82739 0,1.04387 0.7553,1.81292 1.84044,1.81292 0.72814,0 1.30528,-0.43921 1.5935,-0.87877 z"
         style="fill:#232323;fill-opacity:1;fill-rule:nonzero;stroke:none;stroke-width:0.352778"
         id="path6832" /><path
         d="m 138.12543,135.77598 c -0.12382,-0.0413 -0.38453,-0.0688 -0.64558,-0.0688 -0.78281,0 -1.40123,0.56338 -1.62101,0.96167 v 4.18994 h -1.78577 v -6.66256 h 1.71733 v 0.6731 c 0.39828,-0.49459 1.12642,-0.81033 1.93675,-0.81033 0.26105,0 0.41204,0.0272 0.6043,0.055 z"
         style="fill:#232323;fill-opacity:1;fill-rule:nonzero;stroke:none;stroke-width:0.352778"
         id="path6836" /><path
         d="m 132.97399,132.61668 c -0.15098,-0.0413 -0.37076,-0.0688 -0.53586,-0.0688 -0.43957,0 -0.78282,0.12382 -1.0026,0.38488 -0.15134,0.19191 -0.2473,0.43956 -0.2473,1.05762 v 0.20603 h 2.06058 v 1.51094 h -2.06058 v 5.15127 h -1.78576 v -5.15127 h -1.71697 v -1.51094 h 1.71697 v -0.27482 c 0,-1.07138 0.2473,-1.71697 0.71438,-2.17064 0.46708,-0.45296 1.16734,-0.78281 2.07398,-0.78281 0.35736,0 0.68721,0.0275 1.05798,0.12382 z"
         style="fill:#232323;fill-opacity:1;fill-rule:nonzero;stroke:none;stroke-width:0.352778"
         id="path6840" /></g><path
       id="border"
       style="fill:#eb0032;fill-opacity:1;opacity:0.98;stroke-width:85.9894"
       d="M 40 25 A 15 16 0 0 0 25 41 L 25 521 A 15 16 0 0 0 40 537 L 960 537 A 15 16 0 0 0 975 521 L 975 41 A 15 16 0 0 0 960 25 L 40 25 z M 52.5 37.5 L 947.5 37.5 A 15 16 0 0 1 962.5 53.5 L 962.5 508.5 A 15 16 0 0 1 947.5 524.5 L 52.5 524.5 A 15 16 0 0 1 37.5 508.5 L 37.5 53.5 A 15 16 0 0 1 52.5 37.5 z "
       transform="scale(0.26458333)" /></g></svg>
