<?xml version="1.0" encoding="UTF-8" standalone="no"?>
<svg
   width="1000"
   height="562"
   viewBox="0 0 264.58333 148.69584"
   version="1.1"
   id="svg8"
   inkscape:version="1.2 (dc2aedaf03, 2022-05-15)"
   sodipodi:docname="thumb.svg"
   xml:space="preserve"
   xmlns:inkscape="http://www.inkscape.org/namespaces/inkscape"
   xmlns:sodipodi="http://sodipodi.sourceforge.net/DTD/sodipodi-0.dtd"
   xmlns:xlink="http://www.w3.org/1999/xlink"
   xmlns="http://www.w3.org/2000/svg"
   xmlns:svg="http://www.w3.org/2000/svg"
   xmlns:rdf="http://www.w3.org/1999/02/22-rdf-syntax-ns#"
   xmlns:cc="http://creativecommons.org/ns#"
   xmlns:dc="http://purl.org/dc/elements/1.1/"><defs
     id="defs2"><inkscape:path-effect
       effect="fillet_chamfer"
       id="path-effect2883"
       is_visible="true"
       lpeversion="1"
       satellites_param="F,0,0,1,0,5.2916667,0,1 @ F,0,0,1,0,5.2916667,0,1 @ F,0,0,1,0,5.2916667,0,1 @ F,0,0,1,0,5.2916667,0,1"
       unit="px"
       method="auto"
       mode="F"
       radius="20"
       chamfer_steps="1"
       flexible="false"
       use_knot_distance="true"
       apply_no_radius="true"
       apply_with_radius="true"
       only_selected="false"
       hide_knots="false"
       nodesatellites_param="F,0,0,1,0,5.2916667,0,1 @ F,0,0,1,0,5.2916667,0,1 @ F,0,0,1,0,5.2916667,0,1 @ F,0,0,1,0,5.2916667,0,1" /><inkscape:path-effect
       effect="fillet_chamfer"
       id="path-effect2864"
       is_visible="true"
       lpeversion="1"
       satellites_param="F,0,0,1,0,5.2916667,0,1 @ F,0,0,1,0,5.2916667,0,1 @ F,0,0,1,0,5.2916667,0,1 @ F,0,0,1,0,5.2916667,0,1"
       unit="px"
       method="auto"
       mode="F"
       radius="20"
       chamfer_steps="1"
       flexible="false"
       use_knot_distance="true"
       apply_no_radius="true"
       apply_with_radius="true"
       only_selected="false"
       hide_knots="false"
       nodesatellites_param="F,0,0,1,0,5.2916667,0,1 @ F,0,0,1,0,5.2916667,0,1 @ F,0,0,1,0,5.2916667,0,1 @ F,0,0,1,0,5.2916667,0,1" /><inkscape:path-effect
       effect="fillet_chamfer"
       id="path-effect2862"
       is_visible="true"
       lpeversion="1"
       satellites_param="F,0,0,1,0,0,0,1 @ F,0,0,1,0,0,0,1 @ F,0,0,1,0,0,0,1 @ F,0,0,1,0,0,0,1"
       unit="px"
       method="auto"
       mode="F"
       radius="0"
       chamfer_steps="1"
       flexible="false"
       use_knot_distance="true"
       apply_no_radius="true"
       apply_with_radius="true"
       only_selected="false"
       hide_knots="false"
       nodesatellites_param="F,0,0,1,0,0,0,1 @ F,0,0,1,0,0,0,1 @ F,0,0,1,0,0,0,1 @ F,0,0,1,0,0,0,1" /><inkscape:path-effect
       effect="fillet_chamfer"
       id="path-effect1088"
       is_visible="true"
       lpeversion="1"
       satellites_param="F,0,0,1,0,5.2916667,0,1 @ F,0,0,1,0,5.2916667,0,1 @ F,0,0,1,0,5.2916667,0,1 @ F,0,0,1,0,5.2916667,0,1"
       unit="px"
       method="auto"
       mode="F"
       radius="20"
       chamfer_steps="1"
       flexible="false"
       use_knot_distance="true"
       apply_no_radius="true"
       apply_with_radius="true"
       only_selected="false"
       hide_knots="false"
       nodesatellites_param="F,0,0,1,0,5.2916667,0,1 @ F,0,0,1,0,5.2916667,0,1 @ F,0,0,1,0,5.2916667,0,1 @ F,0,0,1,0,5.2916667,0,1" /><inkscape:path-effect
       effect="fillet_chamfer"
       id="path-effect1308"
       is_visible="true"
       lpeversion="1"
       satellites_param="F,1,0,1,0,0.04,0,1 @ F,1,0,1,0,0.04,0,1 @ F,1,0,1,0,0.04,0,1 @ F,1,0,1,0,0.04,0,1"
       unit="px"
       method="auto"
       mode="F"
       radius="4"
       chamfer_steps="1"
       flexible="true"
       use_knot_distance="true"
       apply_no_radius="true"
       apply_with_radius="true"
       only_selected="false"
       hide_knots="false"
       nodesatellites_param="F,1,0,1,0,0.04,0,1 @ F,1,0,1,0,0.04,0,1 @ F,1,0,1,0,0.04,0,1 @ F,1,0,1,0,0.04,0,1" /><inkscape:path-effect
       effect="fillet_chamfer"
       id="path-effect1306"
       is_visible="true"
       lpeversion="1"
       satellites_param="F,1,0,1,0,0.03,0,1 @ F,1,0,1,0,0.03,0,1 @ F,1,0,1,0,0.03,0,1 @ F,1,0,1,0,0.03,0,1"
       unit="px"
       method="auto"
       mode="F"
       radius="3"
       chamfer_steps="1"
       flexible="true"
       use_knot_distance="true"
       apply_no_radius="true"
       apply_with_radius="true"
       only_selected="false"
       hide_knots="false"
       nodesatellites_param="F,1,0,1,0,0.03,0,1 @ F,1,0,1,0,0.03,0,1 @ F,1,0,1,0,0.03,0,1 @ F,1,0,1,0,0.03,0,1" /><inkscape:path-effect
       effect="fillet_chamfer"
       id="path-effect1210"
       is_visible="true"
       lpeversion="1"
       satellites_param="F,1,0,1,0,0.02,0,1 @ F,1,0,1,0,0.02,0,1 @ F,1,0,1,0,0.02,0,1 @ F,1,0,1,0,0.02,0,1"
       unit="px"
       method="auto"
       mode="F"
       radius="2"
       chamfer_steps="1"
       flexible="true"
       use_knot_distance="true"
       apply_no_radius="true"
       apply_with_radius="true"
       only_selected="false"
       hide_knots="false"
       nodesatellites_param="F,1,0,1,0,0.02,0,1 @ F,1,0,1,0,0.02,0,1 @ F,1,0,1,0,0.02,0,1 @ F,1,0,1,0,0.02,0,1" /><inkscape:path-effect
       effect="fillet_chamfer"
       id="path-effect1191"
       is_visible="true"
       lpeversion="1"
       satellites_param="F,1,0,1,0,0.03,0,1 @ F,1,0,1,0,0.03,0,1 @ F,1,0,1,0,0.03,0,1 @ F,1,0,1,0,0.03,0,1"
       unit="px"
       method="auto"
       mode="F"
       radius="3"
       chamfer_steps="1"
       flexible="true"
       use_knot_distance="true"
       apply_no_radius="true"
       apply_with_radius="true"
       only_selected="false"
       hide_knots="false"
       nodesatellites_param="F,1,0,1,0,0.03,0,1 @ F,1,0,1,0,0.03,0,1 @ F,1,0,1,0,0.03,0,1 @ F,1,0,1,0,0.03,0,1" /><linearGradient
       inkscape:collect="always"
       id="linearGradient847"><stop
         style="stop-color:#ffffff;stop-opacity:1;"
         offset="0"
         id="stop843" /><stop
         style="stop-color:#ededed;stop-opacity:1;"
         offset="1"
         id="stop845" /></linearGradient><radialGradient
       inkscape:collect="always"
       xlink:href="#linearGradient847"
       id="radialGradient849"
       cx="26.375103"
       cy="97.113945"
       fx="26.375103"
       fy="97.113945"
       r="132.29167"
       gradientTransform="matrix(0,1.1515333,-2.0099162,0,221.56598,-12.967733)"
       gradientUnits="userSpaceOnUse" /></defs><sodipodi:namedview
     id="base"
     pagecolor="#757575"
     bordercolor="#666666"
     borderopacity="1.0"
     inkscape:pageopacity="1"
     inkscape:pageshadow="2"
     inkscape:zoom="1"
     inkscape:cx="431.5"
     inkscape:cy="236"
     inkscape:document-units="mm"
     inkscape:current-layer="layer1"
     inkscape:document-rotation="0"
     showgrid="false"
     units="px"
     inkscape:showpageshadow="false"
     inkscape:pagecheckerboard="false"
     inkscape:lockguides="true"
     inkscape:window-width="1920"
     inkscape:window-height="1017"
     inkscape:window-x="-8"
     inkscape:window-y="-8"
     inkscape:window-maximized="1"
     showguides="true"
     inkscape:guide-bbox="true"
     inkscape:deskcolor="#757575"><sodipodi:guide
       position="0,148.69584"
       orientation="0,1000"
       inkscape:locked="true"
       id="guide1270" /><sodipodi:guide
       position="264.58334,148.69584"
       orientation="562,0"
       inkscape:locked="true"
       id="guide1272" /><sodipodi:guide
       position="264.58334,0"
       orientation="0,-1000"
       inkscape:locked="true"
       id="guide1274" /><sodipodi:guide
       position="0,0"
       orientation="-562,0"
       inkscape:locked="true"
       id="guide1276" /><sodipodi:guide
       position="21.201605,127.26459"
       orientation="0,1"
       id="guide2557"
       inkscape:label=""
       inkscape:locked="true"
       inkscape:color="rgb(0,0,255)" /><sodipodi:guide
       position="-33.82728,21.43125"
       orientation="0,1"
       id="guide2559"
       inkscape:label=""
       inkscape:locked="true"
       inkscape:color="rgb(0,0,255)" /><sodipodi:guide
       position="39.687501,148.69584"
       orientation="-1,0"
       id="guide2561"
       inkscape:label=""
       inkscape:locked="true"
       inkscape:color="rgb(0,0,255)" /><sodipodi:guide
       position="224.89584,148.69584"
       orientation="-1,0"
       id="guide2563"
       inkscape:label=""
       inkscape:locked="true"
       inkscape:color="rgb(0,0,255)" /></sodipodi:namedview><metadata
     id="metadata5"><rdf:RDF><cc:Work
         rdf:about=""><dc:format>image/svg+xml</dc:format><dc:type
           rdf:resource="http://purl.org/dc/dcmitype/StillImage" /></cc:Work></rdf:RDF></metadata><g
     inkscape:label="Layer 1"
     inkscape:groupmode="layer"
     id="layer1"><rect
       style="opacity:0.98;fill:url(#radialGradient849);fill-opacity:1;stroke-width:1.61952"
       id="background"
       width="264.58334"
       height="148.69583"
       x="-5.0862632e-06"
       y="-4.7961635e-14" /><g
       transform="matrix(3.4802948,0,0,3.4802948,-246.56328,-312.08909)"
       id="logo"><path
         d="m 127.68801,112.58106 c 0,1.00506 -0.81456,1.81962 -1.81962,1.81962 -1.00472,0 -1.81963,-0.81456 -1.81963,-1.81962 0,-1.00507 0.81491,-1.81963 1.81963,-1.81963 1.00506,0 1.81962,0.81456 1.81962,1.81963"
         style="fill:#0082e6;fill-opacity:1;fill-rule:nonzero;stroke:none;stroke-width:0.352778"
         id="path6396" /><path
         d="m 133.23996,109.53835 1.74449,-2.14313 v -1.0989 h -5.83812 v 1.64853 h 3.14184 l -1.72685,2.04329 v 1.18498 c 0.35701,-0.17886 0.76905,-0.27481 1.15393,-0.27481 1.07139,0 1.89548,0.75565 1.89548,1.75824 0,1.03046 -0.89288,1.74449 -1.79952,1.74449 -0.72778,0 -1.38712,-0.39829 -1.78576,-0.96132 l -1.33244,1.11266 c 0.8516,0.96132 1.99178,1.49719 3.18699,1.49719 1.99179,0 3.58528,-1.35996 3.58528,-3.39302 0,-1.45591 -0.90664,-2.60985 -2.22532,-3.1182"
         style="fill:#232323;fill-opacity:1;fill-rule:nonzero;stroke:none;stroke-width:0.352778"
         id="path6400" /><path
         d="m 101.35319,115.91227 v -6.66256 h 1.71732 v 0.53587 c 0.508,-0.41205 1.13983,-0.6731 1.88172,-0.6731 0.92039,0 1.75824,0.41239 2.30787,1.07138 0.43956,0.52211 0.68651,1.19521 0.68651,2.33539 v 3.39302 h -1.78577 v -3.53025 c 0,-0.65934 -0.15098,-1.00295 -0.39793,-1.25024 -0.23389,-0.23354 -0.5909,-0.37113 -1.00295,-0.37113 -0.75565,0 -1.37371,0.48119 -1.62101,0.82444 v 4.32718 z"
         style="fill:#232323;fill-opacity:1;fill-rule:nonzero;stroke:none;stroke-width:0.352778"
         id="path6404" /><path
         d="m 120.53442,111.72254 c -0.055,-0.59055 -0.59055,-1.1677 -1.31868,-1.1677 -0.7419,0 -1.3462,0.56339 -1.42875,1.1677 z m 1.66229,3.13196 c -0.64594,0.76941 -1.70357,1.19521 -2.73368,1.19521 -1.99178,0 -3.48932,-1.37372 -3.48932,-3.46181 0,-1.85455 1.264,-3.47521 3.24203,-3.47521 1.84044,0 3.14572,1.55187 3.14572,3.40642 0,0.17886 -0.0138,0.35736 -0.0413,0.50835 h -4.6154 c 0.096,0.93416 0.85161,1.57974 1.79952,1.57974 0.7553,0 1.35996,-0.4258 1.6757,-0.76906 z"
         style="fill:#232323;fill-opacity:1;fill-rule:nonzero;stroke:none;stroke-width:0.352778"
         id="path6408" /><path
         d="m 98.114969,111.58524 c -0.371122,-0.4946 -0.961672,-0.82409 -1.648531,-0.82409 -1.043869,0 -1.717322,0.86536 -1.717322,1.82668 0,1.04422 0.756003,1.81328 1.758597,1.81328 0.6731,0 1.26365,-0.3295 1.607256,-0.82409 z m 1.785761,4.32717 h -1.716969 v -0.53587 c -0.549628,0.46708 -1.181453,0.6731 -1.854553,0.6731 -0.989189,0 -1.923345,-0.43956 -2.513895,-1.12642 -0.522111,-0.60431 -0.851958,-1.4284 -0.851958,-2.33539 0,-1.96427 1.456267,-3.47521 3.269897,-3.47521 0.755298,0 1.428398,0.24694 1.950509,0.6731 v -0.53587 h 1.716969 z"
         style="fill:#232323;fill-opacity:1;fill-rule:nonzero;stroke:none;stroke-width:0.352778"
         id="path6412" /><path
         d="m 115.56488,114.55235 c -0.78282,1.04386 -1.77201,1.49718 -3.0219,1.49718 -2.06057,0 -3.57152,-1.53846 -3.57152,-3.46145 0,-1.9371 1.55187,-3.47557 3.58528,-3.47557 1.15358,0 2.18405,0.53587 2.80211,1.33244 l -1.264,1.11266 c -0.35701,-0.46707 -0.89253,-0.79692 -1.53811,-0.79692 -1.03046,0 -1.79952,0.81068 -1.79952,1.82739 0,1.04387 0.7553,1.81292 1.84044,1.81292 0.72813,0 1.30528,-0.4392 1.5935,-0.87877 z"
         style="fill:#232323;fill-opacity:1;fill-rule:nonzero;stroke:none;stroke-width:0.352778"
         id="path6416" /><path
         d="m 92.688931,110.82955 c -0.123472,-0.0413 -0.384528,-0.0688 -0.645583,-0.0688 -0.782814,0 -1.401233,0.56339 -1.621014,0.96167 v 4.18994 h -1.785761 v -6.66256 h 1.717322 v 0.6731 c 0.398287,-0.49459 1.12642,-0.81033 1.93675,-0.81033 0.261056,0 0.412044,0.0272 0.604308,0.055 z"
         style="fill:#232323;fill-opacity:1;fill-rule:nonzero;stroke:none;stroke-width:0.352778"
         id="path6420" /><path
         d="m 87.537494,107.67025 c -0.150989,-0.0413 -0.37077,-0.0688 -0.53587,-0.0688 -0.439561,0 -0.782813,0.12382 -1.002594,0.38488 -0.151342,0.19191 -0.247297,0.43956 -0.247297,1.05763 v 0.20602 h 2.060575 v 1.51095 h -2.060575 v 5.15126 h -1.785761 v -5.15126 h -1.71697 v -1.51095 h 1.71697 v -0.27482 c 0,-1.07138 0.247297,-1.71696 0.714375,-2.17064 0.467077,-0.45296 1.167341,-0.78281 2.07398,-0.78281 0.357364,0 0.687211,0.0275 1.057981,0.12382 z"
         style="fill:#232323;fill-opacity:1;fill-rule:nonzero;stroke:none;stroke-width:0.352778"
         id="path6424" /></g><path
       id="border"
       style="fill:#0082e6;fill-opacity:1;opacity:0.98;stroke-width:85.9894"
       d="M 40 25 A 15 16 0 0 0 25 41 L 25 521 A 15 16 0 0 0 40 537 L 960 537 A 15 16 0 0 0 975 521 L 975 41 A 15 16 0 0 0 960 25 L 40 25 z M 52.5 37.5 L 947.5 37.5 A 15 16 0 0 1 962.5 53.5 L 962.5 508.5 A 15 16 0 0 1 947.5 524.5 L 52.5 524.5 A 15 16 0 0 1 37.5 508.5 L 37.5 53.5 A 15 16 0 0 1 52.5 37.5 z "
       transform="scale(0.26458333)" /></g></svg>
