<?xml version="1.0" encoding="UTF-8" standalone="no"?>
<svg
   width="1000"
   height="562"
   viewBox="0 0 264.58333 148.69584"
   version="1.1"
   id="svg8"
   inkscape:version="1.2 (dc2aedaf03, 2022-05-15)"
   sodipodi:docname="thumb.svg"
   xml:space="preserve"
   xmlns:inkscape="http://www.inkscape.org/namespaces/inkscape"
   xmlns:sodipodi="http://sodipodi.sourceforge.net/DTD/sodipodi-0.dtd"
   xmlns:xlink="http://www.w3.org/1999/xlink"
   xmlns="http://www.w3.org/2000/svg"
   xmlns:svg="http://www.w3.org/2000/svg"
   xmlns:rdf="http://www.w3.org/1999/02/22-rdf-syntax-ns#"
   xmlns:cc="http://creativecommons.org/ns#"
   xmlns:dc="http://purl.org/dc/elements/1.1/"><defs
     id="defs2"><inkscape:path-effect
       effect="fillet_chamfer"
       id="path-effect2883"
       is_visible="true"
       lpeversion="1"
       satellites_param="F,0,0,1,0,5.2916667,0,1 @ F,0,0,1,0,5.2916667,0,1 @ F,0,0,1,0,5.2916667,0,1 @ F,0,0,1,0,5.2916667,0,1"
       unit="px"
       method="auto"
       mode="F"
       radius="20"
       chamfer_steps="1"
       flexible="false"
       use_knot_distance="true"
       apply_no_radius="true"
       apply_with_radius="true"
       only_selected="false"
       hide_knots="false"
       nodesatellites_param="F,0,0,1,0,5.2916667,0,1 @ F,0,0,1,0,5.2916667,0,1 @ F,0,0,1,0,5.2916667,0,1 @ F,0,0,1,0,5.2916667,0,1" /><inkscape:path-effect
       effect="fillet_chamfer"
       id="path-effect2864"
       is_visible="true"
       lpeversion="1"
       satellites_param="F,0,0,1,0,5.2916667,0,1 @ F,0,0,1,0,5.2916667,0,1 @ F,0,0,1,0,5.2916667,0,1 @ F,0,0,1,0,5.2916667,0,1"
       unit="px"
       method="auto"
       mode="F"
       radius="20"
       chamfer_steps="1"
       flexible="false"
       use_knot_distance="true"
       apply_no_radius="true"
       apply_with_radius="true"
       only_selected="false"
       hide_knots="false"
       nodesatellites_param="F,0,0,1,0,5.2916667,0,1 @ F,0,0,1,0,5.2916667,0,1 @ F,0,0,1,0,5.2916667,0,1 @ F,0,0,1,0,5.2916667,0,1" /><inkscape:path-effect
       effect="fillet_chamfer"
       id="path-effect2862"
       is_visible="true"
       lpeversion="1"
       satellites_param="F,0,0,1,0,0,0,1 @ F,0,0,1,0,0,0,1 @ F,0,0,1,0,0,0,1 @ F,0,0,1,0,0,0,1"
       unit="px"
       method="auto"
       mode="F"
       radius="0"
       chamfer_steps="1"
       flexible="false"
       use_knot_distance="true"
       apply_no_radius="true"
       apply_with_radius="true"
       only_selected="false"
       hide_knots="false"
       nodesatellites_param="F,0,0,1,0,0,0,1 @ F,0,0,1,0,0,0,1 @ F,0,0,1,0,0,0,1 @ F,0,0,1,0,0,0,1" /><inkscape:path-effect
       effect="fillet_chamfer"
       id="path-effect1088"
       is_visible="true"
       lpeversion="1"
       satellites_param="F,0,0,1,0,5.2916667,0,1 @ F,0,0,1,0,5.2916667,0,1 @ F,0,0,1,0,5.2916667,0,1 @ F,0,0,1,0,5.2916667,0,1"
       unit="px"
       method="auto"
       mode="F"
       radius="20"
       chamfer_steps="1"
       flexible="false"
       use_knot_distance="true"
       apply_no_radius="true"
       apply_with_radius="true"
       only_selected="false"
       hide_knots="false"
       nodesatellites_param="F,0,0,1,0,5.2916667,0,1 @ F,0,0,1,0,5.2916667,0,1 @ F,0,0,1,0,5.2916667,0,1 @ F,0,0,1,0,5.2916667,0,1" /><inkscape:path-effect
       effect="fillet_chamfer"
       id="path-effect1308"
       is_visible="true"
       lpeversion="1"
       satellites_param="F,1,0,1,0,0.04,0,1 @ F,1,0,1,0,0.04,0,1 @ F,1,0,1,0,0.04,0,1 @ F,1,0,1,0,0.04,0,1"
       unit="px"
       method="auto"
       mode="F"
       radius="4"
       chamfer_steps="1"
       flexible="true"
       use_knot_distance="true"
       apply_no_radius="true"
       apply_with_radius="true"
       only_selected="false"
       hide_knots="false"
       nodesatellites_param="F,1,0,1,0,0.04,0,1 @ F,1,0,1,0,0.04,0,1 @ F,1,0,1,0,0.04,0,1 @ F,1,0,1,0,0.04,0,1" /><inkscape:path-effect
       effect="fillet_chamfer"
       id="path-effect1306"
       is_visible="true"
       lpeversion="1"
       satellites_param="F,1,0,1,0,0.03,0,1 @ F,1,0,1,0,0.03,0,1 @ F,1,0,1,0,0.03,0,1 @ F,1,0,1,0,0.03,0,1"
       unit="px"
       method="auto"
       mode="F"
       radius="3"
       chamfer_steps="1"
       flexible="true"
       use_knot_distance="true"
       apply_no_radius="true"
       apply_with_radius="true"
       only_selected="false"
       hide_knots="false"
       nodesatellites_param="F,1,0,1,0,0.03,0,1 @ F,1,0,1,0,0.03,0,1 @ F,1,0,1,0,0.03,0,1 @ F,1,0,1,0,0.03,0,1" /><inkscape:path-effect
       effect="fillet_chamfer"
       id="path-effect1210"
       is_visible="true"
       lpeversion="1"
       satellites_param="F,1,0,1,0,0.02,0,1 @ F,1,0,1,0,0.02,0,1 @ F,1,0,1,0,0.02,0,1 @ F,1,0,1,0,0.02,0,1"
       unit="px"
       method="auto"
       mode="F"
       radius="2"
       chamfer_steps="1"
       flexible="true"
       use_knot_distance="true"
       apply_no_radius="true"
       apply_with_radius="true"
       only_selected="false"
       hide_knots="false"
       nodesatellites_param="F,1,0,1,0,0.02,0,1 @ F,1,0,1,0,0.02,0,1 @ F,1,0,1,0,0.02,0,1 @ F,1,0,1,0,0.02,0,1" /><inkscape:path-effect
       effect="fillet_chamfer"
       id="path-effect1191"
       is_visible="true"
       lpeversion="1"
       satellites_param="F,1,0,1,0,0.03,0,1 @ F,1,0,1,0,0.03,0,1 @ F,1,0,1,0,0.03,0,1 @ F,1,0,1,0,0.03,0,1"
       unit="px"
       method="auto"
       mode="F"
       radius="3"
       chamfer_steps="1"
       flexible="true"
       use_knot_distance="true"
       apply_no_radius="true"
       apply_with_radius="true"
       only_selected="false"
       hide_knots="false"
       nodesatellites_param="F,1,0,1,0,0.03,0,1 @ F,1,0,1,0,0.03,0,1 @ F,1,0,1,0,0.03,0,1 @ F,1,0,1,0,0.03,0,1" /><linearGradient
       inkscape:collect="always"
       id="linearGradient847"><stop
         style="stop-color:#ffffff;stop-opacity:1;"
         offset="0"
         id="stop843" /><stop
         style="stop-color:#ededed;stop-opacity:1;"
         offset="1"
         id="stop845" /></linearGradient><radialGradient
       inkscape:collect="always"
       xlink:href="#linearGradient847"
       id="radialGradient849"
       cx="26.375103"
       cy="97.113945"
       fx="26.375103"
       fy="97.113945"
       r="132.29167"
       gradientTransform="matrix(0,1.1515333,-2.0099162,0,221.56598,-12.967733)"
       gradientUnits="userSpaceOnUse" /></defs><sodipodi:namedview
     id="base"
     pagecolor="#757575"
     bordercolor="#666666"
     borderopacity="1.0"
     inkscape:pageopacity="1"
     inkscape:pageshadow="2"
     inkscape:zoom="0.70710678"
     inkscape:cx="433.45646"
     inkscape:cy="387.49452"
     inkscape:document-units="mm"
     inkscape:current-layer="layer1"
     inkscape:document-rotation="0"
     showgrid="false"
     units="px"
     inkscape:showpageshadow="false"
     inkscape:pagecheckerboard="false"
     inkscape:lockguides="true"
     inkscape:window-width="1920"
     inkscape:window-height="1017"
     inkscape:window-x="-8"
     inkscape:window-y="-8"
     inkscape:window-maximized="1"
     showguides="true"
     inkscape:guide-bbox="true"
     inkscape:deskcolor="#757575"><sodipodi:guide
       position="0,148.69584"
       orientation="0,1000"
       inkscape:locked="true"
       id="guide1270" /><sodipodi:guide
       position="264.58334,148.69584"
       orientation="562,0"
       inkscape:locked="true"
       id="guide1272" /><sodipodi:guide
       position="264.58334,0"
       orientation="0,-1000"
       inkscape:locked="true"
       id="guide1274" /><sodipodi:guide
       position="0,0"
       orientation="-562,0"
       inkscape:locked="true"
       id="guide1276" /><sodipodi:guide
       position="21.201605,127.26459"
       orientation="0,1"
       id="guide2557"
       inkscape:label=""
       inkscape:locked="true"
       inkscape:color="rgb(0,0,255)" /><sodipodi:guide
       position="-33.82728,21.43125"
       orientation="0,1"
       id="guide2559"
       inkscape:label=""
       inkscape:locked="true"
       inkscape:color="rgb(0,0,255)" /><sodipodi:guide
       position="39.687501,148.69584"
       orientation="-1,0"
       id="guide2561"
       inkscape:label=""
       inkscape:locked="true"
       inkscape:color="rgb(0,0,255)" /><sodipodi:guide
       position="224.89584,148.69584"
       orientation="-1,0"
       id="guide2563"
       inkscape:label=""
       inkscape:locked="true"
       inkscape:color="rgb(0,0,255)" /></sodipodi:namedview><metadata
     id="metadata5"><rdf:RDF><cc:Work
         rdf:about=""><dc:format>image/svg+xml</dc:format><dc:type
           rdf:resource="http://purl.org/dc/dcmitype/StillImage" /></cc:Work></rdf:RDF></metadata><g
     inkscape:label="Layer 1"
     inkscape:groupmode="layer"
     id="layer1"><rect
       style="opacity:0.98;fill:url(#radialGradient849);fill-opacity:1;stroke-width:1.61952"
       id="background"
       width="264.58334"
       height="148.69583"
       x="-5.0862632e-06"
       y="-4.7961635e-14" /><g
       id="logo"
       style="fill:#282828;fill-opacity:1;stroke:none"
       transform="matrix(1.5755901,0,0,1.5755901,-21.402257,-120.75105)"><path
         d="m 64.615599,130.42039 v -9.01241 h 2.322689 v 0.7246 c 0.687564,-0.55739 1.542344,-0.91052 2.545644,-0.91052 1.245306,0 2.378781,0.55774 3.122083,1.44957 0.594431,0.70626 0.928864,1.61678 0.928864,3.15877 v 4.58999 H 71.11941 v -4.77555 c 0,-0.89182 -0.204611,-1.35643 -0.539044,-1.69087 -0.315737,-0.31609 -0.799042,-0.502 -1.356431,-0.502 -1.021997,0 -1.858081,0.65052 -2.192514,1.11513 v 5.85329 z"
         style="fill:#282828;fill-opacity:1;fill-rule:nonzero;stroke:none;stroke-width:0.352778"
         id="path40"
         inkscape:connector-curvature="0" /><path
         d="m 92.811257,128.98963 c -0.873478,1.04069 -2.304344,1.61643 -3.697817,1.61643 -2.694516,0 -4.719813,-1.85808 -4.719813,-4.68242 0,-2.5086 1.709561,-4.70147 4.38538,-4.70147 2.489906,0 4.255206,2.09973 4.255206,4.60834 0,0.24165 -0.0187,0.4833 -0.05574,0.68756 H 86.73466 c 0.130175,1.26365 1.152172,2.13713 2.434519,2.13713 1.021998,0 1.839736,-0.57609 2.26695,-1.0407 z m -2.248606,-4.23686 c -0.07408,-0.79904 -0.799041,-1.57939 -1.783644,-1.57939 -1.003653,0 -1.821039,0.76165 -1.932517,1.57939 z"
         style="fill:#282828;fill-opacity:1;fill-rule:nonzero;stroke:none;stroke-width:0.352778"
         id="path44"
         inkscape:connector-curvature="0" /><path
         d="m 62.650733,130.42049 h -2.322689 v -0.72461 c -0.743303,0.63183 -1.598083,0.91052 -2.508603,0.91052 -1.338086,0 -2.601736,-0.59478 -3.400777,-1.524 -0.705909,-0.81738 -1.15182,-1.93251 -1.15182,-3.15877 0,-2.65747 1.969559,-4.70147 4.422422,-4.70147 1.021998,0 1.932517,0.33444 2.638778,0.91052 v -0.7246 h 2.322689 z m -2.415822,-5.85329 c -0.50165,-0.66922 -1.300692,-1.11513 -2.229908,-1.11513 -1.41217,0 -2.322689,1.17087 -2.322689,2.47156 0,1.41217 1.021997,2.45287 2.378427,2.45287 0.910873,0 1.709914,-0.44592 2.17417,-1.11513 z"
         style="fill:#282828;fill-opacity:1;fill-rule:nonzero;stroke:none;stroke-width:0.352778"
         id="path48"
         inkscape:connector-curvature="0" /><path
         d="m 83.84033,128.58072 c -1.059039,1.41217 -2.397125,2.0253 -4.087989,2.0253 -2.787297,0 -4.831644,-2.08104 -4.831644,-4.68242 0,-2.62008 2.100086,-4.70147 4.849989,-4.70147 1.561041,0 2.954513,0.7246 3.79095,1.80269 l -1.709562,1.50495 c -0.483305,-0.63182 -1.207911,-1.07773 -2.081388,-1.07773 -1.393473,0 -2.434167,1.09643 -2.434167,2.47156 0,1.41217 1.021997,2.45286 2.489906,2.45286 0.984955,0 1.765299,-0.59478 2.155824,-1.18956 z"
         style="fill:#282828;fill-opacity:1;fill-rule:nonzero;stroke:none;stroke-width:0.352778"
         id="path52"
         inkscape:connector-curvature="0" /><path
         d="m 52.895263,123.54493 c -0.167217,-0.0557 -0.520347,-0.0928 -0.873478,-0.0928 -1.059039,0 -1.895122,0.76165 -2.192514,1.30069 v 5.66773 h -2.415822 v -9.01277 h 2.323042 v 0.91052 c 0.538692,-0.66886 1.523647,-1.09608 2.62008,-1.09608 0.352778,0 0.557389,0.037 0.817386,0.0741 z"
         style="fill:#282828;fill-opacity:1;fill-rule:nonzero;stroke:none;stroke-width:0.352778"
         id="path56"
         inkscape:connector-curvature="0" /><path
         d="m 45.926597,119.27113 c -0.204258,-0.0557 -0.50165,-0.0931 -0.724606,-0.0931 -0.594783,0 -1.059391,0.16757 -1.35643,0.52034 -0.204611,0.26035 -0.334786,0.59479 -0.334786,1.43087 v 0.27869 h 2.78765 v 2.044 h -2.78765 v 6.96842 h -2.41547 v -6.96842 h -2.322688 v -2.044 h 2.322688 v -0.37147 c 0,-1.44956 0.334434,-2.32269 0.966259,-2.93617 0.631825,-0.61313 1.579386,-1.05904 2.805994,-1.05904 0.482953,0 0.928864,0.037 1.430867,0.16722 z"
         style="fill:#282828;fill-opacity:1;fill-rule:nonzero;stroke:none;stroke-width:0.352778"
         id="path60"
         inkscape:connector-curvature="0" /><path
         d="m 100.23973,125.91418 c 0,1.35961 -1.102078,2.46133 -2.461331,2.46133 -1.359605,0 -2.461683,-1.10172 -2.461683,-2.46133 0,-1.35961 1.102078,-2.46133 2.461683,-2.46133 1.359253,0 2.461331,1.10172 2.461331,2.46133"
         style="fill:#282828;fill-opacity:1;fill-rule:nonzero;stroke:none;stroke-width:0.352778"
         id="path64"
         inkscape:connector-curvature="0" /><path
         d="m 105.61353,121.40794 v -2.5086 h -2.41582 v 2.5086 h -2.32199 v 2.04399 h 2.32199 v 3.15913 c 0,1.28199 0.20461,2.08104 0.66922,2.69452 0.61313,0.81738 1.67216,1.30069 3.12173,1.30069 0.46461,0 1.18921,-0.0744 1.5053,-0.18592 l -0.37183,-2.04399 c -0.16721,0.037 -0.63182,0.0928 -0.98495,0.0928 -0.59443,0 -0.98496,-0.16722 -1.22626,-0.44591 -0.20461,-0.24165 -0.29739,-0.57609 -0.29739,-1.13348 v -3.43782 h 2.97286 l 3.20393,6.96842 h 1.67252 l 4.14372,-9.01241 h -2.5086 l -2.47156,5.50051 -2.47121,-5.50051 z"
         style="fill:#282828;fill-opacity:1;fill-rule:nonzero;stroke:none;stroke-width:0.352778"
         id="path68"
         inkscape:connector-curvature="0" /><path
         d="m 122.12621,125.16294 c -1.0481,-0.29139 -1.95298,-0.54292 -1.95298,-1.26753 0,-0.86501 0.88336,-1.31763 1.75578,-1.31763 0.86959,0 1.36348,0.21837 2.07997,0.67769 l 0.14076,0.0903 0.74824,-1.17263 -0.1344,-0.091 c -0.47837,-0.3235 -1.49014,-0.86607 -2.89172,-0.86607 -1.53247,0 -3.1175,1.0093 -3.1175,2.6984 0,1.71909 1.53846,2.13501 2.8956,2.5019 1.13277,0.30621 2.11102,0.57079 2.11102,1.47673 0,0.77293 -0.78775,1.35607 -1.83197,1.35607 -1.0982,0 -1.97591,-0.54786 -2.51919,-1.00753 l -0.13123,-0.11112 -0.86995,1.09325 0.11395,0.10513 c 0.89358,0.82656 2.13042,1.28164 3.48262,1.28164 1.83938,0 3.17429,-1.16663 3.17429,-2.77459 0,-1.82422 -1.69298,-2.29482 -3.05329,-2.673"
         style="fill:#282828;fill-opacity:1;fill-rule:nonzero;stroke:none;stroke-width:0.352778"
         id="path72"
         inkscape:connector-curvature="0" /><path
         d="m 137.1997,122.36556 c -0.8001,-0.73484 -1.87607,-1.1497 -3.01202,-1.1497 -1.03575,0 -2.08033,0.36759 -2.86808,1.01035 -1.06574,0.9017 -1.67711,2.24579 -1.67711,3.68688 0,1.59279 0.69886,2.99579 1.91665,3.8481 0.79269,0.56374 1.69615,0.84949 2.68569,0.84949 1.15641,0 2.2285,-0.43391 2.95487,-1.17969 v 0.98919 h 1.38077 v -9.01382 h -1.38077 z m -0.0381,1.84291 v 3.25861 c -0.66428,1.11654 -1.75895,1.78188 -2.93582,1.78188 -0.64382,0 -1.27176,-0.20779 -1.86478,-0.61666 -0.81386,-0.57326 -1.29963,-1.58997 -1.29963,-2.71921 0,-1.06539 0.42192,-2.02459 1.1564,-2.63031 0.55175,-0.44803 1.27635,-0.7052 1.98896,-0.7052 1.43722,0 2.54106,0.96097 2.95487,1.63089"
         style="fill:#282828;fill-opacity:1;fill-rule:nonzero;stroke:none;stroke-width:0.352778"
         id="path76"
         inkscape:connector-curvature="0" /><path
         d="m 143.52172,125.16294 c -1.0481,-0.29139 -1.95298,-0.54292 -1.95298,-1.26753 0,-0.86501 0.88336,-1.31763 1.75578,-1.31763 0.86959,0 1.36348,0.21837 2.07997,0.67769 l 0.14076,0.0903 0.7486,-1.17263 -0.13476,-0.091 c -0.47837,-0.3235 -1.48978,-0.86607 -2.89172,-0.86607 -1.53247,0 -3.1175,1.0093 -3.1175,2.6984 0,1.71909 1.53846,2.13501 2.8956,2.5019 1.13277,0.30621 2.11102,0.57079 2.11102,1.47673 0,0.77293 -0.78775,1.35607 -1.83197,1.35607 -1.09785,0 -1.97591,-0.54786 -2.51919,-1.00753 l -0.13158,-0.11112 -0.86925,1.09325 0.1136,0.10513 c 0.89358,0.82656 2.13042,1.28164 3.48262,1.28164 1.83938,0 3.17429,-1.16663 3.17429,-2.77459 0,-1.82422 -1.69298,-2.29482 -3.05329,-2.673"
         style="fill:#282828;fill-opacity:1;fill-rule:nonzero;stroke:none;stroke-width:0.352778"
         id="path80"
         inkscape:connector-curvature="0" /><path
         d="m 155.54612,122.74934 c -0.72108,-0.97437 -1.89406,-1.53352 -3.21804,-1.53352 -1.13347,0 -2.16923,0.39546 -2.85962,1.07526 V 117.778 h -1.41887 v 12.64249 h 1.41887 v -6.15562 c 0.64135,-1.07279 1.67464,-1.68733 2.84057,-1.68733 0.87877,0 1.65453,0.39687 2.12866,1.08973 0.2413,0.34713 0.46496,0.83396 0.46496,2.03658 v 4.71664 h 1.41852 v -4.79284 c 0,-1.53987 -0.31009,-2.26483 -0.77505,-2.87831"
         style="fill:#282828;fill-opacity:1;fill-rule:nonzero;stroke:none;stroke-width:0.352778"
         id="path84"
         inkscape:connector-curvature="0" /><path
         inkscape:connector-curvature="0"
         id="path86"
         style="fill:#282828;fill-opacity:1;fill-rule:nonzero;stroke:none;stroke-width:0.352778"
         d="m 126.65418,130.42021 h 1.41887 v -12.64214 h -1.41887 z" /></g><path
       id="border"
       style="fill:#282828;fill-opacity:1;opacity:0.98;stroke-width:85.9894"
       d="M 40 25 A 15 16 0 0 0 25 41 L 25 521 A 15 16 0 0 0 40 537 L 960 537 A 15 16 0 0 0 975 521 L 975 41 A 15 16 0 0 0 960 25 L 40 25 z M 52.5 37.5 L 947.5 37.5 A 15 16 0 0 1 962.5 53.5 L 962.5 508.5 A 15 16 0 0 1 947.5 524.5 L 52.5 524.5 A 15 16 0 0 1 37.5 508.5 L 37.5 53.5 A 15 16 0 0 1 52.5 37.5 z "
       transform="scale(0.26458333)" /></g></svg>
