<?xml version="1.0" encoding="UTF-8" standalone="no"?>
<svg
   width="1000"
   height="562"
   viewBox="0 0 264.58333 148.69584"
   version="1.1"
   id="svg8"
   inkscape:version="1.2 (dc2aedaf03, 2022-05-15)"
   sodipodi:docname="thumb.svg"
   xml:space="preserve"
   xmlns:inkscape="http://www.inkscape.org/namespaces/inkscape"
   xmlns:sodipodi="http://sodipodi.sourceforge.net/DTD/sodipodi-0.dtd"
   xmlns:xlink="http://www.w3.org/1999/xlink"
   xmlns="http://www.w3.org/2000/svg"
   xmlns:svg="http://www.w3.org/2000/svg"
   xmlns:rdf="http://www.w3.org/1999/02/22-rdf-syntax-ns#"
   xmlns:cc="http://creativecommons.org/ns#"
   xmlns:dc="http://purl.org/dc/elements/1.1/"><defs
     id="defs2"><inkscape:path-effect
       effect="fillet_chamfer"
       id="path-effect2883"
       is_visible="true"
       lpeversion="1"
       satellites_param="F,0,0,1,0,5.2916667,0,1 @ F,0,0,1,0,5.2916667,0,1 @ F,0,0,1,0,5.2916667,0,1 @ F,0,0,1,0,5.2916667,0,1"
       unit="px"
       method="auto"
       mode="F"
       radius="20"
       chamfer_steps="1"
       flexible="false"
       use_knot_distance="true"
       apply_no_radius="true"
       apply_with_radius="true"
       only_selected="false"
       hide_knots="false"
       nodesatellites_param="F,0,0,1,0,5.2916667,0,1 @ F,0,0,1,0,5.2916667,0,1 @ F,0,0,1,0,5.2916667,0,1 @ F,0,0,1,0,5.2916667,0,1" /><inkscape:path-effect
       effect="fillet_chamfer"
       id="path-effect2864"
       is_visible="true"
       lpeversion="1"
       satellites_param="F,0,0,1,0,5.2916667,0,1 @ F,0,0,1,0,5.2916667,0,1 @ F,0,0,1,0,5.2916667,0,1 @ F,0,0,1,0,5.2916667,0,1"
       unit="px"
       method="auto"
       mode="F"
       radius="20"
       chamfer_steps="1"
       flexible="false"
       use_knot_distance="true"
       apply_no_radius="true"
       apply_with_radius="true"
       only_selected="false"
       hide_knots="false"
       nodesatellites_param="F,0,0,1,0,5.2916667,0,1 @ F,0,0,1,0,5.2916667,0,1 @ F,0,0,1,0,5.2916667,0,1 @ F,0,0,1,0,5.2916667,0,1" /><inkscape:path-effect
       effect="fillet_chamfer"
       id="path-effect2862"
       is_visible="true"
       lpeversion="1"
       satellites_param="F,0,0,1,0,0,0,1 @ F,0,0,1,0,0,0,1 @ F,0,0,1,0,0,0,1 @ F,0,0,1,0,0,0,1"
       unit="px"
       method="auto"
       mode="F"
       radius="0"
       chamfer_steps="1"
       flexible="false"
       use_knot_distance="true"
       apply_no_radius="true"
       apply_with_radius="true"
       only_selected="false"
       hide_knots="false"
       nodesatellites_param="F,0,0,1,0,0,0,1 @ F,0,0,1,0,0,0,1 @ F,0,0,1,0,0,0,1 @ F,0,0,1,0,0,0,1" /><inkscape:path-effect
       effect="fillet_chamfer"
       id="path-effect1088"
       is_visible="true"
       lpeversion="1"
       satellites_param="F,0,0,1,0,5.2916667,0,1 @ F,0,0,1,0,5.2916667,0,1 @ F,0,0,1,0,5.2916667,0,1 @ F,0,0,1,0,5.2916667,0,1"
       unit="px"
       method="auto"
       mode="F"
       radius="20"
       chamfer_steps="1"
       flexible="false"
       use_knot_distance="true"
       apply_no_radius="true"
       apply_with_radius="true"
       only_selected="false"
       hide_knots="false"
       nodesatellites_param="F,0,0,1,0,5.2916667,0,1 @ F,0,0,1,0,5.2916667,0,1 @ F,0,0,1,0,5.2916667,0,1 @ F,0,0,1,0,5.2916667,0,1" /><inkscape:path-effect
       effect="fillet_chamfer"
       id="path-effect1308"
       is_visible="true"
       lpeversion="1"
       satellites_param="F,1,0,1,0,0.04,0,1 @ F,1,0,1,0,0.04,0,1 @ F,1,0,1,0,0.04,0,1 @ F,1,0,1,0,0.04,0,1"
       unit="px"
       method="auto"
       mode="F"
       radius="4"
       chamfer_steps="1"
       flexible="true"
       use_knot_distance="true"
       apply_no_radius="true"
       apply_with_radius="true"
       only_selected="false"
       hide_knots="false"
       nodesatellites_param="F,1,0,1,0,0.04,0,1 @ F,1,0,1,0,0.04,0,1 @ F,1,0,1,0,0.04,0,1 @ F,1,0,1,0,0.04,0,1" /><inkscape:path-effect
       effect="fillet_chamfer"
       id="path-effect1306"
       is_visible="true"
       lpeversion="1"
       satellites_param="F,1,0,1,0,0.03,0,1 @ F,1,0,1,0,0.03,0,1 @ F,1,0,1,0,0.03,0,1 @ F,1,0,1,0,0.03,0,1"
       unit="px"
       method="auto"
       mode="F"
       radius="3"
       chamfer_steps="1"
       flexible="true"
       use_knot_distance="true"
       apply_no_radius="true"
       apply_with_radius="true"
       only_selected="false"
       hide_knots="false"
       nodesatellites_param="F,1,0,1,0,0.03,0,1 @ F,1,0,1,0,0.03,0,1 @ F,1,0,1,0,0.03,0,1 @ F,1,0,1,0,0.03,0,1" /><inkscape:path-effect
       effect="fillet_chamfer"
       id="path-effect1210"
       is_visible="true"
       lpeversion="1"
       satellites_param="F,1,0,1,0,0.02,0,1 @ F,1,0,1,0,0.02,0,1 @ F,1,0,1,0,0.02,0,1 @ F,1,0,1,0,0.02,0,1"
       unit="px"
       method="auto"
       mode="F"
       radius="2"
       chamfer_steps="1"
       flexible="true"
       use_knot_distance="true"
       apply_no_radius="true"
       apply_with_radius="true"
       only_selected="false"
       hide_knots="false"
       nodesatellites_param="F,1,0,1,0,0.02,0,1 @ F,1,0,1,0,0.02,0,1 @ F,1,0,1,0,0.02,0,1 @ F,1,0,1,0,0.02,0,1" /><inkscape:path-effect
       effect="fillet_chamfer"
       id="path-effect1191"
       is_visible="true"
       lpeversion="1"
       satellites_param="F,1,0,1,0,0.03,0,1 @ F,1,0,1,0,0.03,0,1 @ F,1,0,1,0,0.03,0,1 @ F,1,0,1,0,0.03,0,1"
       unit="px"
       method="auto"
       mode="F"
       radius="3"
       chamfer_steps="1"
       flexible="true"
       use_knot_distance="true"
       apply_no_radius="true"
       apply_with_radius="true"
       only_selected="false"
       hide_knots="false"
       nodesatellites_param="F,1,0,1,0,0.03,0,1 @ F,1,0,1,0,0.03,0,1 @ F,1,0,1,0,0.03,0,1 @ F,1,0,1,0,0.03,0,1" /><linearGradient
       inkscape:collect="always"
       id="linearGradient847"><stop
         style="stop-color:#ffffff;stop-opacity:1;"
         offset="0"
         id="stop843" /><stop
         style="stop-color:#ededed;stop-opacity:1;"
         offset="1"
         id="stop845" /></linearGradient><radialGradient
       inkscape:collect="always"
       xlink:href="#linearGradient847"
       id="radialGradient849"
       cx="26.375103"
       cy="97.113945"
       fx="26.375103"
       fy="97.113945"
       r="132.29167"
       gradientTransform="matrix(0,1.1515333,-2.0099162,0,221.56598,-12.967733)"
       gradientUnits="userSpaceOnUse" /></defs><sodipodi:namedview
     id="base"
     pagecolor="#757575"
     bordercolor="#666666"
     borderopacity="1.0"
     inkscape:pageopacity="1"
     inkscape:pageshadow="2"
     inkscape:zoom="1"
     inkscape:cx="262.5"
     inkscape:cy="258"
     inkscape:document-units="mm"
     inkscape:current-layer="layer1"
     inkscape:document-rotation="0"
     showgrid="false"
     units="px"
     inkscape:showpageshadow="false"
     inkscape:pagecheckerboard="false"
     inkscape:lockguides="true"
     inkscape:window-width="1920"
     inkscape:window-height="1017"
     inkscape:window-x="-8"
     inkscape:window-y="-8"
     inkscape:window-maximized="1"
     showguides="true"
     inkscape:guide-bbox="true"
     inkscape:deskcolor="#757575"><sodipodi:guide
       position="0,148.69584"
       orientation="0,1000"
       inkscape:locked="true"
       id="guide1270" /><sodipodi:guide
       position="264.58334,148.69584"
       orientation="562,0"
       inkscape:locked="true"
       id="guide1272" /><sodipodi:guide
       position="264.58334,0"
       orientation="0,-1000"
       inkscape:locked="true"
       id="guide1274" /><sodipodi:guide
       position="0,0"
       orientation="-562,0"
       inkscape:locked="true"
       id="guide1276" /><sodipodi:guide
       position="21.201605,127.26459"
       orientation="0,1"
       id="guide2557"
       inkscape:label=""
       inkscape:locked="true"
       inkscape:color="rgb(0,0,255)" /><sodipodi:guide
       position="-33.82728,21.43125"
       orientation="0,1"
       id="guide2559"
       inkscape:label=""
       inkscape:locked="true"
       inkscape:color="rgb(0,0,255)" /><sodipodi:guide
       position="39.687501,148.69584"
       orientation="-1,0"
       id="guide2561"
       inkscape:label=""
       inkscape:locked="true"
       inkscape:color="rgb(0,0,255)" /><sodipodi:guide
       position="224.89584,148.69584"
       orientation="-1,0"
       id="guide2563"
       inkscape:label=""
       inkscape:locked="true"
       inkscape:color="rgb(0,0,255)" /></sodipodi:namedview><metadata
     id="metadata5"><rdf:RDF><cc:Work
         rdf:about=""><dc:format>image/svg+xml</dc:format><dc:type
           rdf:resource="http://purl.org/dc/dcmitype/StillImage" /></cc:Work></rdf:RDF></metadata><g
     inkscape:label="Layer 1"
     inkscape:groupmode="layer"
     id="layer1"><rect
       style="opacity:0.98;fill:url(#radialGradient849);fill-opacity:1;stroke-width:1.61952"
       id="background"
       width="264.58334"
       height="148.69583"
       x="-5.0862632e-06"
       y="-4.7961635e-14" /><g
       transform="matrix(3.410759,0,0,3.410759,-367.91239,-237.33049)"
       id="logo"><path
         d="m 164.94335,92.926295 c 0,1.005064 -0.81492,1.819628 -1.81963,1.819628 -1.00507,0 -1.81963,-0.814564 -1.81963,-1.819628 0,-1.005064 0.81456,-1.819628 1.81963,-1.819628 1.00471,0 1.81963,0.814564 1.81963,1.819628"
         style="fill:#8c1eaa;fill-opacity:1;fill-rule:nonzero;stroke:none;stroke-width:0.352778"
         id="path7212"
         inkscape:connector-curvature="0" /><path
         d="m 172.56183,86.641382 v 6.030736 h 1.24354 v 1.648531 h -1.24354 v 1.93675 h -1.85456 v -1.93675 h -4.32364 v -1.470378 l 4.07,-6.208889 z m -1.85456,6.030736 v -3.407833 l -2.23237,3.407833 z"
         style="fill:#232323;fill-opacity:1;fill-rule:nonzero;stroke:none;stroke-width:0.352778"
         id="path7216"
         inkscape:connector-curvature="0" /><path
         d="m 138.60834,96.257505 v -6.662561 h 1.71732 v 0.535869 c 0.508,-0.412044 1.14018,-0.6731 1.88172,-0.6731 0.9204,0 1.75825,0.412398 2.30787,1.071386 0.43956,0.522112 0.68686,1.195212 0.68686,2.335389 v 3.393017 h -1.78576 v -3.530247 c 0,-0.659342 -0.15134,-1.002947 -0.39829,-1.250245 -0.23389,-0.233539 -0.5909,-0.371122 -1.00294,-0.371122 -0.75565,0 -1.37372,0.481189 -1.62102,0.824442 v 4.327172 z"
         style="fill:#232323;fill-opacity:1;fill-rule:nonzero;stroke:none;stroke-width:0.352778"
         id="path7220"
         inkscape:connector-curvature="0" /><path
         d="m 157.78958,92.067775 c -0.055,-0.59055 -0.59055,-1.167695 -1.31869,-1.167695 -0.74189,0 -1.3462,0.563387 -1.42875,1.167695 z m 1.66229,3.131961 c -0.64559,0.769408 -1.70357,1.195211 -2.73368,1.195211 -1.99178,0 -3.48932,-1.373717 -3.48932,-3.461808 0,-1.854553 1.264,-3.475214 3.24202,-3.475214 1.8408,0 3.14572,1.551869 3.14572,3.406422 0,0.178858 -0.0138,0.357364 -0.0413,0.508353 h -4.61539 c 0.096,0.934155 0.85161,1.579739 1.79952,1.579739 0.7553,0 1.35996,-0.425803 1.67569,-0.769056 z"
         style="fill:#232323;fill-opacity:1;fill-rule:nonzero;stroke:none;stroke-width:0.352778"
         id="path7224"
         inkscape:connector-curvature="0" /><path
         d="m 135.37013,91.930475 c -0.37077,-0.494595 -0.96168,-0.824089 -1.64854,-0.824089 -1.04386,0 -1.71696,0.865364 -1.71696,1.826683 0,1.044222 0.75565,1.813278 1.75824,1.813278 0.6731,0 1.26365,-0.329495 1.60726,-0.824089 z m 1.78576,4.327172 h -1.71697 v -0.53587 c -0.54963,0.467078 -1.18146,0.6731 -1.85456,0.6731 -0.98918,0 -1.92334,-0.439561 -2.51389,-1.126419 -0.52211,-0.604309 -0.85161,-1.428397 -0.85161,-2.335389 0,-1.964267 1.45592,-3.475214 3.26955,-3.475214 0.7553,0 1.4284,0.246945 1.95051,0.6731 v -0.535869 h 1.71697 z"
         style="fill:#232323;fill-opacity:1;fill-rule:nonzero;stroke:none;stroke-width:0.352778"
         id="path7228"
         inkscape:connector-curvature="0" /><path
         d="m 152.82021,94.897584 c -0.78317,1.043869 -1.77201,1.497188 -3.02225,1.497188 -2.06058,0 -3.57152,-1.538463 -3.57152,-3.461455 0,-1.937103 1.55222,-3.475567 3.58528,-3.475567 1.15393,0 2.1844,0.53587 2.80246,1.332442 l -1.264,1.112661 c -0.35701,-0.467078 -0.89288,-0.796925 -1.53846,-0.796925 -1.03011,0 -1.79952,0.810683 -1.79952,1.827389 0,1.043869 0.75565,1.812925 1.84079,1.812925 0.72813,0 1.30493,-0.439208 1.5935,-0.87877 z"
         style="fill:#232323;fill-opacity:1;fill-rule:nonzero;stroke:none;stroke-width:0.352778"
         id="path7232"
         inkscape:connector-curvature="0" /><path
         d="m 129.94426,91.17479 c -0.12382,-0.04127 -0.38453,-0.06879 -0.64558,-0.06879 -0.78317,0 -1.40123,0.563386 -1.62102,0.961672 v 4.189942 h -1.78576 v -6.662561 h 1.71697 v 0.6731 c 0.39864,-0.494594 1.12642,-0.81033 1.93711,-0.81033 0.2607,0 0.41204,0.02716 0.6043,0.05503 z"
         style="fill:#232323;fill-opacity:1;fill-rule:nonzero;stroke:none;stroke-width:0.352778"
         id="path7236"
         inkscape:connector-curvature="0" /><path
         d="m 124.79265,88.015488 c -0.15099,-0.04127 -0.37077,-0.06879 -0.53587,-0.06879 -0.43956,0 -0.78282,0.123825 -1.0026,0.384881 -0.15134,0.191911 -0.24729,0.439561 -0.24729,1.057627 v 0.206023 h 2.06057 v 1.510947 h -2.06057 v 5.151261 h -1.78577 v -5.151261 h -1.71696 v -1.510947 h 1.71696 v -0.274814 c 0,-1.071386 0.2473,-1.71697 0.71438,-2.170642 0.46708,-0.452966 1.16734,-0.782814 2.07433,-0.782814 0.35701,0 0.68686,0.02752 1.05763,0.123825 z"
         style="fill:#232323;fill-opacity:1;fill-rule:nonzero;stroke:none;stroke-width:0.352778"
         id="path7240"
         inkscape:connector-curvature="0" /></g><path
       id="border"
       style="fill:#8c1eaa;fill-opacity:1;opacity:0.98;stroke-width:85.9894"
       d="M 40 25 A 15 16 0 0 0 25 41 L 25 521 A 15 16 0 0 0 40 537 L 960 537 A 15 16 0 0 0 975 521 L 975 41 A 15 16 0 0 0 960 25 L 40 25 z M 52.5 37.5 L 947.5 37.5 A 15 16 0 0 1 962.5 53.5 L 962.5 508.5 A 15 16 0 0 1 947.5 524.5 L 52.5 524.5 A 15 16 0 0 1 37.5 508.5 L 37.5 53.5 A 15 16 0 0 1 52.5 37.5 z "
       transform="scale(0.26458333)" /></g></svg>
