<svg width="800" height="310" viewBox="0 0 211.667 82.021" xmlns="http://www.w3.org/2000/svg">
    <path d="M950.2-164.8H999V-188h-58.7c-31.6 0-44.6 17.7-44.6 45.4v2.7c-5.3-32.6-24.7-48.1-60.2-48.1H776c-24-48-73.5-81-130.9-81-80.6 0-146.1 65.5-146.1 146.2 0 80.7 65.5 146.1 146.1 146.1 57 0 106.3-32.5 130.4-80h60.7c14.5 0 27.6-.9 40.9-11.5 9.6-7.6 15.6-18.4 18.4-32.5v43.8h27.8v-51.5H989v-22.9h-65.8l.4-9.3c.1-15.1 4.7-24.2 26.6-24.2zM834.9-79.9h-30.7v-84.9h30.7c24.1 0 32.8 10.3 32.8 42.5 0 32.1-8.6 42.4-32.8 42.4z" style="fill:#fa7d19" transform="translate(-104.34 75.483) scale(.2806)"/>
    <path d="M709.8-133.7H728c14.4 0 22.9-2.9 22.9-15.1 0-12.6-8.5-16.1-23.3-16.1h-61.5V-188h71.6c36.3 0 41.5 25.4 41.5 39.6 0 15.1-6.2 39-41.5 39h-17.6c-22 0-26.7 7.9-26.7 23v7h82.2V-57H665.3v-32.5c0-27.8 13-44.2 44.5-44.2z" style="fill:#fff" transform="translate(-104.34 75.483) scale(.2806)"/>
</svg>
