<?xml version="1.0" encoding="UTF-8" standalone="no"?>
<!-- Created with Inkscape (http://www.inkscape.org/) -->

<svg
   width="800"
   height="310"
   viewBox="0 0 211.66667 82.020831"
   version="1.1"
   id="svg1100"
   inkscape:version="1.1.2 (0a00cf5339, 2022-02-04, custom)"
   sodipodi:docname="logo.svg"
   xmlns:inkscape="http://www.inkscape.org/namespaces/inkscape"
   xmlns:sodipodi="http://sodipodi.sourceforge.net/DTD/sodipodi-0.dtd"
   xmlns="http://www.w3.org/2000/svg"
   xmlns:svg="http://www.w3.org/2000/svg">
  <sodipodi:namedview
     id="namedview1102"
     pagecolor="#ffffff"
     bordercolor="#666666"
     borderopacity="1.0"
     inkscape:pageshadow="2"
     inkscape:pageopacity="0.0"
     inkscape:pagecheckerboard="0"
     inkscape:document-units="px"
     showgrid="false"
     units="px"
     inkscape:zoom="0.52347032"
     inkscape:cx="1332.4538"
     inkscape:cy="341.94871"
     inkscape:window-width="1920"
     inkscape:window-height="1017"
     inkscape:window-x="-8"
     inkscape:window-y="-8"
     inkscape:window-maximized="1"
     inkscape:current-layer="layer1" />
  <defs
     id="defs1097" />
  <g
     inkscape:label="Ebene 1"
     inkscape:groupmode="layer"
     id="layer1">
    <g
       id="g3837"
       transform="matrix(0.28060497,0,0,0.28060497,-99.492565,76.324552)">
      <g
         id="Ebene_13"
         class="st0"
         transform="translate(-3,-3)">
	<rect
   x="496"
   y="-272"
   class="st1"
   width="1024"
   height="576"
   id="rect4" />

</g>
      <g
         id="ZDFsport_x5F_de"
         transform="translate(-3,-3)">
	<g
   id="g13">
		<path
   class="st2"
   d="M 950.2,-164.8 H 999 V -188 h -58.7 c -31.6,0 -44.6,17.7 -44.6,45.4 v 2.7 C 890.4,-172.5 871,-188 835.5,-188 H 776 c -24,-48 -73.5,-81 -130.9,-81 -80.6,0 -146.1,65.5 -146.1,146.2 0,80.7 65.5,146.1 146.1,146.1 57,0 106.3,-32.5 130.4,-80 h 60.7 c 14.5,0 27.6,-0.9 40.9,-11.5 9.6,-7.6 15.6,-18.4 18.4,-32.5 v 43.8 h 27.8 v -51.5 H 989 v -22.9 h -65.8 l 0.4,-9.3 c 0.1,-15.1 4.7,-24.2 26.6,-24.2 z m -115.3,84.9 h -30.7 v -84.9 h 30.7 c 24.1,0 32.8,10.3 32.8,42.5 0,32.1 -8.6,42.4 -32.8,42.4 z"
   id="path7" />

		<g
   id="g11">
			<path
   class="st3"
   d="M 709.8,-133.7 H 728 c 14.4,0 22.9,-2.9 22.9,-15.1 0,-12.6 -8.5,-16.1 -23.3,-16.1 H 666.1 V -188 h 71.6 c 36.3,0 41.5,25.4 41.5,39.6 0,15.1 -6.2,39 -41.5,39 h -17.6 c -22,0 -26.7,7.9 -26.7,23 v 7 h 82.2 V -57 H 665.3 v -32.5 c 0,-27.8 13,-44.2 44.5,-44.2 z"
   id="path9" />

		</g>

	</g>

</g>
    </g>
  </g>
  <style
     type="text/css"
     id="style2">
	.st0{display:none;}
	.st1{display:inline;fill:#7D7D7D;}
	.st2{fill:#FA7D19;}
	.st3{fill:#FFFFFF;}
</style>
</svg>
