<?xml version="1.0" encoding="UTF-8" standalone="no"?>
<svg
   width="1000"
   height="1500"
   viewBox="0 0 264.58333 396.87501"
   version="1.1"
   id="svg8"
   inkscape:version="1.1.2 (0a00cf5339, 2022-02-04, custom)"
   sodipodi:docname="primary.svg"
   xmlns:inkscape="http://www.inkscape.org/namespaces/inkscape"
   xmlns:sodipodi="http://sodipodi.sourceforge.net/DTD/sodipodi-0.dtd"
   xmlns:xlink="http://www.w3.org/1999/xlink"
   xmlns="http://www.w3.org/2000/svg"
   xmlns:svg="http://www.w3.org/2000/svg"
   xmlns:rdf="http://www.w3.org/1999/02/22-rdf-syntax-ns#"
   xmlns:cc="http://creativecommons.org/ns#"
   xmlns:dc="http://purl.org/dc/elements/1.1/">
  <defs
     id="defs2">
    <inkscape:path-effect
       effect="fillet_chamfer"
       id="path-effect3429"
       is_visible="true"
       lpeversion="1"
       satellites_param="F,0,0,1,0,6.6145833,0,1 @ F,0,0,1,0,6.6145833,0,1 @ F,0,0,1,0,6.6145833,0,1 @ F,0,0,1,0,6.6145833,0,1"
       unit="px"
       method="auto"
       mode="F"
       radius="25"
       chamfer_steps="1"
       flexible="false"
       use_knot_distance="true"
       apply_no_radius="true"
       apply_with_radius="true"
       only_selected="false"
       hide_knots="false" />
    <inkscape:path-effect
       effect="fillet_chamfer"
       id="path-effect3427"
       is_visible="true"
       lpeversion="1"
       satellites_param="F,1,0,1,0,0.03,0,1 @ F,1,0,1,0,0.03,0,1 @ F,1,0,1,0,0.03,0,1 @ F,1,0,1,0,0.03,0,1"
       unit="px"
       method="auto"
       mode="F"
       radius="15"
       chamfer_steps="1"
       flexible="false"
       use_knot_distance="true"
       apply_no_radius="true"
       apply_with_radius="true"
       only_selected="false"
       hide_knots="false" />
    <inkscape:path-effect
       effect="fillet_chamfer"
       id="path-effect1210"
       is_visible="true"
       lpeversion="1"
       satellites_param="F,1,0,1,0,0.02,0,1 @ F,1,0,1,0,0.02,0,1 @ F,1,0,1,0,0.02,0,1 @ F,1,0,1,0,0.02,0,1"
       unit="px"
       method="auto"
       mode="F"
       radius="2"
       chamfer_steps="1"
       flexible="true"
       use_knot_distance="true"
       apply_no_radius="true"
       apply_with_radius="true"
       only_selected="false"
       hide_knots="false" />
    <inkscape:path-effect
       effect="fillet_chamfer"
       id="path-effect1191"
       is_visible="true"
       lpeversion="1"
       satellites_param="F,1,0,1,0,0.03,0,1 @ F,1,0,1,0,0.03,0,1 @ F,1,0,1,0,0.03,0,1 @ F,1,0,1,0,0.03,0,1"
       unit="px"
       method="auto"
       mode="F"
       radius="3"
       chamfer_steps="1"
       flexible="true"
       use_knot_distance="true"
       apply_no_radius="true"
       apply_with_radius="true"
       only_selected="false"
       hide_knots="false" />
    <linearGradient
       inkscape:collect="always"
       id="linearGradient847">
      <stop
         style="stop-color:#282828;stop-opacity:1"
         offset="0"
         id="stop843" />
      <stop
         style="stop-color:#191919;stop-opacity:1"
         offset="1"
         id="stop845" />
    </linearGradient>
    <radialGradient
       inkscape:collect="always"
       xlink:href="#linearGradient847"
       id="radialGradient849"
       cx="26.375103"
       cy="97.113945"
       fx="26.375103"
       fy="97.113945"
       r="132.29167"
       gradientTransform="matrix(0,3.0734875,-2.0099162,0,221.56598,-34.611386)"
       gradientUnits="userSpaceOnUse" />
  </defs>
  <sodipodi:namedview
     id="base"
     pagecolor="#757575"
     bordercolor="#666666"
     borderopacity="1.0"
     inkscape:pageopacity="1"
     inkscape:pageshadow="2"
     inkscape:zoom="0.50181065"
     inkscape:cx="95.65361"
     inkscape:cy="795.12063"
     inkscape:document-units="mm"
     inkscape:current-layer="layer1"
     inkscape:document-rotation="0"
     showgrid="false"
     units="px"
     inkscape:showpageshadow="false"
     inkscape:pagecheckerboard="false"
     inkscape:lockguides="true"
     inkscape:window-width="960"
     inkscape:window-height="1017"
     inkscape:window-x="-8"
     inkscape:window-y="-8"
     inkscape:window-maximized="0"
     showguides="true"
     inkscape:guide-bbox="true">
    <sodipodi:guide
       position="0,396.875"
       orientation="0,1000"
       inkscape:locked="true"
       id="guide833" />
    <sodipodi:guide
       position="264.58333,396.875"
       orientation="1500,0"
       inkscape:locked="true"
       id="guide835" />
    <sodipodi:guide
       position="264.58333,0"
       orientation="0,-1000"
       inkscape:locked="true"
       id="guide837" />
    <sodipodi:guide
       position="0,0"
       orientation="-1500,0"
       inkscape:locked="true"
       id="guide839" />
    <sodipodi:guide
       position="275.56944,291.04167"
       orientation="0,1"
       id="guide1075"
       inkscape:label=""
       inkscape:locked="true"
       inkscape:color="rgb(0,0,255)" />
    <sodipodi:guide
       position="323.19316,105.83333"
       orientation="0,1"
       id="guide1077"
       inkscape:label=""
       inkscape:locked="true"
       inkscape:color="rgb(0,0,255)" />
    <sodipodi:guide
       position="39.6875,280.99221"
       orientation="-1,0"
       id="guide1079"
       inkscape:label=""
       inkscape:locked="true"
       inkscape:color="rgb(0,0,255)" />
    <sodipodi:guide
       position="224.89583,283.67412"
       orientation="-1,0"
       id="guide1081"
       inkscape:label=""
       inkscape:locked="true"
       inkscape:color="rgb(0,0,255)" />
  </sodipodi:namedview>
  <metadata
     id="metadata5">
    <rdf:RDF>
      <cc:Work
         rdf:about="">
        <dc:format>image/svg+xml</dc:format>
        <dc:type
           rdf:resource="http://purl.org/dc/dcmitype/StillImage" />
      </cc:Work>
    </rdf:RDF>
  </metadata>
  <g
     inkscape:label="Layer 1"
     inkscape:groupmode="layer"
     id="layer1">
    <rect
       style="opacity:0.98;fill:url(#radialGradient849);fill-opacity:1;stroke-width:2.64583"
       id="rect841"
       width="264.58334"
       height="396.875"
       x="-5.0862632e-06"
       y="-4.7961635e-14" />
    <path
       id="rect3410"
       style="opacity:0.98;fill:#fa7d19;fill-opacity:1;stroke-width:46.3438"
       d="M 49.832031 25 A 25 25 0 0 0 25 50 L 25 1450 A 25 25 0 0 0 50 1475 L 950 1475 A 25 25 0 0 0 975 1450 L 975 50 A 25 25 0 0 0 950 25 L 50 25 A 25 25 0 0 0 49.832031 25 z M 73.542969 50 A 23.68421 24.137931 0 0 1 73.683594 50 L 926.31641 50 A 23.68421 24.137931 0 0 1 950 74.138672 L 950 1425.8613 A 23.68421 24.137931 0 0 1 926.31641 1450 L 73.683594 1450 A 23.68421 24.137931 0 0 1 50 1425.8613 L 50 74.138672 A 23.68421 24.137931 0 0 1 73.542969 50 z "
       transform="scale(0.26458333)" />
    <g
       id="g2850"
       transform="matrix(0.37,0,0,0.37000139,-142.75403,245.64038)">
      <g
         id="Ebene_13"
         class="st0"
         transform="translate(-3,-3)">
	<rect
   x="496"
   y="-272"
   class="st1"
   width="1024"
   height="576"
   id="rect4" />

</g>
      <g
         id="ZDFsport_x5F_de"
         transform="translate(-3,-3)">
	<g
   id="g13">
		<path
   class="st2"
   d="M 950.2,-164.8 H 999 V -188 h -58.7 c -31.6,0 -44.6,17.7 -44.6,45.4 v 2.7 C 890.4,-172.5 871,-188 835.5,-188 H 776 c -24,-48 -73.5,-81 -130.9,-81 -80.6,0 -146.1,65.5 -146.1,146.2 0,80.7 65.5,146.1 146.1,146.1 57,0 106.3,-32.5 130.4,-80 h 60.7 c 14.5,0 27.6,-0.9 40.9,-11.5 9.6,-7.6 15.6,-18.4 18.4,-32.5 v 43.8 h 27.8 v -51.5 H 989 v -22.9 h -65.8 l 0.4,-9.3 c 0.1,-15.1 4.7,-24.2 26.6,-24.2 z m -115.3,84.9 h -30.7 v -84.9 h 30.7 c 24.1,0 32.8,10.3 32.8,42.5 0,32.1 -8.6,42.4 -32.8,42.4 z"
   id="path7" />

		<g
   id="g11">
			<path
   class="st3"
   d="M 709.8,-133.7 H 728 c 14.4,0 22.9,-2.9 22.9,-15.1 0,-12.6 -8.5,-16.1 -23.3,-16.1 H 666.1 V -188 h 71.6 c 36.3,0 41.5,25.4 41.5,39.6 0,15.1 -6.2,39 -41.5,39 h -17.6 c -22,0 -26.7,7.9 -26.7,23 v 7 h 82.2 V -57 H 665.3 v -32.5 c 0,-27.8 13,-44.2 44.5,-44.2 z"
   id="path9" />

		</g>

	</g>

</g>
    </g>
  </g>
  <style
     type="text/css"
     id="style2">
	.st0{display:none;}
	.st1{display:inline;fill:#7D7D7D;}
	.st2{fill:#FA7D19;}
	.st3{fill:#FFFFFF;}
</style>
</svg>
