<?xml version="1.0" encoding="UTF-8" standalone="no"?>
<!-- Created with Inkscape (http://www.inkscape.org/) -->

<svg
   width="800"
   height="310"
   viewBox="0 0 211.66667 82.020831"
   version="1.1"
   id="svg1100"
   inkscape:version="1.1.2 (0a00cf5339, 2022-02-04, custom)"
   sodipodi:docname="logo.svg"
   xmlns:inkscape="http://www.inkscape.org/namespaces/inkscape"
   xmlns:sodipodi="http://sodipodi.sourceforge.net/DTD/sodipodi-0.dtd"
   xmlns="http://www.w3.org/2000/svg"
   xmlns:svg="http://www.w3.org/2000/svg">
  <sodipodi:namedview
     id="namedview1102"
     pagecolor="#ffffff"
     bordercolor="#666666"
     borderopacity="1.0"
     inkscape:pageshadow="2"
     inkscape:pageopacity="0.0"
     inkscape:pagecheckerboard="0"
     inkscape:document-units="px"
     showgrid="false"
     units="px"
     inkscape:zoom="0.52347032"
     inkscape:cx="1332.4538"
     inkscape:cy="341.94871"
     inkscape:window-width="1920"
     inkscape:window-height="1017"
     inkscape:window-x="-8"
     inkscape:window-y="-8"
     inkscape:window-maximized="1"
     inkscape:current-layer="layer1" />
  <defs
     id="defs1097" />
  <g
     inkscape:label="Ebene 1"
     inkscape:groupmode="layer"
     id="layer1">
    <path
       id="path3054"
       d="M 29.110316,11.919158 A 30.001894,30.001894 0 0 0 7.7302512e-7,41.914612 30.001894,30.001894 0 0 0 59.990907,41.914612 30.001894,30.001894 0 0 0 29.109031,11.919158 Z m 12.843895,12.19969 V 53.873369 L 21.943929,61.201197 V 38.733916 l -9.743596,3.422276 v -7.327829 l 29.754521,-10.7099 z m 147.084779,5.274492 -4.75101,1.248147 v 5.676987 h -3.1405 v 3.623647 h 3.18082 v 9.34097 c 0,4.286149 1.29047,5.757642 5.35489,5.757642 1.29331,0 2.64253,-0.187576 3.82503,-0.483159 v -3.825029 c -0.66509,0.184751 -1.51903,0.322123 -2.29491,0.322123 -1.62572,0 -2.17419,-0.695201 -2.17419,-3.059975 v -8.052557 h 4.46923 v -3.623647 h -4.46923 V 29.393286 Z M 82.423137,29.554378 c -3.066802,0 -6.094175,0.127436 -8.052557,0.201308 V 54.63744 c 2.106165,0.07392 4.33872,0.161037 6.925201,0.161037 8.128956,0 13.770513,-4.472839 13.770513,-13.045141 0,-8.757058 -4.920046,-12.199689 -12.642514,-12.199689 z m 56.528943,0.161036 V 54.67834 h 13.56824 v -4.106808 h -8.73696 v -6.764145 h 8.29413 v -3.905425 h -8.29413 v -6.160143 h 8.73696 V 29.715541 H 138.95208 Z M 80.490523,33.62084 c 0.494194,-0.0185 1.056265,0 1.610511,0 5.690257,0 7.770652,3.177988 7.770652,8.535707 0,5.911993 -3.400241,8.535712 -8.092756,8.535712 -0.96069,0 -1.951935,-0.05021 -2.617013,-0.161037 V 33.70202 c 0.387959,-0.03701 0.834476,-0.06204 1.328606,-0.08054 z m 24.399887,2.254711 c -2.36474,0 -4.75564,0.502536 -6.60309,1.167623 l 0.442887,3.945756 c 1.551893,-0.88679 3.732523,-1.449465 5.395213,-1.449465 2.6603,0 3.58333,1.017805 3.58333,2.939122 v 1.006571 c -6.24454,0 -10.589184,2.326864 -10.589184,6.723947 0,2.955998 1.90865,4.831536 5.234164,4.831536 2.73426,0 4.99155,-1.433745 5.87837,-3.502931 l 0.0404,0.04042 c -0.14779,0.960689 -0.16104,2.028729 -0.16104,3.100173 h 4.46923 c -0.074,-1.515029 -0.12072,-3.273194 -0.12072,-4.751125 v -7.649941 c 0,-3.99059 -1.65741,-6.401844 -7.5694,-6.401844 z m 18.76182,0 c -5.17297,0 -7.81099,2.663787 -7.81099,5.878369 0,6.244533 7.40836,4.398368 7.40836,7.649927 0,1.219337 -1.16892,1.972812 -2.97945,1.972812 -1.4041,0 -2.80036,-0.26807 -3.94575,-0.563679 l -0.12072,3.905426 c 1.18239,0.184752 2.53508,0.322123 3.86523,0.322123 5.02518,0 8.17341,-2.458669 8.17341,-6.079745 0,-5.948842 -7.5292,-4.616754 -7.5292,-7.609602 0,-1.145432 0.89039,-1.892415 2.73787,-1.892415 1.14543,0 2.34748,0.187576 3.38207,0.48316 l 0.16104,-3.704176 c -1.10848,-0.184752 -2.2703,-0.362346 -3.34187,-0.362346 z m 42.79966,0 c -3.17774,-0.258671 -4.95136,1.779038 -5.83805,4.106808 h -0.0805 c 0.22171,-1.29318 0.32212,-2.74019 0.32212,-3.663977 h -4.46923 v 18.359826 h 4.71068 v -7.529205 c 0,-5.099007 1.71397,-7.30515 5.11344,-6.603098 l 0.24158,-4.67048 z m 9.09939,0 c -5.17297,0 -7.81098,2.663787 -7.81098,5.878369 0,6.244533 7.44854,4.398368 7.44854,7.649927 0,1.219337 -1.20918,1.972812 -3.01977,1.972812 -1.40411,0 -2.80035,-0.26807 -3.94575,-0.563679 l -0.12071,3.905426 c 1.18238,0.184752 2.53507,0.322123 3.86522,0.322123 5.02519,0 8.21361,-2.458669 8.21361,-6.079745 0,-5.948842 -7.56941,-4.616754 -7.56941,-7.609602 0,-1.145432 0.8904,-1.892415 2.73788,-1.892415 1.14543,0 2.38768,0.187576 3.42227,0.48316 l 0.12072,-3.704176 c -1.10849,-0.184752 -2.27031,-0.362346 -3.34188,-0.362346 z m 28.38493,0 c -5.50549,0 -8.61624,4.167492 -8.61624,9.783922 0,6.466142 3.26136,9.381168 9.0994,9.381168 2.29092,0 4.60451,-0.431932 6.5629,-1.207884 l -0.44289,-3.623652 c -1.58887,0.738992 -3.54441,1.127355 -5.35489,1.127355 -3.39933,0 -5.11008,-1.677122 -5.0731,-5.113436 h 11.39443 c 0.11078,-0.775942 0.16104,-1.505761 0.16104,-2.133864 0,-4.544733 -2.37274,-8.213609 -7.73046,-8.213609 z m -0.16103,3.502931 c 1.99522,0 3.25464,1.373056 3.18082,3.663978 h -6.76416 c 0.2577,-2.218643 1.6234,-3.665527 3.58178,-3.665527 z m -96.06637,7.166772 v 0.442888 c 0,2.216967 -1.57766,4.428905 -3.90543,4.428905 -1.36713,0 -2.17419,-0.790489 -2.17419,-1.972812 0,-1.477931 1.09149,-2.898918 6.07975,-2.898918 z"
       fill-rule="evenodd"
       fill="#001a4b"
       style="stroke-width:1.28841;fill:#003480;fill-opacity:1" />
  </g>
</svg>
