<svg width="800" height="310" viewBox="0 0 211.667 82.021" xmlns="http://www.w3.org/2000/svg">
    <path d="M29.11 11.329A30.002 30.002 0 0 0 0 41.324a30.002 30.002 0 0 0 59.99 0A30.002 30.002 0 0 0 29.11 11.33Zm12.844 12.2v29.754l-20.01 7.328V38.144L12.2 41.566v-7.328l29.755-10.71Zm147.085 5.274-4.751 1.248v5.677h-3.14v3.624h3.18v9.34c0 4.287 1.29 5.759 5.355 5.759 1.293 0 2.643-.188 3.825-.484v-3.825a9.064 9.064 0 0 1-2.295.322c-1.625 0-2.174-.695-2.174-3.06v-8.052h4.47v-3.624h-4.47v-6.925Zm-106.616.161c-3.067 0-6.094.128-8.052.201v24.882c2.106.074 4.338.161 6.925.161 8.129 0 13.77-4.472 13.77-13.045 0-8.757-4.92-12.2-12.642-12.2zm56.529.162v24.962h13.568v-4.106h-8.737v-6.765h8.294v-3.905h-8.294v-6.16h8.737v-4.027h-13.568zM80.491 33.03c.494-.02 1.056 0 1.61 0 5.69 0 7.77 3.178 7.77 8.536 0 5.912-3.4 8.535-8.092 8.535-.96 0-1.952-.05-2.617-.16v-16.83a21.5 21.5 0 0 1 1.329-.08zm24.4 2.255c-2.365 0-4.756.502-6.604 1.167l.443 3.946c1.552-.887 3.733-1.45 5.395-1.45 2.66 0 3.584 1.018 3.584 2.94v1.006c-6.245 0-10.59 2.327-10.59 6.724 0 2.956 1.91 4.832 5.235 4.832 2.734 0 4.991-1.434 5.878-3.503l.04.039c-.147.96-.16 2.028-.16 3.1h4.469a103.097 103.097 0 0 1-.121-4.751v-7.65c0-3.99-1.657-6.402-7.57-6.402zm18.761 0c-5.173 0-7.81 2.663-7.81 5.878 0 6.245 7.408 4.398 7.408 7.65 0 1.22-1.17 1.973-2.98 1.973-1.404 0-2.8-.268-3.946-.564l-.12 3.906a25.65 25.65 0 0 0 3.865.321c5.025 0 8.173-2.458 8.173-6.08 0-5.948-7.529-4.616-7.529-7.609 0-1.145.89-1.892 2.738-1.892 1.145 0 2.347.187 3.382.483l.161-3.704c-1.108-.185-2.27-.363-3.342-.363zm42.8 0c-3.178-.259-4.952 1.779-5.838 4.106h-.08c.221-1.293.322-2.74.322-3.664h-4.47v18.36h4.711V46.56c0-5.099 1.714-7.305 5.114-6.603l.241-4.67zm9.1 0c-5.174 0-7.812 2.663-7.812 5.878 0 6.245 7.449 4.398 7.449 7.65 0 1.22-1.21 1.973-3.02 1.973-1.404 0-2.8-.268-3.946-.564l-.12 3.906a25.65 25.65 0 0 0 3.865.321c5.025 0 8.213-2.458 8.213-6.08 0-5.948-7.569-4.616-7.569-7.609 0-1.145.89-1.892 2.738-1.892 1.145 0 2.387.187 3.422.483l.12-3.704c-1.108-.185-2.27-.363-3.341-.363zm28.384 0c-5.505 0-8.616 4.167-8.616 9.784 0 6.466 3.261 9.38 9.1 9.38 2.29 0 4.604-.431 6.562-1.207l-.443-3.624c-1.589.74-3.544 1.128-5.355 1.128-3.4 0-5.11-1.678-5.073-5.114h11.394a15.31 15.31 0 0 0 .162-2.134c0-4.544-2.373-8.213-7.73-8.213zm-.161 3.503c1.995 0 3.255 1.373 3.18 3.664h-6.763c.257-2.22 1.623-3.666 3.581-3.666zm-96.066 7.166v.443c0 2.217-1.578 4.43-3.906 4.43-1.367 0-2.174-.791-2.174-1.973 0-1.478 1.092-2.9 6.08-2.9z" fill-rule="evenodd" fill="#001a4b" style="stroke-width:1.28841"/>
</svg>
