<svg width="1000" height="1500" viewBox="0 0 264.583 396.875" version="1.1" id="svg8" xmlns="http://www.w3.org/2000/svg">
    <g id="layer1">
        <path style="opacity:.98;fill:#fff;fill-opacity:1;stroke-width:2.64583" id="rect841" d="M0 0h264.583v396.875H0z"/>
        <path id="rect3410" style="opacity:.98;fill:#001a4b;fill-opacity:1;stroke-width:46.3438" d="M49.832 25A25 25 0 0 0 25 50v1400a25 25 0 0 0 25 25h900a25 25 0 0 0 25-25V50a25 25 0 0 0-25-25H50a25 25 0 0 0-.168 0zm23.711 25a23.684 24.138 0 0 1 .14 0h852.633A23.684 24.138 0 0 1 950 74.139V1425.86a23.684 24.138 0 0 1-23.684 24.14H73.684A23.684 24.138 0 0 1 50 1425.861V74.14A23.684 24.138 0 0 1 73.543 50z" transform="scale(.26458)"/>
        <path id="path3054-4" d="M65.235 172.495a26.222 26.222 0 0 0-25.443 26.217 26.222 26.222 0 0 0 52.433 0 26.222 26.222 0 0 0-26.992-26.217zm11.225 10.663v26.006l-17.489 6.405v-19.637l-8.516 2.991v-6.405l26.006-9.36zm128.555 4.61-4.153 1.091v4.962h-2.745v3.167h2.78v8.164c0 3.746 1.128 5.032 4.68 5.032 1.131 0 2.31-.163 3.344-.422v-3.343a7.922 7.922 0 0 1-2.006.281c-1.42 0-1.9-.607-1.9-2.674v-7.038h3.906v-3.167h-3.906v-6.053zm-93.184.141c-2.68 0-5.327.112-7.038.176v21.747c1.84.065 3.792.14 6.052.14 7.105 0 12.036-3.909 12.036-11.4 0-7.655-4.3-10.664-11.05-10.664zm49.407.14v21.819h11.859v-3.59h-7.636v-5.911h7.249v-3.414h-7.25v-5.384h7.637v-3.52h-11.86zm-51.096 3.414c.432-.017.923 0 1.407 0 4.974 0 6.792 2.778 6.792 7.46 0 5.168-2.972 7.461-7.073 7.461-.84 0-1.706-.044-2.288-.14v-14.71c.34-.034.73-.054 1.162-.07zm21.326 1.971c-2.067 0-4.157.44-5.772 1.02l.387 3.45c1.357-.776 3.263-1.268 4.716-1.268 2.325 0 3.132.89 3.132 2.57v.879c-5.458 0-9.255 2.034-9.255 5.877 0 2.583 1.668 4.223 4.574 4.223 2.39 0 4.363-1.254 5.138-3.062l.035.034c-.129.84-.14 1.773-.14 2.71h3.906a90.073 90.073 0 0 1-.106-4.153v-6.686c0-3.488-1.448-5.595-6.615-5.595zm16.398 0c-4.522 0-6.827 2.328-6.827 5.138 0 5.458 6.475 3.844 6.475 6.686 0 1.066-1.022 1.724-2.604 1.724-1.228 0-2.448-.234-3.449-.492l-.106 3.413a22.41 22.41 0 0 0 3.379.281c4.392 0 7.143-2.149 7.143-5.313 0-5.2-6.58-4.036-6.58-6.651 0-1.002.778-1.654 2.393-1.654 1 0 2.051.163 2.956.422l.14-3.238c-.968-.161-1.984-.316-2.92-.316zm37.407 0c-2.777-.226-4.327 1.555-5.102 3.59h-.07c.193-1.13.281-2.396.281-3.203h-3.906v16.047h4.117v-6.58c0-4.457 1.498-6.386 4.47-5.772l.21-4.082zm7.953 0c-4.521 0-6.827 2.328-6.827 5.138 0 5.458 6.51 3.844 6.51 6.686 0 1.066-1.056 1.724-2.639 1.724-1.227 0-2.447-.234-3.449-.492l-.105 3.413c1.033.161 2.216.281 3.378.281 4.392 0 7.179-2.149 7.179-5.313 0-5.2-6.616-4.036-6.616-6.651 0-1.002.778-1.654 2.393-1.654 1.001 0 2.087.163 2.991.422l.106-3.238c-.969-.161-1.984-.316-2.921-.316zm24.809 0c-4.812 0-7.53 3.642-7.53 8.551 0 5.652 2.85 8.2 7.952 8.2 2.003 0 4.025-.378 5.736-1.056l-.387-3.167c-1.389.646-3.098.985-4.68.985-2.971 0-4.466-1.466-4.434-4.47h9.959c.097-.677.14-1.315.14-1.864 0-3.972-2.073-7.179-6.756-7.179zm-.14 3.062c1.743 0 2.844 1.2 2.78 3.202h-5.913c.225-1.94 1.42-3.204 3.13-3.204zm-83.964 6.263v.388c0 1.937-1.38 3.87-3.414 3.87-1.195 0-1.9-.69-1.9-1.724 0-1.291.954-2.533 5.314-2.533z" fill-rule="evenodd" fill="#001a4b" style="stroke-width:1.12609"/>
    </g>
    <style type="text/css" id="style2">
        .st0{display:none}.st1{display:inline;fill:#7d7d7d}.st2{fill:#fa7d19}.st3{fill:#fff}
    </style>
</svg>
