<?xml version="1.0" encoding="UTF-8" standalone="no"?>
<svg
   width="1000"
   height="562"
   viewBox="0 0 264.58333 148.69584"
   version="1.1"
   id="svg8"
   inkscape:version="1.1.2 (0a00cf5339, 2022-02-04, custom)"
   sodipodi:docname="thumb.svg"
   xmlns:inkscape="http://www.inkscape.org/namespaces/inkscape"
   xmlns:sodipodi="http://sodipodi.sourceforge.net/DTD/sodipodi-0.dtd"
   xmlns:xlink="http://www.w3.org/1999/xlink"
   xmlns="http://www.w3.org/2000/svg"
   xmlns:svg="http://www.w3.org/2000/svg"
   xmlns:rdf="http://www.w3.org/1999/02/22-rdf-syntax-ns#"
   xmlns:cc="http://creativecommons.org/ns#"
   xmlns:dc="http://purl.org/dc/elements/1.1/">
  <defs
     id="defs2">
    <inkscape:path-effect
       effect="fillet_chamfer"
       id="path-effect2883"
       is_visible="true"
       lpeversion="1"
       satellites_param="F,0,0,1,0,5.2916667,0,1 @ F,0,0,1,0,5.2916667,0,1 @ F,0,0,1,0,5.2916667,0,1 @ F,0,0,1,0,5.2916667,0,1"
       unit="px"
       method="auto"
       mode="F"
       radius="20"
       chamfer_steps="1"
       flexible="false"
       use_knot_distance="true"
       apply_no_radius="true"
       apply_with_radius="true"
       only_selected="false"
       hide_knots="false" />
    <inkscape:path-effect
       effect="fillet_chamfer"
       id="path-effect2864"
       is_visible="true"
       lpeversion="1"
       satellites_param="F,0,0,1,0,5.2916667,0,1 @ F,0,0,1,0,5.2916667,0,1 @ F,0,0,1,0,5.2916667,0,1 @ F,0,0,1,0,5.2916667,0,1"
       unit="px"
       method="auto"
       mode="F"
       radius="20"
       chamfer_steps="1"
       flexible="false"
       use_knot_distance="true"
       apply_no_radius="true"
       apply_with_radius="true"
       only_selected="false"
       hide_knots="false" />
    <inkscape:path-effect
       effect="fillet_chamfer"
       id="path-effect2862"
       is_visible="true"
       lpeversion="1"
       satellites_param="F,0,0,1,0,0,0,1 @ F,0,0,1,0,0,0,1 @ F,0,0,1,0,0,0,1 @ F,0,0,1,0,0,0,1"
       unit="px"
       method="auto"
       mode="F"
       radius="0"
       chamfer_steps="1"
       flexible="false"
       use_knot_distance="true"
       apply_no_radius="true"
       apply_with_radius="true"
       only_selected="false"
       hide_knots="false" />
    <inkscape:path-effect
       effect="fillet_chamfer"
       id="path-effect1088"
       is_visible="true"
       lpeversion="1"
       satellites_param="F,0,0,1,0,5.2916667,0,1 @ F,0,0,1,0,5.2916667,0,1 @ F,0,0,1,0,5.2916667,0,1 @ F,0,0,1,0,5.2916667,0,1"
       unit="px"
       method="auto"
       mode="F"
       radius="20"
       chamfer_steps="1"
       flexible="false"
       use_knot_distance="true"
       apply_no_radius="true"
       apply_with_radius="true"
       only_selected="false"
       hide_knots="false" />
    <inkscape:path-effect
       effect="fillet_chamfer"
       id="path-effect1308"
       is_visible="true"
       lpeversion="1"
       satellites_param="F,1,0,1,0,0.04,0,1 @ F,1,0,1,0,0.04,0,1 @ F,1,0,1,0,0.04,0,1 @ F,1,0,1,0,0.04,0,1"
       unit="px"
       method="auto"
       mode="F"
       radius="4"
       chamfer_steps="1"
       flexible="true"
       use_knot_distance="true"
       apply_no_radius="true"
       apply_with_radius="true"
       only_selected="false"
       hide_knots="false" />
    <inkscape:path-effect
       effect="fillet_chamfer"
       id="path-effect1306"
       is_visible="true"
       lpeversion="1"
       satellites_param="F,1,0,1,0,0.03,0,1 @ F,1,0,1,0,0.03,0,1 @ F,1,0,1,0,0.03,0,1 @ F,1,0,1,0,0.03,0,1"
       unit="px"
       method="auto"
       mode="F"
       radius="3"
       chamfer_steps="1"
       flexible="true"
       use_knot_distance="true"
       apply_no_radius="true"
       apply_with_radius="true"
       only_selected="false"
       hide_knots="false" />
    <inkscape:path-effect
       effect="fillet_chamfer"
       id="path-effect1210"
       is_visible="true"
       lpeversion="1"
       satellites_param="F,1,0,1,0,0.02,0,1 @ F,1,0,1,0,0.02,0,1 @ F,1,0,1,0,0.02,0,1 @ F,1,0,1,0,0.02,0,1"
       unit="px"
       method="auto"
       mode="F"
       radius="2"
       chamfer_steps="1"
       flexible="true"
       use_knot_distance="true"
       apply_no_radius="true"
       apply_with_radius="true"
       only_selected="false"
       hide_knots="false" />
    <inkscape:path-effect
       effect="fillet_chamfer"
       id="path-effect1191"
       is_visible="true"
       lpeversion="1"
       satellites_param="F,1,0,1,0,0.03,0,1 @ F,1,0,1,0,0.03,0,1 @ F,1,0,1,0,0.03,0,1 @ F,1,0,1,0,0.03,0,1"
       unit="px"
       method="auto"
       mode="F"
       radius="3"
       chamfer_steps="1"
       flexible="true"
       use_knot_distance="true"
       apply_no_radius="true"
       apply_with_radius="true"
       only_selected="false"
       hide_knots="false" />
    <linearGradient
       inkscape:collect="always"
       id="linearGradient847">
      <stop
         style="stop-color:#282828;stop-opacity:1"
         offset="0"
         id="stop843" />
      <stop
         style="stop-color:#191919;stop-opacity:1"
         offset="1"
         id="stop845" />
    </linearGradient>
    <radialGradient
       inkscape:collect="always"
       xlink:href="#linearGradient847"
       id="radialGradient849"
       cx="26.375103"
       cy="97.113945"
       fx="26.375103"
       fy="97.113945"
       r="132.29167"
       gradientTransform="matrix(0,1.1515333,-2.0099162,0,221.56598,-12.967733)"
       gradientUnits="userSpaceOnUse" />
  </defs>
  <sodipodi:namedview
     id="base"
     pagecolor="#757575"
     bordercolor="#666666"
     borderopacity="1.0"
     inkscape:pageopacity="1"
     inkscape:pageshadow="2"
     inkscape:zoom="0.5"
     inkscape:cx="485"
     inkscape:cy="547"
     inkscape:document-units="mm"
     inkscape:current-layer="layer1"
     inkscape:document-rotation="0"
     showgrid="false"
     units="px"
     inkscape:showpageshadow="false"
     inkscape:pagecheckerboard="false"
     inkscape:lockguides="true"
     inkscape:window-width="958"
     inkscape:window-height="1008"
     inkscape:window-x="953"
     inkscape:window-y="0"
     inkscape:window-maximized="0"
     showguides="true"
     inkscape:guide-bbox="true">
    <sodipodi:guide
       position="0,148.69584"
       orientation="0,1000"
       inkscape:locked="true"
       id="guide1270" />
    <sodipodi:guide
       position="264.58334,148.69584"
       orientation="562,0"
       inkscape:locked="true"
       id="guide1272" />
    <sodipodi:guide
       position="264.58334,0"
       orientation="0,-1000"
       inkscape:locked="true"
       id="guide1274" />
    <sodipodi:guide
       position="0,0"
       orientation="-562,0"
       inkscape:locked="true"
       id="guide1276" />
    <sodipodi:guide
       position="21.201605,127.26459"
       orientation="0,1"
       id="guide2557"
       inkscape:label=""
       inkscape:locked="true"
       inkscape:color="rgb(0,0,255)" />
    <sodipodi:guide
       position="-33.82728,21.43125"
       orientation="0,1"
       id="guide2559"
       inkscape:label=""
       inkscape:locked="true"
       inkscape:color="rgb(0,0,255)" />
    <sodipodi:guide
       position="39.687501,148.69584"
       orientation="-1,0"
       id="guide2561"
       inkscape:label=""
       inkscape:locked="true"
       inkscape:color="rgb(0,0,255)" />
    <sodipodi:guide
       position="224.89584,148.69584"
       orientation="-1,0"
       id="guide2563"
       inkscape:label=""
       inkscape:locked="true"
       inkscape:color="rgb(0,0,255)" />
  </sodipodi:namedview>
  <metadata
     id="metadata5">
    <rdf:RDF>
      <cc:Work
         rdf:about="">
        <dc:format>image/svg+xml</dc:format>
        <dc:type
           rdf:resource="http://purl.org/dc/dcmitype/StillImage" />
      </cc:Work>
    </rdf:RDF>
  </metadata>
  <g
     inkscape:label="Layer 1"
     inkscape:groupmode="layer"
     id="layer1">
    <rect
       style="opacity:0.98;fill:url(#radialGradient849);fill-opacity:1;stroke-width:1.61952"
       id="rect841"
       width="264.58334"
       height="148.69583"
       x="-5.0862632e-06"
       y="-4.7961635e-14" />
    <path
       id="path3054"
       d="m 65.442864,45.011282 a 26.222117,26.222117 0 0 0 -25.442863,26.21651 26.222117,26.222117 0 0 0 52.432971,0 26.222117,26.222117 0 0 0 -26.991236,-26.21651 z m 11.225758,10.66272 v 26.00592 l -17.489295,6.4046 v -19.63673 l -8.516048,2.99113 v -6.40464 l 26.005905,-9.36062 z m 128.554358,4.60998 -4.15245,1.09092 v 4.96174 h -2.74483 v 3.16713 h 2.78008 v 8.16415 c 0,3.74617 1.1279,5.03227 4.68024,5.03227 1.13038,0 2.30961,-0.16386 3.34316,-0.4222 v -3.34312 c -0.58133,0.16131 -1.32769,0.28133 -2.00581,0.28133 -1.42089,0 -1.9003,-0.6076 -1.9003,-2.67444 v -7.03808 h 3.90619 v -3.16712 h -3.90619 v -6.0527 z m -93.18389,0.14088 c -2.68044,0 -5.3264,0.11151 -7.03807,0.17577 v 21.74707 c 1.84083,0.0647 3.79211,0.14088 6.05274,0.14088 7.10483,0 12.03562,-3.90934 12.03562,-11.40167 0,-7.65381 -4.30018,-10.66269 -11.04973,-10.66269 z m 49.40716,0.14087 v 21.81797 h 11.85886 v -3.58941 h -7.63622 v -5.91196 h 7.24917 v -3.41342 h -7.24917 v -5.38403 h 7.63622 v -3.51906 h -11.85886 z m -51.0963,3.41339 c 0.43193,-0.017 0.92319,0 1.40761,0 4.97337,0 6.79167,2.7776 6.79167,7.46036 0,5.16715 -2.97186,7.46032 -7.07319,7.46032 -0.83965,0 -1.70602,-0.0439 -2.28731,-0.14088 v -14.70898 c 0.33908,-0.034 0.72934,-0.054 1.16122,-0.0702 z m 21.32588,1.97065 c -2.0668,0 -4.1565,0.43923 -5.77121,1.02052 l 0.38729,3.44867 c 1.35638,-0.77508 3.26229,-1.26687 4.71555,-1.26687 2.32514,0 3.13183,0.88957 3.13183,2.56885 v 0.87973 c -5.4578,0 -9.25507,2.03373 -9.25507,5.87684 0,2.58362 1.66817,4.22285 4.57474,4.22285 2.38979,0 4.3627,-1.25312 5.13777,-3.06161 l 0.0341,0.0341 c -0.12895,0.83964 -0.14087,1.77312 -0.14087,2.70958 h 3.90619 c -0.0647,-1.32406 -0.10555,-2.86072 -0.10555,-4.15244 v -6.68619 c 0,-3.48781 -1.4486,-5.5953 -6.61579,-5.5953 z m 16.3981,0 c -4.52124,0 -6.82689,2.3282 -6.82689,5.13777 0,5.45784 6.475,3.84427 6.475,6.68618 0,1.06573 -1.02164,1.72428 -2.60409,1.72428 -1.2272,0 -2.44755,-0.23451 -3.44862,-0.49268 l -0.10555,3.41341 c 1.03342,0.16131 2.21567,0.28133 3.37826,0.28133 4.39208,0 7.14368,-2.14889 7.14368,-5.31376 0,-5.19941 -6.58064,-4.03512 -6.58064,-6.65095 0,-1.00111 0.77823,-1.654 2.39294,-1.654 1.00112,0 2.05173,0.16386 2.95598,0.42221 l 0.14088,-3.23748 c -0.96881,-0.16131 -1.98428,-0.31665 -2.92087,-0.31665 z m 37.40759,0 c -2.77739,-0.226 -4.32759,1.55492 -5.10254,3.58941 h -0.0702 c 0.19365,-1.13024 0.28174,-2.39494 0.28174,-3.20236 h -3.90619 v 16.04676 h 4.11722 v -6.58064 c 0,-4.45662 1.49805,-6.3848 4.46923,-5.7712 l 0.2111,-4.08206 z m 7.953,0 c -4.52123,0 -6.82692,2.3282 -6.82692,5.13777 0,5.45784 6.51014,3.84427 6.51014,6.68618 0,1.06573 -1.05683,1.72428 -2.63932,1.72428 -1.2272,0 -2.44755,-0.23451 -3.44866,-0.49268 l -0.10556,3.41341 c 1.03343,0.16131 2.21572,0.28133 3.37827,0.28133 4.39211,0 7.17882,-2.14889 7.17882,-5.31376 0,-5.19941 -6.61578,-4.03512 -6.61578,-6.65095 0,-1.00111 0.77822,-1.654 2.39294,-1.654 1.00116,0 2.08689,0.16386 2.99114,0.42221 l 0.10554,-3.23748 c -0.96881,-0.16131 -1.98426,-0.31665 -2.92086,-0.31665 z m 24.80885,0 c -4.81188,0 -7.53071,3.64244 -7.53071,8.55128 0,5.65153 2.85047,8.19931 7.95301,8.19931 2.00231,0 4.02443,-0.37751 5.73609,-1.05572 l -0.3873,-3.16713 c -1.38872,0.64591 -3.09788,0.98533 -4.68029,0.98533 -2.97105,0 -4.46629,-1.46583 -4.43395,-4.46923 h 9.9589 c 0.097,-0.67816 0.14088,-1.31602 0.14088,-1.86502 0,-3.97216 -2.07383,-7.17882 -6.75654,-7.17882 z m -0.14087,3.06162 c 1.74388,0 2.84464,1.20008 2.78011,3.20236 h -5.91199 c 0.22515,-1.93912 1.41889,-3.20373 3.13052,-3.20373 z m -83.96346,6.26388 v 0.38688 c 0,1.93763 -1.37889,3.87092 -3.41342,3.87092 -1.19491,0 -1.90027,-0.69089 -1.90027,-1.72427 0,-1.29172 0.95396,-2.53369 5.31378,-2.53369 z"
       fill-rule="evenodd"
       fill="#001a4b"
       style="fill:#01347e;fill-opacity:1;stroke-width:1.12609" />
    <g
       id="g1287"
       transform="matrix(0.74999998,0,0,0.79999997,33.07292,-84.402071)"
       style="fill:#003480;fill-opacity:1">
      <path
         id="rect2860"
         style="opacity:0.98;fill:#003480;fill-opacity:1;stroke-width:85.9894"
         d="M 40 25 A 15 16 0 0 0 25 41 L 25 521 A 15 16 0 0 0 40 537 L 960 537 A 15 16 0 0 0 975 521 L 975 41 A 15 16 0 0 0 960 25 L 40 25 z M 52.5 37.5 L 947.5 37.5 A 15 16 0 0 1 962.5 53.5 L 962.5 508.5 A 15 16 0 0 1 947.5 524.5 L 52.5 524.5 A 15 16 0 0 1 37.5 508.5 L 37.5 53.5 A 15 16 0 0 1 52.5 37.5 z "
         transform="matrix(0.35277779,0,0,0.33072918,-44.097228,105.50259)" />
    </g>
  </g>
  <style
     type="text/css"
     id="style2">
	.st0{display:none;}
	.st1{display:inline;fill:#7D7D7D;}
	.st2{fill:#FA7D19;}
	.st3{fill:#FFFFFF;}
</style>
</svg>
