<?xml version="1.0" encoding="UTF-8" standalone="no"?>
<svg
   width="1000"
   height="562"
   viewBox="0 0 264.58333 148.69584"
   version="1.1"
   id="svg8"
   inkscape:version="1.2 (dc2aedaf03, 2022-05-15)"
   sodipodi:docname="thumb.svg"
   xml:space="preserve"
   xmlns:inkscape="http://www.inkscape.org/namespaces/inkscape"
   xmlns:sodipodi="http://sodipodi.sourceforge.net/DTD/sodipodi-0.dtd"
   xmlns:xlink="http://www.w3.org/1999/xlink"
   xmlns="http://www.w3.org/2000/svg"
   xmlns:svg="http://www.w3.org/2000/svg"
   xmlns:rdf="http://www.w3.org/1999/02/22-rdf-syntax-ns#"
   xmlns:cc="http://creativecommons.org/ns#"
   xmlns:dc="http://purl.org/dc/elements/1.1/"><defs
     id="defs2"><inkscape:path-effect
       effect="fillet_chamfer"
       id="path-effect2883"
       is_visible="true"
       lpeversion="1"
       satellites_param="F,0,0,1,0,5.2916667,0,1 @ F,0,0,1,0,5.2916667,0,1 @ F,0,0,1,0,5.2916667,0,1 @ F,0,0,1,0,5.2916667,0,1"
       unit="px"
       method="auto"
       mode="F"
       radius="20"
       chamfer_steps="1"
       flexible="false"
       use_knot_distance="true"
       apply_no_radius="true"
       apply_with_radius="true"
       only_selected="false"
       hide_knots="false"
       nodesatellites_param="F,0,0,1,0,5.2916667,0,1 @ F,0,0,1,0,5.2916667,0,1 @ F,0,0,1,0,5.2916667,0,1 @ F,0,0,1,0,5.2916667,0,1" /><inkscape:path-effect
       effect="fillet_chamfer"
       id="path-effect2864"
       is_visible="true"
       lpeversion="1"
       satellites_param="F,0,0,1,0,5.2916667,0,1 @ F,0,0,1,0,5.2916667,0,1 @ F,0,0,1,0,5.2916667,0,1 @ F,0,0,1,0,5.2916667,0,1"
       unit="px"
       method="auto"
       mode="F"
       radius="20"
       chamfer_steps="1"
       flexible="false"
       use_knot_distance="true"
       apply_no_radius="true"
       apply_with_radius="true"
       only_selected="false"
       hide_knots="false"
       nodesatellites_param="F,0,0,1,0,5.2916667,0,1 @ F,0,0,1,0,5.2916667,0,1 @ F,0,0,1,0,5.2916667,0,1 @ F,0,0,1,0,5.2916667,0,1" /><inkscape:path-effect
       effect="fillet_chamfer"
       id="path-effect2862"
       is_visible="true"
       lpeversion="1"
       satellites_param="F,0,0,1,0,0,0,1 @ F,0,0,1,0,0,0,1 @ F,0,0,1,0,0,0,1 @ F,0,0,1,0,0,0,1"
       unit="px"
       method="auto"
       mode="F"
       radius="0"
       chamfer_steps="1"
       flexible="false"
       use_knot_distance="true"
       apply_no_radius="true"
       apply_with_radius="true"
       only_selected="false"
       hide_knots="false"
       nodesatellites_param="F,0,0,1,0,0,0,1 @ F,0,0,1,0,0,0,1 @ F,0,0,1,0,0,0,1 @ F,0,0,1,0,0,0,1" /><inkscape:path-effect
       effect="fillet_chamfer"
       id="path-effect1088"
       is_visible="true"
       lpeversion="1"
       satellites_param="F,0,0,1,0,5.2916667,0,1 @ F,0,0,1,0,5.2916667,0,1 @ F,0,0,1,0,5.2916667,0,1 @ F,0,0,1,0,5.2916667,0,1"
       unit="px"
       method="auto"
       mode="F"
       radius="20"
       chamfer_steps="1"
       flexible="false"
       use_knot_distance="true"
       apply_no_radius="true"
       apply_with_radius="true"
       only_selected="false"
       hide_knots="false"
       nodesatellites_param="F,0,0,1,0,5.2916667,0,1 @ F,0,0,1,0,5.2916667,0,1 @ F,0,0,1,0,5.2916667,0,1 @ F,0,0,1,0,5.2916667,0,1" /><inkscape:path-effect
       effect="fillet_chamfer"
       id="path-effect1308"
       is_visible="true"
       lpeversion="1"
       satellites_param="F,1,0,1,0,0.04,0,1 @ F,1,0,1,0,0.04,0,1 @ F,1,0,1,0,0.04,0,1 @ F,1,0,1,0,0.04,0,1"
       unit="px"
       method="auto"
       mode="F"
       radius="4"
       chamfer_steps="1"
       flexible="true"
       use_knot_distance="true"
       apply_no_radius="true"
       apply_with_radius="true"
       only_selected="false"
       hide_knots="false"
       nodesatellites_param="F,1,0,1,0,0.04,0,1 @ F,1,0,1,0,0.04,0,1 @ F,1,0,1,0,0.04,0,1 @ F,1,0,1,0,0.04,0,1" /><inkscape:path-effect
       effect="fillet_chamfer"
       id="path-effect1306"
       is_visible="true"
       lpeversion="1"
       satellites_param="F,1,0,1,0,0.03,0,1 @ F,1,0,1,0,0.03,0,1 @ F,1,0,1,0,0.03,0,1 @ F,1,0,1,0,0.03,0,1"
       unit="px"
       method="auto"
       mode="F"
       radius="3"
       chamfer_steps="1"
       flexible="true"
       use_knot_distance="true"
       apply_no_radius="true"
       apply_with_radius="true"
       only_selected="false"
       hide_knots="false"
       nodesatellites_param="F,1,0,1,0,0.03,0,1 @ F,1,0,1,0,0.03,0,1 @ F,1,0,1,0,0.03,0,1 @ F,1,0,1,0,0.03,0,1" /><inkscape:path-effect
       effect="fillet_chamfer"
       id="path-effect1210"
       is_visible="true"
       lpeversion="1"
       satellites_param="F,1,0,1,0,0.02,0,1 @ F,1,0,1,0,0.02,0,1 @ F,1,0,1,0,0.02,0,1 @ F,1,0,1,0,0.02,0,1"
       unit="px"
       method="auto"
       mode="F"
       radius="2"
       chamfer_steps="1"
       flexible="true"
       use_knot_distance="true"
       apply_no_radius="true"
       apply_with_radius="true"
       only_selected="false"
       hide_knots="false"
       nodesatellites_param="F,1,0,1,0,0.02,0,1 @ F,1,0,1,0,0.02,0,1 @ F,1,0,1,0,0.02,0,1 @ F,1,0,1,0,0.02,0,1" /><inkscape:path-effect
       effect="fillet_chamfer"
       id="path-effect1191"
       is_visible="true"
       lpeversion="1"
       satellites_param="F,1,0,1,0,0.03,0,1 @ F,1,0,1,0,0.03,0,1 @ F,1,0,1,0,0.03,0,1 @ F,1,0,1,0,0.03,0,1"
       unit="px"
       method="auto"
       mode="F"
       radius="3"
       chamfer_steps="1"
       flexible="true"
       use_knot_distance="true"
       apply_no_radius="true"
       apply_with_radius="true"
       only_selected="false"
       hide_knots="false"
       nodesatellites_param="F,1,0,1,0,0.03,0,1 @ F,1,0,1,0,0.03,0,1 @ F,1,0,1,0,0.03,0,1 @ F,1,0,1,0,0.03,0,1" /><linearGradient
       inkscape:collect="always"
       id="linearGradient847"><stop
         style="stop-color:#ffffff;stop-opacity:1;"
         offset="0"
         id="stop843" /><stop
         style="stop-color:#ededed;stop-opacity:1;"
         offset="1"
         id="stop845" /></linearGradient><radialGradient
       inkscape:collect="always"
       xlink:href="#linearGradient847"
       id="radialGradient849"
       cx="26.375103"
       cy="97.113945"
       fx="26.375103"
       fy="97.113945"
       r="132.29167"
       gradientTransform="matrix(0,1.1515333,-2.0099162,0,221.56598,-12.967733)"
       gradientUnits="userSpaceOnUse" /></defs><sodipodi:namedview
     id="base"
     pagecolor="#757575"
     bordercolor="#666666"
     borderopacity="1.0"
     inkscape:pageopacity="1"
     inkscape:pageshadow="2"
     inkscape:zoom="1"
     inkscape:cx="257.5"
     inkscape:cy="286"
     inkscape:document-units="mm"
     inkscape:current-layer="layer1"
     inkscape:document-rotation="0"
     showgrid="false"
     units="px"
     inkscape:showpageshadow="false"
     inkscape:pagecheckerboard="false"
     inkscape:lockguides="true"
     inkscape:window-width="1920"
     inkscape:window-height="1017"
     inkscape:window-x="-8"
     inkscape:window-y="-8"
     inkscape:window-maximized="1"
     showguides="true"
     inkscape:guide-bbox="true"
     inkscape:deskcolor="#757575"><sodipodi:guide
       position="0,148.69584"
       orientation="0,1000"
       inkscape:locked="true"
       id="guide1270" /><sodipodi:guide
       position="264.58334,148.69584"
       orientation="562,0"
       inkscape:locked="true"
       id="guide1272" /><sodipodi:guide
       position="264.58334,0"
       orientation="0,-1000"
       inkscape:locked="true"
       id="guide1274" /><sodipodi:guide
       position="0,0"
       orientation="-562,0"
       inkscape:locked="true"
       id="guide1276" /><sodipodi:guide
       position="21.201605,127.26459"
       orientation="0,1"
       id="guide2557"
       inkscape:label=""
       inkscape:locked="true"
       inkscape:color="rgb(0,0,255)" /><sodipodi:guide
       position="-33.82728,21.43125"
       orientation="0,1"
       id="guide2559"
       inkscape:label=""
       inkscape:locked="true"
       inkscape:color="rgb(0,0,255)" /><sodipodi:guide
       position="39.687501,148.69584"
       orientation="-1,0"
       id="guide2561"
       inkscape:label=""
       inkscape:locked="true"
       inkscape:color="rgb(0,0,255)" /><sodipodi:guide
       position="224.89584,148.69584"
       orientation="-1,0"
       id="guide2563"
       inkscape:label=""
       inkscape:locked="true"
       inkscape:color="rgb(0,0,255)" /></sodipodi:namedview><metadata
     id="metadata5"><rdf:RDF><cc:Work
         rdf:about=""><dc:format>image/svg+xml</dc:format><dc:type
           rdf:resource="http://purl.org/dc/dcmitype/StillImage" /></cc:Work></rdf:RDF></metadata><g
     inkscape:label="Layer 1"
     inkscape:groupmode="layer"
     id="layer1"><rect
       style="opacity:0.98;fill:url(#radialGradient849);fill-opacity:1;stroke-width:1.61952"
       id="background"
       width="264.58334"
       height="148.69583"
       x="-5.0862632e-06"
       y="-4.7961635e-14" /><g
       id="logo"
       transform="matrix(0.18520834,0,0,0.18520834,39.687497,42.406504)"><path
         fill-rule="evenodd"
         clip-rule="evenodd"
         d="m 864.96881,186.72012 -38.32324,132.79682 h 27.62695 l 4.01172,-16.92871 h 35.65234 l 3.56836,16.92871 h 28.06934 L 886.8067,186.72012 Z m 11.1416,36.09569 c 0,1.78418 0.37403,4.45703 1.11328,8.02539 0.74903,3.56053 1.41114,6.83299 2.01172,9.80077 l 8.91211,38.7666 h -24.50976 l 9.35644,-38.7666 c 0.5918,-2.96778 1.26074,-6.24024 2.00098,-9.80077 0.74805,-3.56836 1.11523,-6.24121 1.11523,-8.02539 z"
         id="path1349" /><path
         fill-rule="evenodd"
         clip-rule="evenodd"
         d="m 737.07532,186.27676 v 133.24018 h 26.73926 v -42.33591 h 11.58398 l 17.82519,42.33591 h 26.29584 L 800.79602,271.8363 c 5.64844,-3.86425 10.25391,-9.13867 13.82221,-15.82324 3.55957,-6.68457 5.34472,-14.33691 5.34472,-22.9453 v -3.12402 c 0,-12.47266 -3.78613,-22.87402 -11.36712,-31.19432 -7.57227,-8.32129 -17.30274,-12.47266 -29.1836,-12.47266 z m 26.73926,24.95409 h 12.9248 c 4.75195,0 8.76465,1.55957 12.02832,4.67578 3.26465,3.12402 4.89941,7.94531 4.89941,14.48145 v 0.89843 c 0,7.42382 -1.63476,12.77636 -4.89941,16.04003 -3.26367,3.26465 -7.27637,4.90039 -12.02832,4.90039 h -12.9248 z"
         id="path1351" /><path
         fill-rule="evenodd"
         clip-rule="evenodd"
         d="M 808.37708,25.851061 V 159.09074 h 42.77923 c 6.83301,0 13.14356,-1.33154 18.93945,-4.0039 5.79688,-2.68067 10.62012,-6.3877 14.48438,-11.13965 3.86426,-4.76122 6.91113,-10.77586 9.13965,-18.05223 2.22754,-7.27637 3.34179,-15.07568 3.34179,-23.39697 V 78.431602 c 0,-7.424316 -1.11425,-14.403801 -3.34179,-20.940418 -2.22852,-6.536621 -5.27539,-12.186519 -9.13965,-16.938469 -3.86426,-4.752929 -8.6875,-8.390133 -14.48438,-10.914058 -5.79687,-2.524413 -12.10644,-3.787596 -18.93945,-3.787596 z m 26.73919,24.954088 h 12.92481 c 3.85547,0 7.12793,0.592285 9.7998,1.785156 2.67285,1.183594 4.90039,2.968262 6.68457,5.344727 2.08008,2.671871 3.56934,5.796871 4.45801,9.356441 0.88769,3.56884 1.33887,7.581048 1.33887,12.03759 v 21.384267 c 0,5.64941 -0.45118,10.61914 -1.33887,14.92773 -0.88867,4.3081 -2.37793,7.94726 -4.45801,10.92382 -1.78418,2.37647 -4.01269,4.30908 -6.68457,5.78857 -2.67187,1.48877 -5.94433,2.22706 -9.7998,2.22706 h -12.92481 z"
         id="path1353" /><path
         fill-rule="evenodd"
         clip-rule="evenodd"
         d="m 506.67603,24.07909 c -6.23145,0 -11.65381,0.816895 -16.25831,2.444822 -4.60449,1.636231 -8.84326,3.796385 -12.70751,6.46826 -5.64014,5.048336 -10.09617,11.732414 -13.36863,20.052723 -3.26416,8.320797 -4.90088,18.713856 -4.90088,31.194813 v 16.041012 c 0,12.77733 1.63672,23.47557 4.90088,32.08348 3.27246,8.61717 7.72849,15.15281 13.36863,19.60984 3.86425,2.97657 8.10253,5.27393 12.70751,6.91016 4.6045,1.63623 10.02686,2.44629 16.25831,2.44629 5.64941,0 10.77539,-0.81006 15.37988,-2.44629 4.60449,-1.63623 8.83594,-3.93359 12.70117,-6.91016 5.94434,-4.45654 10.40039,-10.99267 13.36816,-19.60984 2.96778,-8.60791 4.45606,-19.1582 4.45606,-31.63964 V 84.239708 c 0,-12.481445 -1.48731,-22.874016 -4.45606,-31.194813 -2.96777,-8.320309 -7.42382,-15.004387 -13.36816,-20.052723 -3.86523,-2.671875 -8.09668,-4.832029 -12.70117,-6.46826 -4.60449,-1.627927 -9.73145,-2.444822 -15.37988,-2.444822 z m 0,24.954578 c 2.68066,0 5.05859,0.442872 7.13867,1.339356 2.08008,0.887692 3.85644,2.228023 5.34472,4.003414 2.08008,2.376465 3.71582,6.023922 4.89844,10.924313 1.19336,4.90039 1.78516,11.505851 1.78516,19.827141 V 100.2812 c 0,8.32129 -0.5918,14.85888 -1.78516,19.61083 -1.18359,4.75244 -2.81836,8.32031 -4.89844,10.69629 -1.48828,2.08008 -3.34277,3.63916 -5.57129,4.6748 -2.22851,1.04444 -4.53613,1.55713 -6.9121,1.55713 -2.96778,0 -5.63965,-0.51269 -8.01563,-1.55713 -2.37598,-1.03564 -4.30859,-2.59472 -5.79687,-4.6748 -2.08057,-2.37647 -3.70899,-5.94385 -4.90088,-10.69629 -1.19287,-4.75195 -1.78369,-11.29003 -1.78369,-19.61083 V 85.127892 c 0,-8.320801 0.59082,-14.926751 1.78369,-19.827141 1.19238,-4.900391 2.8208,-8.547848 4.90088,-10.924313 1.48828,-1.77539 3.42041,-3.115723 5.79687,-4.003414 2.37598,-0.896484 5.04785,-1.339356 8.01563,-1.339356 z"
         id="path1355" /><polygon
         fill-rule="evenodd"
         clip-rule="evenodd"
         points="961.22363,186.27774 934.48737,186.27676 934.48737,319.51694 1000,319.51694 1000,295.0062 961.22363,295.0062 "
         id="polygon1357" /><polygon
         fill-rule="evenodd"
         clip-rule="evenodd"
         points="722.80676,186.25919 646.60272,186.25919 646.60272,211.21327 671.5578,211.21327 671.5578,319.49936 697.85266,319.49936 697.85266,211.21327 722.80676,211.21327 "
         id="polygon1359" /><polygon
         fill-rule="evenodd"
         clip-rule="evenodd"
         points="633.23749,319.51694 633.23749,186.27676 608.72675,186.27676 608.72675,264.26209 572.63202,186.27676 549.46216,186.27676 549.46216,319.51694 573.52069,319.51694 573.52069,242.42615 609.62421,319.51694 "
         id="polygon1361" /><polygon
         fill-rule="evenodd"
         clip-rule="evenodd"
         points="488.85425,264.26404 523.61841,264.26404 523.61841,239.30115 488.85425,239.30115 488.85425,211.23183 529.85864,211.23183 529.85864,186.27676 462.11844,186.27676 462.11844,319.51694 529.85864,319.51694 529.85864,295.0062 488.85425,295.0062 "
         id="polygon1363" /><path
         fill-rule="evenodd"
         clip-rule="evenodd"
         d="m 392.5799,215.24452 c 1.48828,-2.08105 3.34228,-3.49023 5.57031,-4.23926 2.22802,-0.73925 4.68261,-1.11425 7.35498,-1.11425 3.56833,0 7.05856,0.89648 10.47067,2.67285 3.42041,1.78418 6.16211,5.35254 8.24268,10.69629 l 23.62207,-9.80078 c -3.86426,-10.1045 -9.58301,-17.52929 -17.15528,-22.28124 -7.58105,-4.75293 -15.97168,-7.12891 -25.18014,-7.12891 -5.64942,0 -10.91504,0.8877 -15.82422,2.67188 -4.90039,1.78418 -9.13037,4.16113 -12.69873,7.12891 -5.64014,4.75195 -10.02686,11.28904 -13.14307,19.60936 -3.12451,8.32129 -4.68261,18.71386 -4.68261,31.19529 v 16.48535 c 0,12.77735 1.5581,23.32615 4.68261,31.63865 3.11621,8.32129 7.50293,14.85742 13.14307,19.60937 3.56836,2.97754 7.79834,5.20508 12.69873,6.68457 4.90918,1.48828 10.1748,2.22852 15.82422,2.22852 9.80026,0 18.34762,-2.29785 25.62399,-6.90235 7.27637,-4.60449 12.84717,-11.51465 16.71143,-20.72363 l -23.62207,-10.69727 c -2.08057,5.34473 -4.75244,8.91309 -8.01661,10.69727 -3.27246,1.78418 -6.83251,2.67285 -10.69674,2.67285 -2.67237,0 -5.12696,-0.375 -7.35498,-1.11426 -2.22803,-0.74023 -4.08203,-2.15039 -5.57031,-4.23046 -2.08057,-2.08008 -3.70801,-5.57032 -4.90088,-10.47947 -1.19239,-4.90039 -1.78418,-11.50683 -1.78418,-19.82714 v -14.70997 c 0,-8.91308 0.59179,-15.7451 1.78418,-20.49705 1.19287,-4.75293 2.82031,-8.16504 4.90088,-10.24414 z"
         id="path1365" /><polygon
         fill-rule="evenodd"
         clip-rule="evenodd"
         points="679.13886,25.842272 654.18475,25.842272 631.00604,109.61616 607.83612,25.842272 582.42987,25.842272 566.83221,159.08147 591.79511,159.08147 599.81073,86.44722 619.86444,159.08147 641.70331,159.08147 661.31268,86.44722 669.78241,159.08147 694.29211,159.08147 "
         id="polygon1367" /><polygon
         fill-rule="evenodd"
         clip-rule="evenodd"
         points="741.5304,103.83784 780.297,103.83784 780.297,78.431114 741.5304,78.431114 741.5304,50.804661 785.65051,50.804661 785.65051,25.850573 715.2345,25.851061 715.2345,159.09074 785.65051,159.09074 785.65051,134.58002 741.5304,134.58002 "
         id="polygon1369" /><polygon
         fill-rule="evenodd"
         clip-rule="evenodd"
         points="969.69434,25.8286 947.41211,67.711883 926.02643,25.8286 897.05963,25.8286 934.48737,94.902298 934.48737,159.06828 961.22559,159.06828 961.22559,94.902298 998.66113,25.8286 "
         id="polygon1371" /><path
         fill-rule="evenodd"
         clip-rule="evenodd"
         d="m 392.5799,54.374973 c 1.48828,-1.77539 3.34228,-3.115722 5.57031,-4.003902 2.22802,-0.896485 4.68261,-1.340332 7.35498,-1.340332 3.56833,0 7.05856,0.966308 10.47067,2.898434 3.42041,1.932129 6.16211,5.71875 8.24268,11.358882 l 23.62207,-10.688472 c -3.86426,-10.105461 -9.58301,-17.381829 -17.15528,-21.838368 -7.58105,-4.456052 -15.97168,-6.684566 -25.18014,-6.684566 -5.64942,0 -10.91504,0.818359 -15.82422,2.445799 -4.90039,1.63623 -9.13037,3.79492 -12.69873,6.467283 -5.64014,5.048336 -10.02686,11.732902 -13.14307,20.053699 -3.12451,8.320797 -4.68261,18.713368 -4.68261,31.194813 v 16.041497 c 0,12.77734 1.5581,23.47411 4.68261,32.0825 3.11621,8.61669 7.50293,15.15331 13.14307,19.60985 3.56836,2.97656 7.79834,5.2749 12.69873,6.91065 4.90918,1.63672 10.1748,2.4458 15.82422,2.4458 9.80026,0 18.34762,-2.29785 25.62399,-6.90186 7.27637,-4.60449 12.84717,-11.66308 16.71143,-21.16795 l -23.62207,-10.25342 c -2.08057,5.04834 -4.75244,8.61719 -8.01661,10.69678 -3.27246,2.08056 -6.83251,3.11621 -10.69674,3.11621 -2.67237,0 -5.12696,-0.51367 -7.35498,-1.55811 -2.22803,-1.03564 -4.08203,-2.59375 -5.57031,-4.67383 -2.08057,-2.37646 -3.70801,-5.94482 -4.90088,-10.69726 -1.19239,-4.75195 -1.78418,-11.28906 -1.78418,-19.60985 v -15.1538 c 0,-8.320312 0.59179,-14.927238 1.78418,-19.827141 1.19287,-4.899902 2.82031,-8.547359 4.90088,-10.923336 z"
         id="path1373" /><path
         fill-rule="evenodd"
         clip-rule="evenodd"
         fill="#fdc600"
         d="m 190.74014,195.62247 c -3.86426,7.1289 -9.43506,12.84764 -16.71142,17.15526 -7.28514,4.30859 -15.23192,6.458 -23.84862,6.458 -12.76854,0 -23.69188,-4.52539 -32.75243,-13.58593 -9.06102,-9.06151 -13.5869,-19.98436 -13.5869,-32.75292 0,-12.77733 4.52636,-23.77049 13.5869,-32.97897 9.06055,-9.20899 19.98389,-13.81299 32.75243,-13.81299 8.6167,0 16.56348,2.29785 23.84862,6.90185 7.27636,4.6045 12.84716,10.32274 16.71142,17.15526 l 36.0952,-20.49754 C 219.40224,116.29536 208.86171,105.52876 195.19669,97.355423 181.52286,89.19136 166.5258,85.100548 150.17815,85.100548 c -11.88085,0 -23.16991,2.306633 -33.86717,6.910637 -10.69726,4.604492 -19.975576,10.845205 -27.853018,18.713855 -7.868156,7.87646 -14.108391,17.15478 -18.713364,27.85254 -4.604492,10.69676 -6.910644,22.13426 -6.910644,34.3193 0,12.17676 2.306152,23.61328 6.910644,34.31053 4.604973,10.69727 10.845208,19.97559 18.713364,27.8535 7.876953,7.87696 17.155268,14.1084 27.853018,18.71289 10.69677,4.6045 21.98632,6.91114 33.86717,6.91114 16.0498,0 30.97703,-4.16016 44.78807,-12.48145 13.81297,-8.3125 24.43211,-19.00975 31.86522,-32.08299 z"
         id="path1375" /><path
         fill-rule="evenodd"
         clip-rule="evenodd"
         fill="#fdc600"
         d="m 322.64243,172.01505 c 0,23.7705 -4.53467,46.20115 -13.59571,67.29782 -9.06054,21.08984 -21.31592,39.43652 -36.7651,55.03219 -15.44922,15.59766 -33.71875,27.92285 -54.80712,36.9834 -21.09813,9.06055 -43.52781,13.59567 -67.29733,13.59567 -32.0825,0 -61.424286,-8.17282 -88.013138,-24.51071 C 35.573711,304.07651 14.860344,282.68198 0,256.23865 l 36.095196,-19.60938 c 10.992672,19.60938 26.73827,35.50293 47.237285,47.68943 20.506819,12.17675 42.788549,18.26953 66.845669,18.26953 17.82568,0 34.76316,-3.4209 50.8032,-10.25391 16.04149,-6.83203 29.93261,-16.11032 41.6655,-27.85251 11.7417,-11.73242 21.09815,-25.5459 28.0791,-41.43944 6.98096,-15.89257 10.47071,-32.90037 10.47071,-51.02879 v 0.89648 c 0,-18.12986 -3.49024,-35.13766 -10.47071,-51.02877 -6.98047,-15.89355 -16.33691,-29.706043 -28.0791,-41.439433 -11.73289,-11.741204 -25.62401,-21.020012 -41.6655,-27.852528 -16.04101,-6.832516 -32.97898,-10.252922 -50.8032,-10.252922 -24.05761,0 -46.33836,6.092769 -66.845669,18.26952 C 62.83493,72.791466 47.089821,88.685013 36.095196,108.29536 L 0,88.685013 C 14.857414,62.242645 35.572735,40.84959 62.164032,24.510239 88.754349,8.173336 118.09613,0 150.17717,0 c 23.77,0 46.20116,4.5346656 67.29733,13.595696 21.08983,9.060542 39.35887,21.385247 54.80712,36.982895 15.44967,15.597649 27.70504,33.944809 36.7651,55.033169 9.06104,21.09814 13.59571,43.52781 13.59571,67.29733 z"
         id="path1377" /></g><path
       id="border"
       style="fill:#fdc600;fill-opacity:1;opacity:0.98;stroke-width:85.9894"
       d="M 40 25 A 15 16 0 0 0 25 41 L 25 521 A 15 16 0 0 0 40 537 L 960 537 A 15 16 0 0 0 975 521 L 975 41 A 15 16 0 0 0 960 25 L 40 25 z M 52.5 37.5 L 947.5 37.5 A 15 16 0 0 1 962.5 53.5 L 962.5 508.5 A 15 16 0 0 1 947.5 524.5 L 52.5 524.5 A 15 16 0 0 1 37.5 508.5 L 37.5 53.5 A 15 16 0 0 1 52.5 37.5 z "
       transform="scale(0.26458333)" /></g></svg>
