<svg width="800" height="310" viewBox="0 0 211.667 82.021" version="1.1" id="svg1100" xmlns="http://www.w3.org/2000/svg">
    <g id="layer1">
        <path d="M29.105 65.925c-3.184.56-6.424.727-9.776 1.174L9.106 37.156v31.228c-3.184.335-6.09.782-9.106 1.228V12.408h8.491l11.62 32.457V12.408h8.994Zm17.597-32.568c3.464 0 8.77-.168 11.955-.168v8.938c-3.967 0-8.603 0-11.955.168v13.296c5.251-.335 10.502-.783 15.81-.95v8.602L37.762 65.2V12.41H62.51v8.938H46.7Zm49.048-12.01h-9.273v41.115c-3.017 0-6.034 0-8.938.112V21.347h-9.273v-8.939H95.75zm14.524 11.396h12.235v8.938h-12.235v20.278h-8.77V12.41h24.97v8.938h-16.2ZM141 54.138c5.084.112 10.223.503 15.195.782v8.827c-7.988-.503-15.977-1.005-24.133-1.173V12.408H141zm22.737 10.223c2.849.168 5.865.336 8.77.67V12.408h-8.77zm47.93-51.953-11.34 27.206 11.34 29.998c-3.351-.446-6.703-1.06-10.055-1.62l-6.424-16.535-6.536 15.195c-3.24-.56-6.369-.727-9.608-1.174l11.508-26.2-10.391-26.87h9.608l5.866 15.028 6.257-15.028z" fill="#d81f26" id="path910" style="stroke-width:.206705"/>
    </g>
    <style type="text/css" id="style2">
        .st0{display:none}.st1{display:inline;fill:#7d7d7d}.st2{fill:#fa7d19}.st3{fill:#fff}
    </style>
</svg>
