<svg width="1000" height="1500" viewBox="0 0 264.583 396.875" xmlns="http://www.w3.org/2000/svg">
    <path style="opacity:.98;fill:#fff;fill-opacity:1;stroke-width:2.64583" d="M0 0h264.583v396.875H0z"/>
    <path style="opacity:.98;fill:#d81f26;fill-opacity:1;stroke-width:46.3438" d="M49.832 25A25 25 0 0 0 25 50v1400a25 25 0 0 0 25 25h900a25 25 0 0 0 25-25V50a25 25 0 0 0-25-25H50a25 25 0 0 0-.168 0zm23.711 25a23.684 24.138 0 0 1 .14 0h852.633A23.684 24.138 0 0 1 950 74.139V1425.86a23.684 24.138 0 0 1-23.684 24.14H73.684A23.684 24.138 0 0 1 50 1425.861V74.14A23.684 24.138 0 0 1 73.543 50z" transform="scale(.26458)"/>
    <path d="M65.23 220.213c-2.783.49-5.615.636-8.545 1.026l-8.935-26.17v27.293c-2.783.293-5.322.684-7.958 1.074V173.44h7.421l10.156 28.368V173.44h7.86zm15.38-28.465c3.027 0 7.666-.146 10.449-.146v7.812c-3.467 0-7.52 0-10.45.146v11.621c4.59-.293 9.18-.684 13.818-.83v7.518l-21.63 1.71v-46.14h21.63v7.812H80.61Zm42.869-10.497h-8.105v35.936c-2.637 0-5.274 0-7.812.097V181.25h-8.105v-7.812h24.022zm12.694 9.96h10.693v7.812h-10.693v17.724h-7.666V173.44h21.826v7.812h-14.16zm26.854 18.7c4.443.098 8.935.44 13.28.684v7.714c-6.981-.44-13.963-.878-21.092-1.025v-43.845h7.812zm19.872 8.936c2.49.146 5.127.293 7.666.585V173.44h-7.666zm41.893-45.408-9.912 23.778 9.912 26.22c-2.93-.391-5.86-.929-8.79-1.417l-5.614-14.452-5.712 13.28c-2.832-.488-5.567-.635-8.398-1.025l10.058-22.9-9.082-23.484h8.398l5.126 13.134 5.47-13.134z" fill="#d81f26" style="stroke-width:.180664"/>
</svg>
