<?xml version="1.0" encoding="UTF-8" standalone="no"?>
<svg
   xmlns:dc="http://purl.org/dc/elements/1.1/"
   xmlns:cc="http://creativecommons.org/ns#"
   xmlns:rdf="http://www.w3.org/1999/02/22-rdf-syntax-ns#"
   xmlns:svg="http://www.w3.org/2000/svg"
   xmlns="http://www.w3.org/2000/svg"
   xmlns:xlink="http://www.w3.org/1999/xlink"
   width="1000"
   height="1500"
   viewBox="0 0 264.58333 396.87501"
   version="1.1"
   id="svg8">
  <defs
     id="defs2">
    <linearGradient
       id="linearGradient847">
      <stop
         style="stop-color:#282828;stop-opacity:1"
         offset="0"
         id="stop843" />
      <stop
         style="stop-color:#191919;stop-opacity:1"
         offset="1"
         id="stop845" />
    </linearGradient>
    <radialGradient
       xlink:href="#linearGradient847"
       id="radialGradient849"
       cx="26.375103"
       cy="97.113945"
       fx="26.375103"
       fy="97.113945"
       r="132.29167"
       gradientTransform="matrix(0,3.0734875,-2.0099162,0,221.56598,-34.611386)"
       gradientUnits="userSpaceOnUse" />
  </defs>
  <metadata
     id="metadata5">
    <rdf:RDF>
      <cc:Work
         rdf:about="">
        <dc:format>image/svg+xml</dc:format>
        <dc:type
           rdf:resource="http://purl.org/dc/dcmitype/StillImage" />
        <dc:title></dc:title>
      </cc:Work>
    </rdf:RDF>
  </metadata>
  <g
     id="layer1">
    <rect
       style="opacity:0.98;fill:url(#radialGradient849);fill-opacity:1;stroke-width:2.64583"
       id="rect841"
       width="264.58334"
       height="396.875"
       x="-5.0862632e-06"
       y="-4.7961635e-14" />
    <path
       id="rect3410"
       style="opacity:0.98;fill:#e50914;fill-opacity:1;stroke-width:46.3438"
       d="M 49.832031 25 A 25 25 0 0 0 25 50 L 25 1450 A 25 25 0 0 0 50 1475 L 950 1475 A 25 25 0 0 0 975 1450 L 975 50 A 25 25 0 0 0 950 25 L 50 25 A 25 25 0 0 0 49.832031 25 z M 73.542969 50 A 23.68421 24.137931 0 0 1 73.683594 50 L 926.31641 50 A 23.68421 24.137931 0 0 1 950 74.138672 L 950 1425.8613 A 23.68421 24.137931 0 0 1 926.31641 1450 L 73.683594 1450 A 23.68421 24.137931 0 0 1 50 1425.8613 L 50 74.138672 A 23.68421 24.137931 0 0 1 73.542969 50 z "
       transform="scale(0.26458333)" />
    <path
       d="m 65.154184,220.238 c -2.786083,0.48925 -5.621181,0.63593 -8.553948,1.0266 l -8.945345,-26.19974 v 27.3242 c -2.786083,0.29318 -5.327814,0.68422 -7.967395,1.07526 v -50.05364 h 7.430037 l 10.166925,28.4 v -28.4 h 7.869726 z m 15.397432,-28.49712 c 3.030797,0 7.674389,-0.14669 10.460471,-0.14669 v 7.82072 c -3.470665,0 -7.527524,0 -10.460471,0.14668 v 11.63376 c 4.594939,-0.29319 9.189697,-0.68459 13.833111,-0.83127 v 7.52716 l -21.654184,1.71119 v -46.19175 h 21.654184 v 7.82089 H 80.551616 Z m 42.916964,-10.50913 h -8.11407 v 35.976 c -2.63958,0 -5.27916,0 -7.82053,0.0975 v -36.07348 h -8.114086 v -7.82107 h 24.049056 z m 12.70884,9.97159 h 10.70501 v 7.82071 h -10.70501 v 17.74382 h -7.67475 v -43.35719 h 21.85025 v 7.82089 h -14.1755 z m 26.88434,18.72105 c 4.44825,0.0975 8.94498,0.44023 13.29557,0.68422 v 7.72323 c -6.98981,-0.44024 -13.9798,-0.87956 -21.11629,-1.02661 v -43.89455 h 7.82072 z m 19.89434,8.94516 c 2.4929,0.14686 5.13248,0.29355 7.67421,0.58638 v -46.04525 h -7.67421 z m 41.93974,-45.45887 -9.92293,23.80487 9.92293,26.24877 c -2.93313,-0.39104 -5.8659,-0.92876 -8.79885,-1.41765 l -5.621,-14.46832 -5.71849,13.29558 c -2.83564,-0.48924 -5.57288,-0.63593 -8.40744,-1.02697 l 10.06926,-22.92495 -9.09203,-23.51133 h 8.40709 l 5.13247,13.14889 5.47486,-13.14889 z"
       fill="#d81f26"
       id="path2081"
       style="fill:#e50914;fill-opacity:1;stroke-width:0.180867" />
  </g>
</svg>
