<svg xmlns="http://www.w3.org/2000/svg" xmlns:xlink="http://www.w3.org/1999/xlink" width="1000" height="562" viewBox="0 0 264.583 148.696">
    <defs>
        <radialGradient xlink:href="#a" id="b" cx="26.375" cy="97.114" fx="26.375" fy="97.114" r="132.292" gradientTransform="matrix(0 1.15153 -2.00992 0 221.566 -12.968)" gradientUnits="userSpaceOnUse"/>
        <linearGradient id="a">
            <stop style="stop-color:#282828;stop-opacity:1" offset="0"/>
            <stop style="stop-color:#191919;stop-opacity:1" offset="1"/>
        </linearGradient>
    </defs>
    <path style="opacity:.98;fill:url(#b);fill-opacity:1;stroke-width:1.61952" d="M0 0h264.583v148.696H0z"/>
    <path style="opacity:.98;fill:#e50914;fill-opacity:1;stroke-width:85.9894" d="M40 25a15 16 0 0 0-15 16v480a15 16 0 0 0 15 16h920a15 16 0 0 0 15-16V41a15 16 0 0 0-15-16H40zm12.5 12.5h895a15 16 0 0 1 15 16v455a15 16 0 0 1-15 16h-895a15 16 0 0 1-15-16v-455a15 16 0 0 1 15-16z" transform="scale(.26458)"/>
    <path d="M42.775 225.688c-3.715.612-7.495.795-11.405 1.283l-11.927-32.75v34.156c-3.715.366-7.104.855-10.624 1.344v-62.567h9.907l13.556 35.5v-35.5h10.493zm20.53-35.621c4.041 0 10.232-.184 13.947-.184v9.776c-4.627 0-10.036 0-13.947.184v14.542c6.127-.367 12.253-.856 18.444-1.04v9.41l-28.872 2.139v-57.74h28.872v9.776H63.305Zm57.223-13.137h-10.82v44.97c-3.519 0-7.038 0-10.427.122V176.93H88.463v-9.776h32.065zm16.945 12.465h14.273v9.776h-14.273v22.18H127.24v-54.197h29.133v9.776h-18.9zm35.845 23.401c5.931.122 11.927.55 17.728.855v9.654c-9.32-.55-18.64-1.099-28.155-1.283v-54.868h10.427zm26.526 11.182c3.324.183 6.844.367 10.233.733v-57.557h-10.233zm55.92-56.824-13.23 29.756 13.23 32.811c-3.91-.489-7.821-1.16-11.732-1.772l-7.495-18.085-7.624 16.619c-3.781-.612-7.43-.795-11.21-1.284l13.426-28.656-12.123-29.389h11.21l6.843 16.436 7.3-16.436z" fill="#d81f26" style="fill:#e50914;fill-opacity:1;stroke-width:.233499" transform="matrix(.75 0 0 .8 33.073 -84.402)"/>
</svg>
