<svg width="800" height="310" viewBox="0 0 211.667 82.021" xmlns="http://www.w3.org/2000/svg">
    <path style="fill:#003480;fill-opacity:1;fill-rule:evenodd;stroke:none" d="M7370.54 1402.63V3049.1l-1652.68-594.47v-410.87l547.77 199.23V1007.36l1104.91 395.27" transform="matrix(.02047 0 0 -.02047 16.511 82.02)"/>
    <path style="fill:#003480;fill-opacity:1;fill-rule:evenodd;stroke:none" d="M6740.32 4007.68c-679.67 0-1288.2-340-1650.52-857.5l291.44-203.62c297.8 424.26 792.32 708.26 1350.43 708.26 905.72 0 1625.5-742.18 1625.5-1650.97 0-908.82-719.78-1651.018-1625.5-1651.018-558.26 0-1049.78 286.09-1347.57 710.538l-296.75-207.108C5449.65 338.59 6040.11 0 6719.91 0c1111.74 0 2008.95 899.699 2008.95 2006.37 0 1106.72-881.86 2001.31-1988.54 2001.31" transform="matrix(.02047 0 0 -.02047 16.511 82.02)"/>
    <path style="fill:#003480;fill-opacity:1;fill-rule:nonzero;stroke:none" d="M4176.72 1398.05c-68.99 0-162.14 3.54-211.25 11.32v1203.59c52.94 3.11 130.95 4.95 211.25 4.95 365.1 0 542.58-200.72 542.58-613.57 0-413.64-172.42-606.29-542.58-606.29m23.67 1532.75c-195.8 0-325.35-3.36-429.42-6.08-64.66-1.66-115.71-3.01-164.04-3.01h-9v-1829.1l72.29-1.75c144.29-3.55 307.84-7.54 471.9-7.54 631.14 0 964.72 323.49 964.72 935.55 0 596.61-313.44 911.93-906.45 911.93M588.813 1774.85l178.742 561.69c23.996 74.97 48.082 161.81 66.422 239.08 17.152-66.21 40.375-147.01 69.281-240.9l179.242-559.87Zm497.177 1140.77-2.07 6.11H625.102L0 1088.77h370.516l119.894 376.8h691.11l120.63-376.8h406.88l-623.04 1826.85m1210.73-298.63c28.09.84 122.62 3.36 260.68 3.36 202.2 0 300.47-85.99 300.47-262.87 0-174.42-104.77-262.87-311.38-262.87h-249.77zm663.49-897.56c-27.92 47.76-60.97 96.25-87.22 133.04 232.9 82.18 372.43 268.42 372.43 519.59 0 365.53-229.09 558.76-662.53 558.76-191.78 0-366.91-3.78-494.82-6.53-66.35-1.45-118.77-2.56-148.63-2.56h-9V1088.77h366.28v699.05h202.72l412.72-699.05h440.57l-392.52 630.66" transform="matrix(.02047 0 0 -.02047 16.511 82.02)"/>
</svg>
