<?xml version="1.0" encoding="UTF-8" standalone="no"?>
<svg
   width="1000"
   height="1500"
   viewBox="0 0 264.58333 396.87501"
   version="1.1"
   id="svg8"
   inkscape:version="1.1.2 (0a00cf5339, 2022-02-04, custom)"
   sodipodi:docname="primary.svg"
   xmlns:inkscape="http://www.inkscape.org/namespaces/inkscape"
   xmlns:sodipodi="http://sodipodi.sourceforge.net/DTD/sodipodi-0.dtd"
   xmlns:xlink="http://www.w3.org/1999/xlink"
   xmlns="http://www.w3.org/2000/svg"
   xmlns:svg="http://www.w3.org/2000/svg"
   xmlns:rdf="http://www.w3.org/1999/02/22-rdf-syntax-ns#"
   xmlns:cc="http://creativecommons.org/ns#"
   xmlns:dc="http://purl.org/dc/elements/1.1/">
  <defs
     id="defs2">
    <inkscape:path-effect
       effect="fillet_chamfer"
       id="path-effect3429"
       is_visible="true"
       lpeversion="1"
       satellites_param="F,0,0,1,0,6.6145833,0,1 @ F,0,0,1,0,6.6145833,0,1 @ F,0,0,1,0,6.6145833,0,1 @ F,0,0,1,0,6.6145833,0,1"
       unit="px"
       method="auto"
       mode="F"
       radius="25"
       chamfer_steps="1"
       flexible="false"
       use_knot_distance="true"
       apply_no_radius="true"
       apply_with_radius="true"
       only_selected="false"
       hide_knots="false" />
    <inkscape:path-effect
       effect="fillet_chamfer"
       id="path-effect3427"
       is_visible="true"
       lpeversion="1"
       satellites_param="F,1,0,1,0,0.03,0,1 @ F,1,0,1,0,0.03,0,1 @ F,1,0,1,0,0.03,0,1 @ F,1,0,1,0,0.03,0,1"
       unit="px"
       method="auto"
       mode="F"
       radius="15"
       chamfer_steps="1"
       flexible="false"
       use_knot_distance="true"
       apply_no_radius="true"
       apply_with_radius="true"
       only_selected="false"
       hide_knots="false" />
    <inkscape:path-effect
       effect="fillet_chamfer"
       id="path-effect1210"
       is_visible="true"
       lpeversion="1"
       satellites_param="F,1,0,1,0,0.02,0,1 @ F,1,0,1,0,0.02,0,1 @ F,1,0,1,0,0.02,0,1 @ F,1,0,1,0,0.02,0,1"
       unit="px"
       method="auto"
       mode="F"
       radius="2"
       chamfer_steps="1"
       flexible="true"
       use_knot_distance="true"
       apply_no_radius="true"
       apply_with_radius="true"
       only_selected="false"
       hide_knots="false" />
    <inkscape:path-effect
       effect="fillet_chamfer"
       id="path-effect1191"
       is_visible="true"
       lpeversion="1"
       satellites_param="F,1,0,1,0,0.03,0,1 @ F,1,0,1,0,0.03,0,1 @ F,1,0,1,0,0.03,0,1 @ F,1,0,1,0,0.03,0,1"
       unit="px"
       method="auto"
       mode="F"
       radius="3"
       chamfer_steps="1"
       flexible="true"
       use_knot_distance="true"
       apply_no_radius="true"
       apply_with_radius="true"
       only_selected="false"
       hide_knots="false" />
    <linearGradient
       inkscape:collect="always"
       id="linearGradient847">
      <stop
         style="stop-color:#282828;stop-opacity:1"
         offset="0"
         id="stop843" />
      <stop
         style="stop-color:#191919;stop-opacity:1"
         offset="1"
         id="stop845" />
    </linearGradient>
    <radialGradient
       inkscape:collect="always"
       xlink:href="#linearGradient847"
       id="radialGradient849"
       cx="26.375103"
       cy="97.113945"
       fx="26.375103"
       fy="97.113945"
       r="132.29167"
       gradientTransform="matrix(0,3.0734875,-2.0099162,0,221.56598,-34.611386)"
       gradientUnits="userSpaceOnUse" />
  </defs>
  <sodipodi:namedview
     id="base"
     pagecolor="#757575"
     bordercolor="#666666"
     borderopacity="1.0"
     inkscape:pageopacity="1"
     inkscape:pageshadow="2"
     inkscape:zoom="0.50181065"
     inkscape:cx="487.23557"
     inkscape:cy="795.12063"
     inkscape:document-units="mm"
     inkscape:current-layer="layer1"
     inkscape:document-rotation="0"
     showgrid="false"
     units="px"
     inkscape:showpageshadow="false"
     inkscape:pagecheckerboard="false"
     inkscape:lockguides="true"
     inkscape:window-width="960"
     inkscape:window-height="1017"
     inkscape:window-x="-8"
     inkscape:window-y="-8"
     inkscape:window-maximized="0"
     showguides="true"
     inkscape:guide-bbox="true">
    <sodipodi:guide
       position="0,396.875"
       orientation="0,1000"
       inkscape:locked="true"
       id="guide833" />
    <sodipodi:guide
       position="264.58333,396.875"
       orientation="1500,0"
       inkscape:locked="true"
       id="guide835" />
    <sodipodi:guide
       position="264.58333,0"
       orientation="0,-1000"
       inkscape:locked="true"
       id="guide837" />
    <sodipodi:guide
       position="0,0"
       orientation="-1500,0"
       inkscape:locked="true"
       id="guide839" />
    <sodipodi:guide
       position="275.56944,291.04167"
       orientation="0,1"
       id="guide1075"
       inkscape:label=""
       inkscape:locked="true"
       inkscape:color="rgb(0,0,255)" />
    <sodipodi:guide
       position="323.19316,105.83333"
       orientation="0,1"
       id="guide1077"
       inkscape:label=""
       inkscape:locked="true"
       inkscape:color="rgb(0,0,255)" />
    <sodipodi:guide
       position="39.6875,280.99221"
       orientation="-1,0"
       id="guide1079"
       inkscape:label=""
       inkscape:locked="true"
       inkscape:color="rgb(0,0,255)" />
    <sodipodi:guide
       position="224.89583,283.67412"
       orientation="-1,0"
       id="guide1081"
       inkscape:label=""
       inkscape:locked="true"
       inkscape:color="rgb(0,0,255)" />
  </sodipodi:namedview>
  <metadata
     id="metadata5">
    <rdf:RDF>
      <cc:Work
         rdf:about="">
        <dc:format>image/svg+xml</dc:format>
        <dc:type
           rdf:resource="http://purl.org/dc/dcmitype/StillImage" />
      </cc:Work>
    </rdf:RDF>
  </metadata>
  <g
     inkscape:label="Layer 1"
     inkscape:groupmode="layer"
     id="layer1">
    <rect
       style="opacity:0.98;fill:url(#radialGradient849);fill-opacity:1;stroke-width:2.64583"
       id="rect841"
       width="264.58334"
       height="396.875"
       x="-5.0862632e-06"
       y="-4.7961635e-14" />
    <path
       id="rect3410"
       style="opacity:0.98;fill:#003480;fill-opacity:1;stroke-width:46.3438"
       d="M 49.832031 25 A 25 25 0 0 0 25 50 L 25 1450 A 25 25 0 0 0 50 1475 L 950 1475 A 25 25 0 0 0 975 1450 L 975 50 A 25 25 0 0 0 950 25 L 50 25 A 25 25 0 0 0 49.832031 25 z M 73.542969 50 A 23.68421 24.137931 0 0 1 73.683594 50 L 926.31641 50 A 23.68421 24.137931 0 0 1 950 74.138672 L 950 1425.8613 A 23.68421 24.137931 0 0 1 926.31641 1450 L 73.683594 1450 A 23.68421 24.137931 0 0 1 50 1425.8613 L 50 74.138672 A 23.68421 24.137931 0 0 1 73.542969 50 z "
       transform="scale(0.26458333)" />
    <g
       transform="matrix(0.02119406,0,0,-0.02119406,39.6875,244.93901)"
       id="g12">
      <path
         id="path14"
         style="fill:#003480;fill-opacity:1;fill-rule:evenodd;stroke:none"
         d="M 7370.54,1402.63 V 3049.1 L 5717.86,2454.63 v -410.87 l 547.77,199.23 V 1007.36 l 1104.91,395.27" />
      <path
         id="path16"
         style="fill:#003480;fill-opacity:1;fill-rule:evenodd;stroke:none"
         d="m 6740.32,4007.68 c -679.67,0 -1288.2,-340 -1650.52,-857.5 l 291.44,-203.62 c 297.8,424.26 792.32,708.26 1350.43,708.26 905.72,0 1625.5,-742.18 1625.5,-1650.97 0,-908.82 -719.78,-1651.018 -1625.5,-1651.018 -558.26,0 -1049.78,286.09 -1347.57,710.538 L 5087.35,856.262 C 5449.65,338.59 6040.11,0 6719.91,0 c 1111.74,0 2008.95,899.699 2008.95,2006.37 0,1106.72 -881.86,2001.31 -1988.54,2001.31" />
      <path
         id="path18"
         style="fill:#003480;fill-opacity:1;fill-rule:nonzero;stroke:none"
         d="m 4176.72,1398.05 c -68.99,0 -162.14,3.54 -211.25,11.32 v 1203.59 c 52.94,3.11 130.95,4.95 211.25,4.95 365.1,0 542.58,-200.72 542.58,-613.57 0,-413.64 -172.42,-606.29 -542.58,-606.29 m 23.67,1532.75 c -195.8,0 -325.35,-3.36 -429.42,-6.08 -64.66,-1.66 -115.71,-3.01 -164.04,-3.01 h -9 v -1829.1 l 72.29,-1.75 c 144.29,-3.55 307.84,-7.54 471.9,-7.54 631.14,0 964.72,323.49 964.72,935.55 0,596.61 -313.44,911.93 -906.45,911.93" />
      <path
         id="path20"
         style="fill:#003480;fill-opacity:1;fill-rule:nonzero;stroke:none"
         d="m 588.813,1774.85 178.742,561.69 c 23.996,74.97 48.082,161.81 66.422,239.08 17.152,-66.21 40.375,-147.01 69.281,-240.9 L 1082.5,1774.85 Z m 497.177,1140.77 -2.07,6.11 H 625.102 L 0,1088.77 h 370.516 l 119.894,376.8 h 691.11 l 120.63,-376.8 h 406.88 l -623.04,1826.85" />
      <path
         id="path22"
         style="fill:#003480;fill-opacity:1;fill-rule:nonzero;stroke:none"
         d="m 2296.72,2616.99 c 28.09,0.84 122.62,3.36 260.68,3.36 202.2,0 300.47,-85.99 300.47,-262.87 0,-174.42 -104.77,-262.87 -311.38,-262.87 h -249.77 z m 663.49,-897.56 c -27.92,47.76 -60.97,96.25 -87.22,133.04 232.9,82.18 372.43,268.42 372.43,519.59 0,365.53 -229.09,558.76 -662.53,558.76 -191.78,0 -366.91,-3.78 -494.82,-6.53 -66.35,-1.45 -118.77,-2.56 -148.63,-2.56 h -9 V 1088.77 h 366.28 v 699.05 h 202.72 l 412.72,-699.05 h 440.57 l -392.52,630.66" />
    </g>
  </g>
</svg>
