<svg width="800" height="310" viewBox="0 0 211.667 82.021" xmlns="http://www.w3.org/2000/svg">
    <g style="stroke-width:1.56209">
        <path d="M7370.54 1402.63V3049.1l-1652.68-594.47v-410.87l547.77 199.23V1007.36l1104.91 395.27" style="fill:#003480;fill-opacity:1;fill-rule:evenodd;stroke:none;stroke-width:1.56209" transform="matrix(.0122 0 0 -.0122 0 65.441)"/>
        <path d="M6740.32 4007.68c-679.67 0-1288.2-340-1650.52-857.5l291.44-203.62c297.8 424.26 792.32 708.26 1350.43 708.26 905.72 0 1625.5-742.18 1625.5-1650.97 0-908.82-719.78-1651.018-1625.5-1651.018-558.26 0-1049.78 286.09-1347.57 710.538l-296.75-207.108C5449.65 338.59 6040.11 0 6719.91 0c1111.74 0 2008.95 899.699 2008.95 2006.37 0 1106.72-881.86 2001.31-1988.54 2001.31" style="fill:#003480;fill-opacity:1;fill-rule:evenodd;stroke:none;stroke-width:1.56209" transform="matrix(.0122 0 0 -.0122 0 65.441)"/>
        <path d="M4176.72 1398.05c-68.99 0-162.14 3.54-211.25 11.32v1203.59c52.94 3.11 130.95 4.95 211.25 4.95 365.1 0 542.58-200.72 542.58-613.57 0-413.64-172.42-606.29-542.58-606.29m23.67 1532.75c-195.8 0-325.35-3.36-429.42-6.08-64.66-1.66-115.71-3.01-164.04-3.01h-9v-1829.1l72.29-1.75c144.29-3.55 307.84-7.54 471.9-7.54 631.14 0 964.72 323.49 964.72 935.55 0 596.61-313.44 911.93-906.45 911.93M588.813 1774.85l178.742 561.69c23.996 74.97 48.082 161.81 66.422 239.08 17.152-66.21 40.375-147.01 69.281-240.9l179.242-559.87Zm497.177 1140.77-2.07 6.11H625.102L0 1088.77h370.516l119.894 376.8h691.11l120.63-376.8h406.88l-623.04 1826.85m1210.73-298.63c28.09.84 122.62 3.36 260.68 3.36 202.2 0 300.47-85.99 300.47-262.87 0-174.42-104.77-262.87-311.38-262.87h-249.77zm663.49-897.56c-27.92 47.76-60.97 96.25-87.22 133.04 232.9 82.18 372.43 268.42 372.43 519.59 0 365.53-229.09 558.76-662.53 558.76-191.78 0-366.91-3.78-494.82-6.53-66.35-1.45-118.77-2.56-148.63-2.56h-9V1088.77h366.28v699.05h202.72l412.72-699.05h440.57l-392.52 630.66" style="fill:#003480;fill-opacity:1;fill-rule:nonzero;stroke:none;stroke-width:1.56209" transform="matrix(.0122 0 0 -.0122 0 65.441)"/>
    </g>
    <path d="m1327.346 90.91-19.91 5.934v37.437h-22.508v16.435h22.508v66.655c0 24.936 6.9 34.697 29.433 34.697 7.072 0 15.02-.885 21.21-2.282V231.98c-4.416 1.168-10.069 2.054-15.15 2.054-12.371 0-15.583-5.086-15.583-24.197v-59.122h30.732V134.28h-30.732zm-491.925 1.14c-16.353 0-33.096.685-44.583.913v157.28c11.046 0 22.629.912 37.657.912 48.834 0 83.106-27.648 83.106-81.492 0-54.073-28.447-77.613-76.18-77.613zm-1.948 17.577c38.679 0 56.702 21.311 56.702 61.405 0 42.66-24.386 61.862-59.3 61.862-5.964 0-14.17-.439-19.694-1.37V110.312c5.523-.237 14.561-.685 22.292-.685zm150.846 22.6c-31.157 0-48.912 25.757-48.912 60.49 0 40.788 18.128 59.58 51.941 59.58 13.704 0 26.404-2.648 37.008-7.305l-1.73-16.892c-8.84 4.437-20.76 7.076-32.031 7.076-23.426 0-35.51-13.285-34.628-44.284h71.636c.441-3.963.65-7.25.65-10.044 0-26.57-12.995-48.622-43.934-48.622zm119.464 0c-30.715 0-48.262 20.27-48.262 44.74 0 14.692 5.402 26.58 16.232 33.1-7.74 3.734-12.553 11.249-12.553 19.403 0 7.688 4.19 13.623 10.821 16.892-9.721 5.36-17.963 16.371-17.963 30.132 0 22.142 17.807 34.012 46.098 34.012 34.472 0 58.434-19.13 58.434-43.6 0-20.983-13.357-33.1-37.225-33.1h-20.343c-13.262 0-18.829-2.61-18.829-9.13 0-3.735 2.277-7.487 7.142-9.588 3.757.695 9.211 1.598 13.851 1.598 31.381 0 47.83-18.206 47.83-43.143 0-9.797-3.559-17.933-9.307-22.599h18.612v-16.663h-37.44c-5.749-1.397-10.692-2.055-17.098-2.055zm121.845 0c-31.156 0-49.127 25.757-49.127 60.49 0 40.788 18.127 59.58 51.941 59.58 13.704 0 26.61-2.648 37.224-7.305l-1.731-16.892c-8.839 4.437-20.76 7.076-32.03 7.076-23.426 0-35.727-13.285-34.844-44.284h71.852c.45-3.963.649-7.25.649-10.044 0-26.57-12.994-48.622-43.934-48.622zm206.9 0c-33.148 0-53.457 26.917-53.457 60.947 0 40.788 19.296 59.123 49.128 59.123 32.48 0 53.672-27.128 53.672-62.09 0-41.719-21.278-57.98-49.344-57.98zM983.452 147.52c15.47 0 24.906 11.514 24.455 28.534h-51.075c2.207-17.02 12.258-28.534 26.62-28.534zm241.31 0c15.47 0 24.897 11.514 24.455 28.534h-51.292c2.208-17.02 12.475-28.534 26.837-28.534zm-121.846.23c16.794 0 26.404 10.144 26.404 27.164 0 17.011-10.692 26.48-27.27 26.48-17.235 0-27.052-9.232-27.052-26.48 0-15.623 10.458-27.164 27.918-27.164zm327.879 1.826c20.326 0 30.299 15.431 30.299 41.773 0 29.603-13.946 43.144-30.3 43.144-20.109 0-30.948-15.404-30.948-43.372 0-28.67 15.038-41.545 30.949-41.545zM1085.82 251.385h28.135c15.47 0 22.94 6.839 22.94 18.033 0 14.217-13.166 24.425-35.709 24.425-17.236 0-29.433-7.478-29.433-21.229 0-8.857 5.454-16.572 14.067-21.23z" style="fill:#003480;fill-opacity:1;fill-rule:evenodd;stroke:none;stroke-width:.999999" transform="translate(0 16.58) scale(.14284)"/>
</svg>
