<?xml version="1.0" encoding="UTF-8" standalone="no"?>
<svg
   width="1000"
   height="562"
   viewBox="0 0 264.58333 148.69584"
   version="1.1"
   id="svg8"
   inkscape:version="1.2 (dc2aedaf03, 2022-05-15)"
   sodipodi:docname="thumb.svg"
   xml:space="preserve"
   xmlns:inkscape="http://www.inkscape.org/namespaces/inkscape"
   xmlns:sodipodi="http://sodipodi.sourceforge.net/DTD/sodipodi-0.dtd"
   xmlns:xlink="http://www.w3.org/1999/xlink"
   xmlns="http://www.w3.org/2000/svg"
   xmlns:svg="http://www.w3.org/2000/svg"
   xmlns:rdf="http://www.w3.org/1999/02/22-rdf-syntax-ns#"
   xmlns:cc="http://creativecommons.org/ns#"
   xmlns:dc="http://purl.org/dc/elements/1.1/"><defs
     id="defs2"><inkscape:path-effect
       effect="fillet_chamfer"
       id="path-effect2883"
       is_visible="true"
       lpeversion="1"
       satellites_param="F,0,0,1,0,5.2916667,0,1 @ F,0,0,1,0,5.2916667,0,1 @ F,0,0,1,0,5.2916667,0,1 @ F,0,0,1,0,5.2916667,0,1"
       unit="px"
       method="auto"
       mode="F"
       radius="20"
       chamfer_steps="1"
       flexible="false"
       use_knot_distance="true"
       apply_no_radius="true"
       apply_with_radius="true"
       only_selected="false"
       hide_knots="false"
       nodesatellites_param="F,0,0,1,0,5.2916667,0,1 @ F,0,0,1,0,5.2916667,0,1 @ F,0,0,1,0,5.2916667,0,1 @ F,0,0,1,0,5.2916667,0,1" /><inkscape:path-effect
       effect="fillet_chamfer"
       id="path-effect2864"
       is_visible="true"
       lpeversion="1"
       satellites_param="F,0,0,1,0,5.2916667,0,1 @ F,0,0,1,0,5.2916667,0,1 @ F,0,0,1,0,5.2916667,0,1 @ F,0,0,1,0,5.2916667,0,1"
       unit="px"
       method="auto"
       mode="F"
       radius="20"
       chamfer_steps="1"
       flexible="false"
       use_knot_distance="true"
       apply_no_radius="true"
       apply_with_radius="true"
       only_selected="false"
       hide_knots="false"
       nodesatellites_param="F,0,0,1,0,5.2916667,0,1 @ F,0,0,1,0,5.2916667,0,1 @ F,0,0,1,0,5.2916667,0,1 @ F,0,0,1,0,5.2916667,0,1" /><inkscape:path-effect
       effect="fillet_chamfer"
       id="path-effect2862"
       is_visible="true"
       lpeversion="1"
       satellites_param="F,0,0,1,0,0,0,1 @ F,0,0,1,0,0,0,1 @ F,0,0,1,0,0,0,1 @ F,0,0,1,0,0,0,1"
       unit="px"
       method="auto"
       mode="F"
       radius="0"
       chamfer_steps="1"
       flexible="false"
       use_knot_distance="true"
       apply_no_radius="true"
       apply_with_radius="true"
       only_selected="false"
       hide_knots="false"
       nodesatellites_param="F,0,0,1,0,0,0,1 @ F,0,0,1,0,0,0,1 @ F,0,0,1,0,0,0,1 @ F,0,0,1,0,0,0,1" /><inkscape:path-effect
       effect="fillet_chamfer"
       id="path-effect1088"
       is_visible="true"
       lpeversion="1"
       satellites_param="F,0,0,1,0,5.2916667,0,1 @ F,0,0,1,0,5.2916667,0,1 @ F,0,0,1,0,5.2916667,0,1 @ F,0,0,1,0,5.2916667,0,1"
       unit="px"
       method="auto"
       mode="F"
       radius="20"
       chamfer_steps="1"
       flexible="false"
       use_knot_distance="true"
       apply_no_radius="true"
       apply_with_radius="true"
       only_selected="false"
       hide_knots="false"
       nodesatellites_param="F,0,0,1,0,5.2916667,0,1 @ F,0,0,1,0,5.2916667,0,1 @ F,0,0,1,0,5.2916667,0,1 @ F,0,0,1,0,5.2916667,0,1" /><inkscape:path-effect
       effect="fillet_chamfer"
       id="path-effect1308"
       is_visible="true"
       lpeversion="1"
       satellites_param="F,1,0,1,0,0.04,0,1 @ F,1,0,1,0,0.04,0,1 @ F,1,0,1,0,0.04,0,1 @ F,1,0,1,0,0.04,0,1"
       unit="px"
       method="auto"
       mode="F"
       radius="4"
       chamfer_steps="1"
       flexible="true"
       use_knot_distance="true"
       apply_no_radius="true"
       apply_with_radius="true"
       only_selected="false"
       hide_knots="false"
       nodesatellites_param="F,1,0,1,0,0.04,0,1 @ F,1,0,1,0,0.04,0,1 @ F,1,0,1,0,0.04,0,1 @ F,1,0,1,0,0.04,0,1" /><inkscape:path-effect
       effect="fillet_chamfer"
       id="path-effect1306"
       is_visible="true"
       lpeversion="1"
       satellites_param="F,1,0,1,0,0.03,0,1 @ F,1,0,1,0,0.03,0,1 @ F,1,0,1,0,0.03,0,1 @ F,1,0,1,0,0.03,0,1"
       unit="px"
       method="auto"
       mode="F"
       radius="3"
       chamfer_steps="1"
       flexible="true"
       use_knot_distance="true"
       apply_no_radius="true"
       apply_with_radius="true"
       only_selected="false"
       hide_knots="false"
       nodesatellites_param="F,1,0,1,0,0.03,0,1 @ F,1,0,1,0,0.03,0,1 @ F,1,0,1,0,0.03,0,1 @ F,1,0,1,0,0.03,0,1" /><inkscape:path-effect
       effect="fillet_chamfer"
       id="path-effect1210"
       is_visible="true"
       lpeversion="1"
       satellites_param="F,1,0,1,0,0.02,0,1 @ F,1,0,1,0,0.02,0,1 @ F,1,0,1,0,0.02,0,1 @ F,1,0,1,0,0.02,0,1"
       unit="px"
       method="auto"
       mode="F"
       radius="2"
       chamfer_steps="1"
       flexible="true"
       use_knot_distance="true"
       apply_no_radius="true"
       apply_with_radius="true"
       only_selected="false"
       hide_knots="false"
       nodesatellites_param="F,1,0,1,0,0.02,0,1 @ F,1,0,1,0,0.02,0,1 @ F,1,0,1,0,0.02,0,1 @ F,1,0,1,0,0.02,0,1" /><inkscape:path-effect
       effect="fillet_chamfer"
       id="path-effect1191"
       is_visible="true"
       lpeversion="1"
       satellites_param="F,1,0,1,0,0.03,0,1 @ F,1,0,1,0,0.03,0,1 @ F,1,0,1,0,0.03,0,1 @ F,1,0,1,0,0.03,0,1"
       unit="px"
       method="auto"
       mode="F"
       radius="3"
       chamfer_steps="1"
       flexible="true"
       use_knot_distance="true"
       apply_no_radius="true"
       apply_with_radius="true"
       only_selected="false"
       hide_knots="false"
       nodesatellites_param="F,1,0,1,0,0.03,0,1 @ F,1,0,1,0,0.03,0,1 @ F,1,0,1,0,0.03,0,1 @ F,1,0,1,0,0.03,0,1" /><linearGradient
       inkscape:collect="always"
       id="linearGradient847"><stop
         style="stop-color:#ffffff;stop-opacity:1;"
         offset="0"
         id="stop843" /><stop
         style="stop-color:#ededed;stop-opacity:1;"
         offset="1"
         id="stop845" /></linearGradient><radialGradient
       inkscape:collect="always"
       xlink:href="#linearGradient847"
       id="radialGradient849"
       cx="26.375103"
       cy="97.113945"
       fx="26.375103"
       fy="97.113945"
       r="132.29167"
       gradientTransform="matrix(0,1.1515333,-2.0099162,0,221.56598,-12.967733)"
       gradientUnits="userSpaceOnUse" /></defs><sodipodi:namedview
     id="base"
     pagecolor="#757575"
     bordercolor="#666666"
     borderopacity="1.0"
     inkscape:pageopacity="1"
     inkscape:pageshadow="2"
     inkscape:zoom="1"
     inkscape:cx="268.5"
     inkscape:cy="267"
     inkscape:document-units="mm"
     inkscape:current-layer="layer1"
     inkscape:document-rotation="0"
     showgrid="false"
     units="px"
     inkscape:showpageshadow="false"
     inkscape:pagecheckerboard="false"
     inkscape:lockguides="true"
     inkscape:window-width="1920"
     inkscape:window-height="1017"
     inkscape:window-x="-8"
     inkscape:window-y="-8"
     inkscape:window-maximized="1"
     showguides="true"
     inkscape:guide-bbox="true"
     inkscape:deskcolor="#757575"><sodipodi:guide
       position="0,148.69584"
       orientation="0,1000"
       inkscape:locked="true"
       id="guide1270" /><sodipodi:guide
       position="264.58334,148.69584"
       orientation="562,0"
       inkscape:locked="true"
       id="guide1272" /><sodipodi:guide
       position="264.58334,0"
       orientation="0,-1000"
       inkscape:locked="true"
       id="guide1274" /><sodipodi:guide
       position="0,0"
       orientation="-562,0"
       inkscape:locked="true"
       id="guide1276" /><sodipodi:guide
       position="21.201605,127.26459"
       orientation="0,1"
       id="guide2557"
       inkscape:label=""
       inkscape:locked="true"
       inkscape:color="rgb(0,0,255)" /><sodipodi:guide
       position="-33.82728,21.43125"
       orientation="0,1"
       id="guide2559"
       inkscape:label=""
       inkscape:locked="true"
       inkscape:color="rgb(0,0,255)" /><sodipodi:guide
       position="39.687501,148.69584"
       orientation="-1,0"
       id="guide2561"
       inkscape:label=""
       inkscape:locked="true"
       inkscape:color="rgb(0,0,255)" /><sodipodi:guide
       position="224.89584,148.69584"
       orientation="-1,0"
       id="guide2563"
       inkscape:label=""
       inkscape:locked="true"
       inkscape:color="rgb(0,0,255)" /></sodipodi:namedview><metadata
     id="metadata5"><rdf:RDF><cc:Work
         rdf:about=""><dc:format>image/svg+xml</dc:format><dc:type
           rdf:resource="http://purl.org/dc/dcmitype/StillImage" /></cc:Work></rdf:RDF></metadata><g
     inkscape:label="Layer 1"
     inkscape:groupmode="layer"
     id="layer1"><rect
       style="opacity:0.98;fill:url(#radialGradient849);fill-opacity:1;stroke-width:1.61952"
       id="background"
       width="264.58334"
       height="148.69583"
       x="-5.0862632e-06"
       y="-4.7961635e-14" /><g
       transform="matrix(3.4803433,0,0,3.4803433,-104.49598,-393.65466)"
       id="logo"><path
         d="m 86.866958,136.01558 c 0,1.00506 -0.814564,1.81963 -1.819626,1.81963 -1.005065,0 -1.81963,-0.81457 -1.81963,-1.81963 0,-1.00506 0.814565,-1.81963 1.81963,-1.81963 1.005062,0 1.819626,0.81457 1.819626,1.81963"
         style="fill:#00d282;fill-opacity:1;fill-rule:nonzero;stroke:none;stroke-width:0.352778"
         id="path5432" /><path
         d="m 93.397473,133.52769 c -0.288925,-0.2286 -0.97155,-0.76341 -2.235906,-0.74966 -0.408517,0.004 -0.710846,0.0632 -0.893234,0.11184 l 0.151342,-1.5106 h 3.571523 v -1.64853 h -5.082823 l -0.618067,5.09658 1.32574,0.13511 c 0.497417,-0.40816 1.03011,-0.52316 1.414992,-0.52528 0.435681,-0.003 0.859718,0.12206 1.167341,0.387 0.346782,0.2988 0.59055,0.71543 0.59055,1.26717 0,1.03011 -0.892526,1.74414 -1.799518,1.74414 -0.727782,0 -1.387123,-0.39794 -1.785763,-0.96132 l -1.332442,1.11266 c 0.851959,0.96167 1.991784,1.49719 3.186997,1.49719 1.991783,0 3.585278,-1.35996 3.585278,-3.39267 0,-1.05798 -0.478366,-1.9565 -1.24601,-2.56363"
         style="fill:#232323;fill-opacity:1;fill-rule:nonzero;stroke:none;stroke-width:0.352778"
         id="path5436" /><path
         d="m 60.532133,139.34679 v -6.66256 h 1.716969 v 0.53587 c 0.508353,-0.41205 1.140178,-0.6731 1.882069,-0.6731 0.920397,0 1.758245,0.4124 2.307872,1.07138 0.439562,0.52212 0.686506,1.19522 0.686506,2.33539 v 3.39302 h -1.785761 v -3.53025 c 0,-0.65934 -0.150989,-1.00294 -0.398286,-1.25024 -0.233539,-0.23354 -0.59055,-0.37112 -1.002595,-0.37112 -0.75565,0 -1.373716,0.48119 -1.621013,0.82444 v 4.32717 z"
         style="fill:#232323;fill-opacity:1;fill-rule:nonzero;stroke:none;stroke-width:0.352778"
         id="path5440" /><path
         d="m 79.713366,135.15706 c -0.05503,-0.59055 -0.59055,-1.16769 -1.318683,-1.16769 -0.741892,0 -1.3462,0.56338 -1.42875,1.16769 z m 1.661935,3.13196 c -0.645583,0.76941 -1.70321,1.19521 -2.73332,1.19521 -1.992138,0 -3.489325,-1.37371 -3.489325,-3.46181 0,-1.85455 1.264002,-3.47521 3.242027,-3.47521 1.840441,0 3.145718,1.55187 3.145718,3.40642 0,0.17886 -0.01376,0.35737 -0.04127,0.50836 H 76.88374 c 0.09596,0.93415 0.851606,1.57973 1.799521,1.57973 0.755295,0 1.359958,-0.4258 1.675693,-0.76905 z"
         style="fill:#232323;fill-opacity:1;fill-rule:nonzero;stroke:none;stroke-width:0.352778"
         id="path5444" /><path
         d="m 57.293916,135.01976 c -0.371123,-0.49459 -0.961673,-0.82409 -1.648531,-0.82409 -1.043869,0 -1.717322,0.86537 -1.717322,1.82668 0,1.04423 0.756003,1.81328 1.758597,1.81328 0.6731,0 1.26365,-0.32949 1.607256,-0.82409 z m 1.785761,4.32717 h -1.71697 v -0.53587 c -0.549628,0.46708 -1.181453,0.6731 -1.854553,0.6731 -0.989188,0 -1.923344,-0.43956 -2.513894,-1.12642 -0.522111,-0.6043 -0.851958,-1.42839 -0.851958,-2.33539 0,-1.96426 1.456266,-3.47521 3.269544,-3.47521 0.75565,0 1.42875,0.24695 1.950861,0.6731 v -0.53587 h 1.71697 z"
         style="fill:#232323;fill-opacity:1;fill-rule:nonzero;stroke:none;stroke-width:0.352778"
         id="path5448" /><path
         d="m 74.743819,137.98687 c -0.782815,1.04387 -1.772002,1.49719 -3.021894,1.49719 -2.060575,0 -3.571523,-1.53847 -3.571523,-3.46146 0,-1.9371 1.551869,-3.47556 3.584927,-3.47556 1.153938,0 2.1844,0.53587 2.802467,1.33244 l -1.264002,1.11266 c -0.35701,-0.46708 -0.892527,-0.79693 -1.538465,-0.79693 -1.03011,0 -1.799166,0.81069 -1.799166,1.82739 0,1.04387 0.755298,1.81293 1.840441,1.81293 0.728134,0 1.30528,-0.43921 1.593498,-0.87877 z"
         style="fill:#232323;fill-opacity:1;fill-rule:nonzero;stroke:none;stroke-width:0.352778"
         id="path5452" /><path
         d="m 51.867875,134.26408 c -0.123825,-0.0413 -0.384528,-0.0688 -0.645583,-0.0688 -0.782814,0 -1.401234,0.56339 -1.621014,0.96168 v 4.18994 h -1.785761 v -6.66256 h 1.717322 v 0.6731 c 0.398286,-0.4946 1.126419,-0.81033 1.93675,-0.81033 0.261056,0 0.412044,0.0272 0.604308,0.055 z"
         style="fill:#232323;fill-opacity:1;fill-rule:nonzero;stroke:none;stroke-width:0.352778"
         id="path5456" /><path
         d="m 46.716437,131.10477 c -0.150989,-0.0413 -0.370769,-0.0688 -0.535869,-0.0688 -0.439561,0 -0.782814,0.12383 -1.002595,0.38488 -0.151341,0.19191 -0.247297,0.43956 -0.247297,1.05763 v 0.20602 h 2.060575 v 1.51095 h -2.060575 v 5.15126 h -1.785761 v -5.15126 h -1.716969 v -1.51095 h 1.716969 v -0.27481 c 0,-1.07139 0.247297,-1.71697 0.714375,-2.17064 0.467078,-0.45297 1.167342,-0.78282 2.073981,-0.78282 0.357363,0 0.687211,0.0275 1.05798,0.12383 z"
         style="fill:#232323;fill-opacity:1;fill-rule:nonzero;stroke:none;stroke-width:0.352778"
         id="path5460" /></g><path
       id="border"
       style="fill:#00d282;fill-opacity:1;opacity:0.98;stroke-width:85.9894"
       d="M 40 25 A 15 16 0 0 0 25 41 L 25 521 A 15 16 0 0 0 40 537 L 960 537 A 15 16 0 0 0 975 521 L 975 41 A 15 16 0 0 0 960 25 L 40 25 z M 52.5 37.5 L 947.5 37.5 A 15 16 0 0 1 962.5 53.5 L 962.5 508.5 A 15 16 0 0 1 947.5 524.5 L 52.5 524.5 A 15 16 0 0 1 37.5 508.5 L 37.5 53.5 A 15 16 0 0 1 52.5 37.5 z "
       transform="scale(0.26458333)" /></g></svg>
